<svg width="801" height="803" fill="none" xmlns="http://www.w3.org/2000/svg"><g clip-path="url(#clip0_1852_695)"><mask id="a" fill="#fff"><path d="M195.255 791.208c-11.843 0-23.309-.752-34.384-2.262-41.12-5.604-74.957-21.431-100.564-47.043-25.612-25.61-41.441-59.446-47.045-100.563-5.395-39.599-1.129-84.258 12.684-132.737a488.24 488.24 0 0 1 4.47-14.772c6.546-20.461 14.617-41.091 24.113-61.732a404.65 404.65 0 0 1 1.474-3.175c8.048-17.232 17.091-34.472 27.056-51.606a707.804 707.804 0 0 1 16.472-26.917 749.182 749.182 0 0 1 12.968-19.507c.612-.891 1.228-1.781 1.845-2.674a787.587 787.587 0 0 1 12.941-18.092c.634-.86 1.264-1.709 1.901-2.569a802.501 802.501 0 0 1 13.619-17.8 281.34 281.34 0 0 0-4.601 11.009 797.275 797.275 0 0 0-5.924 7.868c-.635.852-1.275 1.715-1.904 2.567a784.946 784.946 0 0 0-12.779 17.854c-.622.895-1.234 1.781-1.851 2.674a759.652 759.652 0 0 0-14.606 22.037 723.191 723.191 0 0 0-14.565 23.854 681.219 681.219 0 0 0-12.77 22.857 550.754 550.754 0 0 0-1.611 3.045 634.598 634.598 0 0 0-12.529 25.108 553.672 553.672 0 0 0-1.484 3.176c-9.578 20.635-17.651 41.073-24.164 61.119-.371 1.137-.74 2.288-1.098 3.422C1.281 596.234 8.674 685.955 62.465 739.746c25.128 25.128 58.374 40.666 98.817 46.175 10.937 1.492 22.276 2.237 33.978 2.237 22.948.003 47.307-2.861 72.883-8.565a441.344 441.344 0 0 0 24.625-6.266c15.125-4.31 30.364-9.479 45.656-15.467 1.1-.432 2.211-.87 3.311-1.31 18.657-7.444 37.371-16.098 56.038-25.888a670.38 670.38 0 0 0 28.916-16.099 704.04 704.04 0 0 0 23.798-14.66 749.143 749.143 0 0 0 21.991-14.703 777.987 777.987 0 0 0 20.461-14.706 772.051 772.051 0 0 0 8.69-6.554 277.1 277.1 0 0 0 10.751-4.483 798.594 798.594 0 0 1-20.968 15.958A779.435 779.435 0 0 1 470.6 690.2a747.746 747.746 0 0 1-22.36 14.755 709.215 709.215 0 0 1-21.27 12.978 673.836 673.836 0 0 1-29.194 16.168c-18.862 9.834-37.78 18.516-56.627 25.965-1.1.433-2.208.868-3.309 1.295-14.816 5.745-29.578 10.722-44.236 14.901a445.163 445.163 0 0 1-23.127 5.931c-.875.2-1.745.394-2.618.586-25.448 5.614-49.717 8.429-72.604 8.429zm319.627-133.726l-.307-.679c.921-.419 1.84-.844 2.756-1.271-.811.647-1.635 1.305-2.449 1.95zM655.4 516.452a275.728 275.728 0 0 0 3.421-8.056l-.767-.312a819.923 819.923 0 0 0 9.373-12.403c.632-.855 1.269-1.722 1.899-2.58a773.416 773.416 0 0 0 14.647-20.648 744.833 744.833 0 0 0 14.65-22.229 707.513 707.513 0 0 0 14.565-24.031 673.902 673.902 0 0 0 14.113-25.645 617.595 617.595 0 0 0 14.21-29.029c9.424-20.622 17.421-41.234 23.882-61.664a488.75 488.75 0 0 0 3.933-13.084c13.698-48.072 17.938-92.311 12.597-131.488-5.514-40.444-21.052-73.69-46.178-98.818-25.131-25.129-58.379-40.666-98.818-46.178-10.942-1.492-22.275-2.237-33.98-2.237-24.043 0-49.643 3.143-76.56 9.404a447.925 447.925 0 0 0-20.947 5.428c-16.157 4.603-32.458 10.195-48.802 16.71-1.1.44-2.198.88-3.298 1.328-17.662 7.172-35.375 15.427-53.041 24.696-1.014.534-2.032 1.07-3.048 1.61a670.97 670.97 0 0 0-25.249 14.135c-.97.568-1.94 1.144-2.907 1.717a712.879 712.879 0 0 0-23.598 14.662 745.576 745.576 0 0 0-21.838 14.712 765.886 765.886 0 0 0-17.756 12.792c-.855.634-1.707 1.269-2.562 1.906a843.99 843.99 0 0 0-6.758 5.113 281.626 281.626 0 0 0-10.758 4.488 807.85 807.85 0 0 1 19.013-14.511 784.293 784.293 0 0 1 20.661-14.778 744.783 744.783 0 0 1 22.206-14.768 719.708 719.708 0 0 1 21.08-12.976l2.907-1.71a676.489 676.489 0 0 1 28.604-15.829c17.854-9.314 35.753-17.592 53.602-24.773 1.098-.442 2.195-.88 3.293-1.315 15.881-6.272 31.71-11.669 47.412-16.142a443.534 443.534 0 0 1 22.918-5.885C554 18.03 579.218 15 602.952 15c11.843 0 23.31.755 34.387 2.265 41.117 5.604 74.951 21.43 100.563 47.043 25.61 25.61 41.437 59.444 47.041 100.563 5.399 39.597 1.131 84.255-12.684 132.734a484.209 484.209 0 0 1-3.389 11.349c-6.43 20.625-14.424 41.434-23.869 62.258-.481 1.06-.973 2.132-1.459 3.191-8.009 17.383-17.022 34.761-26.986 52.056a706.472 706.472 0 0 1-16.439 27.099 740.308 740.308 0 0 1-12.989 19.681c-.609.893-1.225 1.794-1.84 2.687a780.642 780.642 0 0 1-14.831 20.784 810.918 810.918 0 0 1-12.902 16.996l-1.945 2.482c-.072.087-.141.177-.21.264z"/></mask><path d="M195.255 791.208c-11.843 0-23.309-.752-34.384-2.262-41.12-5.604-74.957-21.431-100.564-47.043-25.612-25.61-41.441-59.446-47.045-100.563-5.395-39.599-1.129-84.258 12.684-132.737a488.24 488.24 0 0 1 4.47-14.772c6.546-20.461 14.617-41.091 24.113-61.732a404.65 404.65 0 0 1 1.474-3.175c8.048-17.232 17.091-34.472 27.056-51.606a707.804 707.804 0 0 1 16.472-26.917 749.182 749.182 0 0 1 12.968-19.507c.612-.891 1.228-1.781 1.845-2.674a787.587 787.587 0 0 1 12.941-18.092c.634-.86 1.264-1.709 1.901-2.569a802.501 802.501 0 0 1 13.619-17.8 281.34 281.34 0 0 0-4.601 11.009 797.275 797.275 0 0 0-5.924 7.868c-.635.852-1.275 1.715-1.904 2.567a784.946 784.946 0 0 0-12.779 17.854c-.622.895-1.234 1.781-1.851 2.674a759.652 759.652 0 0 0-14.606 22.037 723.191 723.191 0 0 0-14.565 23.854 681.219 681.219 0 0 0-12.77 22.857 550.754 550.754 0 0 0-1.611 3.045 634.598 634.598 0 0 0-12.529 25.108 553.672 553.672 0 0 0-1.484 3.176c-9.578 20.635-17.651 41.073-24.164 61.119-.371 1.137-.74 2.288-1.098 3.422C1.281 596.234 8.674 685.955 62.465 739.746c25.128 25.128 58.374 40.666 98.817 46.175 10.937 1.492 22.276 2.237 33.978 2.237 22.948.003 47.307-2.861 72.883-8.565a441.344 441.344 0 0 0 24.625-6.266c15.125-4.31 30.364-9.479 45.656-15.467 1.1-.432 2.211-.87 3.311-1.31 18.657-7.444 37.371-16.098 56.038-25.888a670.38 670.38 0 0 0 28.916-16.099 704.04 704.04 0 0 0 23.798-14.66 749.143 749.143 0 0 0 21.991-14.703 777.987 777.987 0 0 0 20.461-14.706 772.051 772.051 0 0 0 8.69-6.554 277.1 277.1 0 0 0 10.751-4.483 798.594 798.594 0 0 1-20.968 15.958A779.435 779.435 0 0 1 470.6 690.2a747.746 747.746 0 0 1-22.36 14.755 709.215 709.215 0 0 1-21.27 12.978 673.836 673.836 0 0 1-29.194 16.168c-18.862 9.834-37.78 18.516-56.627 25.965-1.1.433-2.208.868-3.309 1.295-14.816 5.745-29.578 10.722-44.236 14.901a445.163 445.163 0 0 1-23.127 5.931c-.875.2-1.745.394-2.618.586-25.448 5.614-49.717 8.429-72.604 8.429zm319.627-133.726l-.307-.679c.921-.419 1.84-.844 2.756-1.271-.811.647-1.635 1.305-2.449 1.95zM655.4 516.452a275.728 275.728 0 0 0 3.421-8.056l-.767-.312a819.923 819.923 0 0 0 9.373-12.403c.632-.855 1.269-1.722 1.899-2.58a773.416 773.416 0 0 0 14.647-20.648 744.833 744.833 0 0 0 14.65-22.229 707.513 707.513 0 0 0 14.565-24.031 673.902 673.902 0 0 0 14.113-25.645 617.595 617.595 0 0 0 14.21-29.029c9.424-20.622 17.421-41.234 23.882-61.664a488.75 488.75 0 0 0 3.933-13.084c13.698-48.072 17.938-92.311 12.597-131.488-5.514-40.444-21.052-73.69-46.178-98.818-25.131-25.129-58.379-40.666-98.818-46.178-10.942-1.492-22.275-2.237-33.98-2.237-24.043 0-49.643 3.143-76.56 9.404a447.925 447.925 0 0 0-20.947 5.428c-16.157 4.603-32.458 10.195-48.802 16.71-1.1.44-2.198.88-3.298 1.328-17.662 7.172-35.375 15.427-53.041 24.696-1.014.534-2.032 1.07-3.048 1.61a670.97 670.97 0 0 0-25.249 14.135c-.97.568-1.94 1.144-2.907 1.717a712.879 712.879 0 0 0-23.598 14.662 745.576 745.576 0 0 0-21.838 14.712 765.886 765.886 0 0 0-17.756 12.792c-.855.634-1.707 1.269-2.562 1.906a843.99 843.99 0 0 0-6.758 5.113 281.626 281.626 0 0 0-10.758 4.488 807.85 807.85 0 0 1 19.013-14.511 784.293 784.293 0 0 1 20.661-14.778 744.783 744.783 0 0 1 22.206-14.768 719.708 719.708 0 0 1 21.08-12.976l2.907-1.71a676.489 676.489 0 0 1 28.604-15.829c17.854-9.314 35.753-17.592 53.602-24.773 1.098-.442 2.195-.88 3.293-1.315 15.881-6.272 31.71-11.669 47.412-16.142a443.534 443.534 0 0 1 22.918-5.885C554 18.03 579.218 15 602.952 15c11.843 0 23.31.755 34.387 2.265 41.117 5.604 74.951 21.43 100.563 47.043 25.61 25.61 41.437 59.444 47.041 100.563 5.399 39.597 1.131 84.255-12.684 132.734a484.209 484.209 0 0 1-3.389 11.349c-6.43 20.625-14.424 41.434-23.869 62.258-.481 1.06-.973 2.132-1.459 3.191-8.009 17.383-17.022 34.761-26.986 52.056a706.472 706.472 0 0 1-16.439 27.099 740.308 740.308 0 0 1-12.989 19.681c-.609.893-1.225 1.794-1.84 2.687a780.642 780.642 0 0 1-14.831 20.784 810.918 810.918 0 0 1-12.902 16.996l-1.945 2.482c-.072.087-.141.177-.21.264z" stroke="#C7AB77" stroke-width=".512" mask="url(#a)"/><g opacity=".3"><mask id="b" style="mask-type:luminance" maskUnits="userSpaceOnUse" x="174" y="161" width="36" height="38"><path d="M207.433 197.658c.496-.471.993-.94 1.493-1.406l-31.803-33.828v-.001a1.025 1.025 0 0 0-1.447-.046l-.002.002a1.022 1.022 0 0 0-.047 1.447l31.806 33.832z" stroke="#fff"/></mask><g mask="url(#b)"><path d="M207.433 197.658c.496-.471.993-.94 1.493-1.406l-31.803-33.828v-.001a1.025 1.025 0 0 0-1.447-.046l-.002.002a1.022 1.022 0 0 0-.047 1.447l31.806 33.832z" stroke="#C7AB77"/></g></g><g opacity=".3"><mask id="c" style="mask-type:luminance" maskUnits="userSpaceOnUse" x="149" y="86" width="79" height="98"><path d="M224.952 182.367a249.23 249.23 0 0 1 1.603-1.278l-74.488-93.694h-.001a1.016 1.016 0 0 0-.8-.387 1.025 1.025 0 0 0-.801 1.665v.001l74.487 93.693z" stroke="#fff"/></mask><g mask="url(#c)"><path d="M224.952 182.367a249.23 249.23 0 0 1 1.603-1.278l-74.488-93.694h-.001a1.016 1.016 0 0 0-.8-.387 1.025 1.025 0 0 0-.801 1.665v.001l74.487 93.693z" stroke="#C7AB77"/></g></g><g opacity=".3"><mask id="d" style="mask-type:luminance" maskUnits="userSpaceOnUse" x="217" y="127" width="30" height="43"><path d="M217.915 129.99v.001l25.766 38.58c.566-.383 1.133-.763 1.702-1.141l-25.763-38.575-.001-.001a1.035 1.035 0 0 0-1.423-.286c-.47.319-.594.955-.281 1.422z" stroke="#fff"/></mask><g mask="url(#d)"><path d="M217.915 129.99v.001l25.766 38.58c.566-.383 1.133-.763 1.702-1.141l-25.763-38.575-.001-.001a1.035 1.035 0 0 0-1.423-.286c-.47.319-.594.955-.281 1.422z" stroke="#C7AB77"/></g></g><g opacity=".3"><mask id="e" style="mask-type:luminance" maskUnits="userSpaceOnUse" x="204" y="49" width="62" height="110"><path d="M263.492 156.375c.596-.334 1.194-.665 1.794-.994L207.302 50.72h-.001a1.03 1.03 0 0 0-1.396-.403c-.496.276-.673.9-.399 1.392l.001.001 57.985 104.665z" stroke="#fff"/></mask><g mask="url(#e)"><path d="M263.492 156.375c.596-.334 1.194-.665 1.794-.994L207.302 50.72h-.001a1.03 1.03 0 0 0-1.396-.403c-.496.276-.673.9-.399 1.392l.001.001 57.985 104.665z" stroke="#C7AB77"/></g></g><g opacity=".3"><mask id="f" style="mask-type:luminance" maskUnits="userSpaceOnUse" x="264" y="101" width="23" height="46"><path d="M265.724 102.24l-.002.001a1.027 1.027 0 0 0-.514 1.358l19.034 42.273c.621-.283 1.244-.563 1.869-.841l-19.034-42.276v-.001a1.027 1.027 0 0 0-1.353-.514z" stroke="#fff"/></mask><g mask="url(#f)"><path d="M265.724 102.24l-.002.001a1.027 1.027 0 0 0-.514 1.358l19.034 42.273c.621-.283 1.244-.563 1.869-.841l-19.034-42.276v-.001a1.027 1.027 0 0 0-1.353-.514z" stroke="#C7AB77"/></g></g><g opacity=".3"><mask id="g" style="mask-type:luminance" maskUnits="userSpaceOnUse" x="265" y="22" width="44" height="117"><path d="M265.888 24.34v-.001a1.02 1.02 0 0 1 .623-1.306h.001a1.03 1.03 0 0 1 1.309.624l-1.933.682zm0 0l37.991 107.347a635.95 635.95 0 0 1 1.721-1.278L267.822 23.658l-1.934.681zm39.917 112.791c.644-.231 1.289-.458 1.934-.682l-.725-2.048c-.574.426-1.147.853-1.721 1.282l.512 1.448z" stroke="#fff"/></mask><g mask="url(#g)"><path d="M265.888 24.34v-.001a1.02 1.02 0 0 1 .623-1.306h.001a1.03 1.03 0 0 1 1.309.624l-1.933.682zm0 0l37.991 107.347a635.95 635.95 0 0 1 1.721-1.278L267.822 23.658l-1.934.681zm39.917 112.791c.644-.231 1.289-.458 1.934-.682l-.725-2.048c-.574.426-1.147.853-1.721 1.282l.512 1.448z" stroke="#C7AB77"/></g></g><g opacity=".3"><mask id="h" style="mask-type:luminance" maskUnits="userSpaceOnUse" x="315" y="83" width="16" height="48"><path d="M316.21 85.368l8.28 31.477a836.94 836.94 0 0 1 1.793-1.243l-8.092-30.757-.001-.002a1.019 1.019 0 0 0-.984-.764.969.969 0 0 0-.259.036l-.007.001a1.022 1.022 0 0 0-.73 1.252zm11.17 34.397c-.597.415-1.195.831-1.792 1.248l2.424 9.214c.661-.176 1.322-.348 1.983-.519l-2.615-9.943z" stroke="#fff"/></mask><g mask="url(#h)"><path d="M316.21 85.368l8.28 31.477a836.94 836.94 0 0 1 1.793-1.243l-8.092-30.757-.001-.002a1.019 1.019 0 0 0-.984-.764.969.969 0 0 0-.259.036l-.007.001a1.022 1.022 0 0 0-.73 1.252zm11.17 34.397c-.597.415-1.195.831-1.792 1.248l2.424 9.214c.661-.176 1.322-.348 1.983-.519l-2.615-9.943z" stroke="#C7AB77"/></g></g><g opacity=".3"><mask id="i" style="mask-type:luminance" maskUnits="userSpaceOnUse" x="329" y="5" width="25" height="123"><path d="M351.689 125.013l.492-.085.086.491.177 1.011.563-.097-3.736-21.209c-.624.401-1.248.804-1.87 1.207l3.32 18.853c.323-.058.645-.115.968-.171zM331.975 6.953a1.028 1.028 0 0 0-1.189-.835 1.028 1.028 0 0 0-.833 1.189l16.684 94.699c.624-.402 1.25-.804 1.872-1.202l-16.534-93.85z" stroke="#fff"/></mask><g mask="url(#i)"><path d="M351.689 125.013l.492-.085.086.491.177 1.011.563-.097-3.736-21.209c-.624.401-1.248.804-1.87 1.207l3.32 18.853c.323-.058.645-.115.968-.171zM331.975 6.953a1.028 1.028 0 0 0-1.189-.835 1.028 1.028 0 0 0-.833 1.189l16.684 94.699c.624-.402 1.25-.804 1.872-1.202l-16.534-93.85z" stroke="#C7AB77"/></g></g><g opacity=".3"><mask id="j" style="mask-type:luminance" maskUnits="userSpaceOnUse" x="369" y="74" width="8" height="49"><path d="M370.45 74.687h-.007c-.564.052-.979.55-.927 1.115l1.049 11.436c.651-.384 1.305-.768 1.954-1.149l-.959-10.473a1.034 1.034 0 0 0-1.11-.93zm.603 16.965l-.078.046 2.784 30.34c.681-.066 1.362-.128 2.042-.188l-2.872-31.308-1.876 1.11z" stroke="#fff"/></mask><g mask="url(#j)"><path d="M370.45 74.687h-.007c-.564.052-.979.55-.927 1.115l1.049 11.436c.651-.384 1.305-.768 1.954-1.149l-.959-10.473a1.034 1.034 0 0 0-1.11-.93zm.603 16.965l-.078.046 2.784 30.34c.681-.066 1.362-.128 2.042-.188l-2.872-31.308-1.876 1.11z" stroke="#C7AB77"/></g></g><g opacity=".3"><mask id="k" style="mask-type:luminance" maskUnits="userSpaceOnUse" x="398" y="-1" width="4" height="123"><path d="M399.037 1.07l.066 70.232c.682-.36 1.367-.718 2.048-1.074l-.064-69.159c0-.568-.458-1.026-1.025-1.026-.568 0-1.027.46-1.025 1.027zm-.498.001h-.002.002zm2.459 73.807c-.631.332-1.261.665-1.892 1l.043 44.88a241.727 241.727 0 0 1 2.05-.006l-.044-45.956-.157.082z" stroke="#fff"/></mask><g mask="url(#k)"><path d="M399.037 1.07l.066 70.232c.682-.36 1.367-.718 2.048-1.074l-.064-69.159c0-.568-.458-1.026-1.025-1.026-.568 0-1.027.46-1.025 1.027zm-.498.001h-.002.002zm2.459 73.807c-.631.332-1.261.665-1.892 1l.043 44.88a241.727 241.727 0 0 1 2.05-.006l-.044-45.956-.157.082z" stroke="#C7AB77"/></g></g><g opacity=".3"><mask id="l" style="mask-type:luminance" maskUnits="userSpaceOnUse" x="419" y="73" width="8" height="50"><path d="M420.231 121.426c.681.048 1.362.098 2.043.15l3.443-46.26a1.023 1.023 0 0 0-1.019-1.1c-.529 0-.987.412-1.026.949h-.001l-3.44 46.261z" stroke="#fff"/></mask><g mask="url(#l)"><path d="M420.231 121.426c.681.048 1.362.098 2.043.15l3.443-46.26a1.023 1.023 0 0 0-1.019-1.1c-.529 0-.987.412-1.026.949h-.001l-3.44 46.261z" stroke="#C7AB77"/></g></g><g opacity=".3"><mask id="m" style="mask-type:luminance" maskUnits="userSpaceOnUse" x="442" y="4" width="23" height="121"><path d="M462.084 5.828v.001l-6.201 39.135c.738-.296 1.475-.59 2.213-.882l6.012-37.933a1.024 1.024 0 0 0-.852-1.17h-.003a1.027 1.027 0 0 0-1.169.85zm-16.7 118.493l11.977-75.587c-.74.296-1.478.593-2.217.894l-11.784 74.374c.674.103 1.349.21 2.024.319z" stroke="#fff"/></mask><g mask="url(#m)"><path d="M462.084 5.828v.001l-6.201 39.135c.738-.296 1.475-.59 2.213-.882l6.012-37.933a1.024 1.024 0 0 0-.852-1.17h-.003a1.027 1.027 0 0 0-1.169.85zm-16.7 118.493l11.977-75.587c-.74.296-1.478.593-2.217.894l-11.784 74.374c.674.103 1.349.21 2.024.319z" stroke="#C7AB77"/></g></g><g opacity=".3"><mask id="n" style="mask-type:luminance" maskUnits="userSpaceOnUse" x="465" y="82" width="15" height="50"><path d="M465.814 129.971l11.378-46.496a1.027 1.027 0 0 1 1.244-.754c.548.138.882.69.748 1.24l-13.37 46.01zm0 0c.664.159 1.329.321 1.992.486l11.378-46.495-13.37 46.009z" stroke="#fff"/></mask><g mask="url(#n)"><path d="M465.814 129.971l11.378-46.496a1.027 1.027 0 0 1 1.244-.754c.548.138.882.69.748 1.24l-13.37 46.01zm0 0c.664.159 1.329.321 1.992.486l11.378-46.495-13.37 46.009z" stroke="#C7AB77"/></g></g><g opacity=".3"><mask id="o" style="mask-type:luminance" maskUnits="userSpaceOnUse" x="487" y="20" width="43" height="117"><path d="M526.983 26.497c-.783.184-1.565.37-2.351.56l-36.077 107.818c.648.214 1.297.431 1.944.651l36.484-109.029zm-.467-5.07l-.37 1.107c.781-.184 1.562-.365 2.34-.543a1.021 1.021 0 0 0-.996-1.266c-.43 0-.829.272-.974.7v.001z" stroke="#fff"/></mask><g mask="url(#o)"><path d="M526.983 26.497c-.783.184-1.565.37-2.351.56l-36.077 107.818c.648.214 1.297.431 1.944.651l36.484-109.029zm-.467-5.07l-.37 1.107c.781-.184 1.562-.365 2.34-.543a1.021 1.021 0 0 0-.996-1.266c-.43 0-.829.272-.974.7v.001z" stroke="#C7AB77"/></g></g><g opacity=".3"><mask id="p" style="mask-type:luminance" maskUnits="userSpaceOnUse" x="509" y="99" width="23" height="47"><path d="M512.185 143.899l.006.003 18.298-42.593a1.024 1.024 0 0 0-.536-1.347l-.005-.002a1.021 1.021 0 0 0-1.339.537l-.001.001-18.902 43.994c.471.201.943.403 1.413.606l.409-.94.2-.457.457.198z" stroke="#fff"/></mask><g mask="url(#p)"><path d="M512.185 143.899l.006.003 18.298-42.593a1.024 1.024 0 0 0-.536-1.347l-.005-.002a1.021 1.021 0 0 0-1.339.537l-.001.001-18.902 43.994c.471.201.943.403 1.413.606l.409-.94.2-.457.457.198z" stroke="#C7AB77"/></g></g><g opacity=".3"><mask id="q" style="mask-type:luminance" maskUnits="userSpaceOnUse" x="530" y="46" width="60" height="109"><path d="M589.307 48.402l-56.178 105.662c-.603-.324-1.206-.646-1.81-.965l56.179-105.66 1.809.963zm0 0a1.022 1.022 0 0 0-.902-1.507c-.37 0-.723.198-.907.543l1.809.964z" stroke="#fff"/></mask><g mask="url(#q)"><path d="M589.307 48.402l-56.178 105.662c-.603-.324-1.206-.646-1.81-.965l56.179-105.66 1.809.963zm0 0a1.022 1.022 0 0 0-.902-1.507c-.37 0-.723.198-.907.543l1.809.964z" stroke="#C7AB77"/></g></g><g opacity=".3"><mask id="r" style="mask-type:luminance" maskUnits="userSpaceOnUse" x="550" y="124" width="29" height="43"><path d="M551.409 164.795l25.097-39.021-25.097 39.021zm0 0c.577.367 1.152.737 1.726 1.109l25.096-39.019.001-.001a1.026 1.026 0 1 0-1.726-1.11l-25.097 39.021z" stroke="#fff"/></mask><g mask="url(#r)"><path d="M551.409 164.795l25.097-39.021-25.097 39.021zm0 0c.577.367 1.152.737 1.726 1.109l25.096-39.019.001-.001a1.026 1.026 0 1 0-1.726-1.11l-25.097 39.021z" stroke="#C7AB77"/></g></g><g opacity=".3"><mask id="s" style="mask-type:luminance" maskUnits="userSpaceOnUse" x="569" y="82" width="77" height="99"><path d="M643.349 83.157l-.001.001-72.859 94.965c.543.414 1.085.83 1.626 1.249l72.861-94.967a1.026 1.026 0 0 0-.814-1.65c-.308 0-.612.14-.813.402z" stroke="#fff"/></mask><g mask="url(#s)"><path d="M643.349 83.157l-.001.001-72.859 94.965c.543.414 1.085.83 1.626 1.249l72.861-94.967a1.026 1.026 0 0 0-.814-1.65c-.308 0-.612.14-.813.402z" stroke="#C7AB77"/></g></g><g opacity=".3"><mask id="t" style="mask-type:luminance" maskUnits="userSpaceOnUse" x="587" y="157" width="35" height="39"><path d="M588.382 192.957c.508.457 1.014.918 1.518 1.378l31.197-34.351.001-.001a1.023 1.023 0 0 0-.759-1.714c-.28 0-.558.114-.761.338l-31.196 34.35z" stroke="#fff"/></mask><g mask="url(#t)"><path d="M588.382 192.957c.508.457 1.014.918 1.518 1.378l31.197-34.351.001-.001a1.023 1.023 0 0 0-.759-1.714c-.28 0-.558.114-.761.338l-31.196 34.35z" stroke="#C7AB77"/></g></g><g opacity=".3"><mask id="u" style="mask-type:luminance" maskUnits="userSpaceOnUse" x="603" y="126" width="92" height="86"><path d="M692.538 127.605l-87.523 81.633.282.298c.375.397.748.797 1.119 1.198l87.521-81.632.001-.001a1.024 1.024 0 1 0-1.399-1.496h-.001z" stroke="#fff"/></mask><g mask="url(#u)"><path d="M692.538 127.605l-87.523 81.633.282.298c.375.397.748.797 1.119 1.198l87.521-81.632.001-.001a1.024 1.024 0 1 0-1.399-1.496h-.001z" stroke="#C7AB77"/></g></g><g opacity=".3"><mask id="v" style="mask-type:luminance" maskUnits="userSpaceOnUse" x="619" y="197" width="40" height="33"><path d="M620.232 226.808c.425.535.849 1.07 1.271 1.608l36.41-28.71-37.681 27.102zm0 0l36.412-28.712h.001a1.024 1.024 0 0 1 1.439.171l-37.852 28.541zm37.682-27.102c.444-.352.52-.997.171-1.439l-.171 1.439z" stroke="#fff"/></mask><g mask="url(#v)"><path d="M620.232 226.808c.425.535.849 1.07 1.271 1.608l36.41-28.71-37.681 27.102zm0 0l36.412-28.712h.001a1.024 1.024 0 0 1 1.439.171l-37.852 28.541zm37.682-27.102c.444-.352.52-.997.171-1.439l-.171 1.439z" stroke="#C7AB77"/></g></g><g opacity=".3"><mask id="w" style="mask-type:luminance" maskUnits="userSpaceOnUse" x="633" y="178" width="103" height="71"><path d="M735.143 179.845l-.001-.001a1.018 1.018 0 0 0-.854-.456c-.195 0-.393.055-.567.168l-.001.001-99.756 66.048c.38.568.758 1.138 1.134 1.708l99.755-66.044c.475-.317.603-.951.29-1.424z" stroke="#fff"/></mask><g mask="url(#w)"><path d="M735.143 179.845l-.001-.001a1.018 1.018 0 0 0-.854-.456c-.195 0-.393.055-.567.168l-.001.001-99.756 66.048c.38.568.758 1.138 1.134 1.708l99.755-66.044c.475-.317.603-.951.29-1.424z" stroke="#C7AB77"/></g></g><g opacity=".3"><mask id="x" style="mask-type:luminance" maskUnits="userSpaceOnUse" x="645" y="242" width="44" height="26"><path d="M646.072 265.45c.333.598.661 1.197.988 1.798l40.609-22.289.001-.001a1.025 1.025 0 1 0-.984-1.798l-.002.001-40.612 22.289z" stroke="#fff"/></mask><g mask="url(#x)"><path d="M646.072 265.45c.333.598.661 1.197.988 1.798l40.609-22.289.001-.001a1.025 1.025 0 1 0-.984-1.798l-.002.001-40.612 22.289z" stroke="#C7AB77"/></g></g><g opacity=".3"><mask id="y" style="mask-type:luminance" maskUnits="userSpaceOnUse" x="655" y="237" width="113" height="53"><path d="M655.933 288.723l.015.034 110.655-49.29a1.025 1.025 0 0 0-.421-1.963c-.141 0-.281.028-.412.086l-.001.001-109.263 48.671c.202.449.402.897.601 1.347l.202.456-.456.203-.937.417.017.038z" stroke="#fff"/></mask><g mask="url(#y)"><path d="M655.933 288.723l.015.034 110.655-49.29a1.025 1.025 0 0 0-.421-1.963c-.141 0-.281.028-.412.086l-.001.001-109.263 48.671c.202.449.402.897.601 1.347l.202.456-.456.203-.937.417.017.038z" stroke="#C7AB77"/></g></g><g opacity=".3"><mask id="z" style="mask-type:luminance" maskUnits="userSpaceOnUse" x="664" y="292" width="47" height="19"><path d="M665.152 307.844c.228.646.452 1.291.674 1.937l43.726-15.28h.001a1.025 1.025 0 0 0-.675-1.935l-.002.001-43.724 15.277z" stroke="#fff"/></mask><g mask="url(#z)"><path d="M665.152 307.844c.228.646.452 1.291.674 1.937l43.726-15.28h.001a1.025 1.025 0 0 0-.675-1.935l-.002.001-43.724 15.277z" stroke="#C7AB77"/></g></g><g opacity=".3"><mask id="A" style="mask-type:luminance" maskUnits="userSpaceOnUse" x="671" y="299" width="119" height="34"><path d="M787.8 300.12l.003-.001a1.026 1.026 0 0 1 .51 1.988l-.513-1.987zm0 0l-16.12 4.172a516.59 516.59 0 0 1-.709 2.304l17.341-4.488-.512-1.988zm-20.724 5.365l-95.098 24.618c.173.661.343 1.322.511 1.984l93.866-24.296c.242-.767.483-1.538.721-2.306z" stroke="#fff"/></mask><g mask="url(#A)"><path d="M787.8 300.12l.003-.001a1.026 1.026 0 0 1 .51 1.988l-.513-1.987zm0 0l-16.12 4.172a516.59 516.59 0 0 1-.709 2.304l17.341-4.488-.512-1.988zm-20.724 5.365l-95.098 24.618c.173.661.343 1.322.511 1.984l93.866-24.296c.242-.767.483-1.538.721-2.306z" stroke="#C7AB77"/></g></g><g opacity=".3"><mask id="B" style="mask-type:luminance" maskUnits="userSpaceOnUse" x="676" y="344" width="49" height="12"><path d="M676.919 352.816c.118.673.233 1.347.346 2.021l45.696-7.863h.001a1.02 1.02 0 0 0 .834-1.182v-.001a1.028 1.028 0 0 0-1.192-.837l-45.685 7.862z" stroke="#fff"/></mask><g mask="url(#B)"><path d="M676.919 352.816c.118.673.233 1.347.346 2.021l45.696-7.863h.001a1.02 1.02 0 0 0 .834-1.182v-.001a1.028 1.028 0 0 0-1.192-.837l-45.685 7.862z" stroke="#C7AB77"/></g></g><g opacity=".3"><mask id="C" style="mask-type:luminance" maskUnits="userSpaceOnUse" x="679" y="364" width="122" height="15"><path d="M679.982 375.89c.062.681.122 1.363.179 2.044l60.902-5.345.99-2.145-62.071 5.446zm66.708-5.854c-.324.713-.652 1.431-.98 2.145l53.676-4.71c.564-.05.981-.546.933-1.111a1.038 1.038 0 0 0-1.115-.932l-52.514 4.608z" stroke="#fff"/></mask><g mask="url(#C)"><path d="M679.982 375.89c.062.681.122 1.363.179 2.044l60.902-5.345.99-2.145-62.071 5.446zm66.708-5.854c-.324.713-.652 1.431-.98 2.145l53.676-4.71c.564-.05.981-.546.933-1.111a1.038 1.038 0 0 0-1.115-.932l-52.514 4.608z" stroke="#C7AB77"/></g></g><g opacity=".3"><mask id="D" style="mask-type:luminance" maskUnits="userSpaceOnUse" x="679" y="398" width="50" height="4"><path d="M727.514 398.893l-46.367.215v.33l-.495.005-1.023.01c.004.569.007 1.142.008 1.71l47.383-.219c.337-.641.672-1.278 1.006-1.919a1.018 1.018 0 0 0-.504-.132h-.008z" stroke="#fff"/></mask><g mask="url(#D)"><path d="M727.514 398.893l-46.367.215v.33l-.495.005-1.023.01c.004.569.007 1.142.008 1.71l47.383-.219c.337-.641.672-1.278 1.006-1.919a1.018 1.018 0 0 0-.504-.132h-.008z" stroke="#C7AB77"/></g></g><g opacity=".3"><mask id="E" style="mask-type:luminance" maskUnits="userSpaceOnUse" x="679" y="421" width="123" height="14"><path d="M800.624 432.825l.001-.002a1.022 1.022 0 0 0-.941-1.101l-81.499-6.388c-.378.654-.758 1.31-1.139 1.965l82.469 6.465.102.005a1.022 1.022 0 0 0 1.007-.944zm-86.913-7.844l-33.308-2.611c-.05.683-.103 1.364-.157 2.045l32.318 2.534c.386-.659.766-1.311 1.147-1.968z" stroke="#fff"/></mask><g mask="url(#E)"><path d="M800.624 432.825l.001-.002a1.022 1.022 0 0 0-.941-1.101l-81.499-6.388c-.378.654-.758 1.31-1.139 1.965l82.469 6.465.102.005a1.022 1.022 0 0 0 1.007-.944zm-86.913-7.844l-33.308-2.611c-.05.683-.103 1.364-.157 2.045l32.318 2.534c.386-.659.766-1.311 1.147-1.968z" stroke="#C7AB77"/></g></g><g opacity=".3"><mask id="F" style="mask-type:luminance" maskUnits="userSpaceOnUse" x="675" y="444" width="50" height="12"><path d="M723.452 452.9h-.001l-19.958-3.246c-.398.63-.795 1.256-1.194 1.884l20.804 3.381.204.017c.485-.009.91-.364.989-.861l.001-.001a1.02 1.02 0 0 0-.845-1.174zm-47.219-7.676c-.1.638-.202 1.273-.306 1.909l1.009.169.509.085-.021.107 20.524 3.337c.401-.626.802-1.255 1.2-1.883l-22.915-3.724z" stroke="#fff"/></mask><g mask="url(#F)"><path d="M723.452 452.9h-.001l-19.958-3.246c-.398.63-.795 1.256-1.194 1.884l20.804 3.381.204.017c.485-.009.91-.364.989-.861l.001-.001a1.02 1.02 0 0 0-.845-1.174zm-47.219-7.676c-.1.638-.202 1.273-.306 1.909l1.009.169.509.085-.021.107 20.524 3.337c.401-.626.802-1.255 1.2-1.883l-22.915-3.724z" stroke="#C7AB77"/></g></g><g opacity=".3"><mask id="G" style="mask-type:luminance" maskUnits="userSpaceOnUse" x="672" y="467" width="119" height="33"><path d="M789.22 497.187l-.001-.001L688.7 472.16c-.411.601-.824 1.205-1.237 1.806l101.23 25.203.303.036c.452-.012.855-.319.97-.777v-.001a1.023 1.023 0 0 0-.746-1.24zm-104.712-26.071l-11.358-2.826c-.162.663-.328 1.327-.495 1.99l10.611 2.641c.415-.601.829-1.203 1.242-1.805z" stroke="#fff"/></mask><g mask="url(#G)"><path d="M789.22 497.187l-.001-.001L688.7 472.16c-.411.601-.824 1.205-1.237 1.806l101.23 25.203.303.036c.452-.012.855-.319.97-.777v-.001a1.023 1.023 0 0 0-.746-1.24zm-104.712-26.071l-11.358-2.826c-.162.663-.328 1.327-.495 1.99l10.611 2.641c.415-.601.829-1.203 1.242-1.805z" stroke="#C7AB77"/></g></g><g opacity=".3"><mask id="H" style="mask-type:luminance" maskUnits="userSpaceOnUse" x="665" y="489" width="47" height="19"><path d="M672.619 494.807l37.217 12.616.403.068c.413-.016.795-.284.935-.696l-38.555-11.988zm0 0c.426-.578.85-1.156 1.274-1.734l36.637 12.421c.537.182.824.763.644 1.3l-38.555-11.987zm-2.747-3.1l-3.19-1.081c-.218.648-.438 1.296-.66 1.943l2.573.872c.425-.575.852-1.156 1.277-1.734z" stroke="#fff"/></mask><g mask="url(#H)"><path d="M672.619 494.807l37.217 12.616.403.068c.413-.016.795-.284.935-.696l-38.555-11.988zm0 0c.426-.578.85-1.156 1.274-1.734l36.637 12.421c.537.182.824.763.644 1.3l-38.555-11.987zm-2.747-3.1l-3.19-1.081c-.218.648-.438 1.296-.66 1.943l2.573.872c.425-.575.852-1.156 1.277-1.734z" stroke="#C7AB77"/></g></g><g opacity=".3"><mask id="I" style="mask-type:luminance" maskUnits="userSpaceOnUse" x="656" y="512" width="114" height="51"><path d="M768.094 560.027h-.001l-109.026-47.358-.734.937-.574.732 109.47 47.548.501.104c.379-.017.733-.245.895-.618l.001-.001a1.022 1.022 0 0 0-.532-1.344z" stroke="#fff"/></mask><g mask="url(#I)"><path d="M768.094 560.027h-.001l-109.026-47.358-.734.937-.574.732 109.47 47.548.501.104c.379-.017.733-.245.895-.618l.001-.001a1.022 1.022 0 0 0-.532-1.344z" stroke="#C7AB77"/></g></g><g opacity=".3"><mask id="J" style="mask-type:luminance" maskUnits="userSpaceOnUse" x="646" y="532" width="45" height="26"><path d="M648.283 533.321c-.321.603-.644 1.205-.969 1.806l40.826 21.917.001.001a1.025 1.025 0 0 0 1.389-.42v-.001a1.02 1.02 0 0 0-.417-1.384l-.001-.001-40.829-21.918z" stroke="#fff"/></mask><g mask="url(#J)"><path d="M648.283 533.321c-.321.603-.644 1.205-.969 1.806l40.826 21.917.001.001a1.025 1.025 0 0 0 1.389-.42v-.001a1.02 1.02 0 0 0-.417-1.384l-.001-.001-40.829-21.918z" stroke="#C7AB77"/></g></g><g opacity=".3"><mask id="K" style="mask-type:luminance" maskUnits="userSpaceOnUse" x="634" y="551" width="104" height="70"><path d="M735.772 620.238l.002.002a1.028 1.028 0 0 0 1.415-.302 1.024 1.024 0 0 0-.303-1.419v-.001l-101.669-65.964-.188.291.861.559.419.273-.273.419c-.218.337-.437.672-.657 1.007l100.393 65.135z" stroke="#fff"/></mask><g mask="url(#K)"><path d="M735.772 620.238l.002.002a1.028 1.028 0 0 0 1.415-.302 1.024 1.024 0 0 0-.303-1.419v-.001l-101.669-65.964-.188.291.861.559.419.273-.273.419c-.218.337-.437.672-.657 1.007l100.393 65.135z" stroke="#C7AB77"/></g></g><g opacity=".3"><mask id="L" style="mask-type:luminance" maskUnits="userSpaceOnUse" x="621" y="571" width="40" height="33"><path d="M658.519 602.385l.001.001c.186.145.405.215.624.215a1.027 1.027 0 0 0 .629-1.837l-.001-.001-36.678-28.372c-.416.542-.835 1.083-1.255 1.621l36.68 28.373z" stroke="#fff"/></mask><g mask="url(#L)"><path d="M658.519 602.385l.001.001c.186.145.405.215.624.215a1.027 1.027 0 0 0 .629-1.837l-.001-.001-36.678-28.372c-.416.542-.835 1.083-1.255 1.621l36.68 28.373z" stroke="#C7AB77"/></g></g><g opacity=".3"><mask id="M" style="mask-type:luminance" maskUnits="userSpaceOnUse" x="606" y="589" width="92" height="85"><path d="M695.072 672.573l-88.278-80.817c.464-.503.926-1.007 1.387-1.514l88.278 80.817-1.387 1.514zm0 0c.198.181.444.268.694.268m-.694-.268l.694.268m0 0c.277 0 .554-.111.757-.331m-.757.331l.757-.331m0 0a1.03 1.03 0 0 0-.063-1.451l.063 1.451z" stroke="#fff"/></mask><g mask="url(#M)"><path d="M695.072 672.573l-88.278-80.817c.464-.503.926-1.007 1.387-1.514l88.278 80.817-1.387 1.514zm0 0c.198.181.444.268.694.268m-.694-.268l.694.268m0 0c.277 0 .554-.111.757-.331m-.757.331l.757-.331m0 0a1.03 1.03 0 0 0-.063-1.451l.063 1.451z" stroke="#C7AB77"/></g></g><g opacity=".3"><mask id="N" style="mask-type:luminance" maskUnits="userSpaceOnUse" x="589" y="606" width="36" height="38"><path d="M591.84 606.796c-.5.467-1.001.93-1.503 1.393l31.486 34.028a1.023 1.023 0 0 0 1.448.058h.001a1.023 1.023 0 0 0 .056-1.447l-.002-.001-31.486-34.031z" stroke="#fff"/></mask><g mask="url(#N)"><path d="M591.84 606.796c-.5.467-1.001.93-1.503 1.393l31.486 34.028a1.023 1.023 0 0 0 1.448.058h.001a1.023 1.023 0 0 0 .056-1.447l-.002-.001-31.486-34.031z" stroke="#C7AB77"/></g></g><g opacity=".3"><mask id="O" style="mask-type:luminance" maskUnits="userSpaceOnUse" x="570" y="621" width="79" height="98"><path d="M646.294 717.473l-.001-.002-73.715-94.253.056-.044a219.58 219.58 0 0 0 1.56-1.221l73.716 94.256-1.616 1.264zm0 0c.199.257.5.392.808.392m-.808-.392l.808.392m0 0c.223 0 .444-.07.631-.216m-.631.216l.631-.216m0 0a1.03 1.03 0 0 0 .178-1.44l-.178 1.44z" stroke="#fff"/></mask><g mask="url(#O)"><path d="M646.294 717.473l-.001-.002-73.715-94.253.056-.044a219.58 219.58 0 0 0 1.56-1.221l73.716 94.256-1.616 1.264zm0 0c.199.257.5.392.808.392m-.808-.392l.808.392m0 0c.223 0 .444-.07.631-.216m-.631.216l.631-.216m0 0a1.03 1.03 0 0 0 .178-1.44l-.178 1.44z" stroke="#C7AB77"/></g></g><g opacity=".3"><mask id="P" style="mask-type:luminance" maskUnits="userSpaceOnUse" x="552" y="634" width="30" height="43"><path d="M579.057 675.449l.001.002a1.02 1.02 0 0 0 1.418.295c.474-.313.605-.947.295-1.418l-.001-.001-25.42-38.728c-.569.377-1.139.751-1.711 1.124l25.418 38.726z" stroke="#fff"/></mask><g mask="url(#P)"><path d="M579.057 675.449l.001.002a1.02 1.02 0 0 0 1.418.295c.474-.313.605-.947.295-1.418l-.001-.001-25.42-38.728c-.569.377-1.139.751-1.711 1.124l25.418 38.726z" stroke="#C7AB77"/></g></g><g opacity=".3"><mask id="Q" style="mask-type:luminance" maskUnits="userSpaceOnUse" x="532" y="646" width="62" height="109"><path d="M590.776 753.708v.001c.185.341.539.537.904.537a1.025 1.025 0 0 0 .897-1.518v-.001L535.44 647.634c-.599.329-1.198.656-1.798.98l57.134 105.094z" stroke="#fff"/></mask><g mask="url(#Q)"><path d="M590.776 753.708v.001c.185.341.539.537.904.537a1.025 1.025 0 0 0 .897-1.518v-.001L535.44 647.634c-.599.329-1.198.656-1.798.98l57.134 105.094z" stroke="#C7AB77"/></g></g><g opacity=".3"><mask id="R" style="mask-type:luminance" maskUnits="userSpaceOnUse" x="512" y="657" width="22" height="46"><path d="M533.274 700.345h-.001l-18.672-42.372-.606.267a295.596 295.596 0 0 1-1.127.886l18.526 42.043c.163.368.517.593.893.61l.505-.105c.488-.243.703-.827.482-1.329z" stroke="#fff"/></mask><g mask="url(#R)"><path d="M533.274 700.345h-.001l-18.672-42.372-.606.267a295.596 295.596 0 0 1-1.127.886l18.526 42.043c.163.368.517.593.893.61l.505-.105c.488-.243.703-.827.482-1.329z" stroke="#C7AB77"/></g></g><g opacity=".3"><mask id="S" style="mask-type:luminance" maskUnits="userSpaceOnUse" x="490" y="665" width="43" height="117"><path d="M531.979 779.618l-36.892-106.944c-.576.426-1.155.854-1.729 1.276l36.682 106.337v.001c.144.41.522.674.935.69l.407-.069c.51-.197.779-.766.597-1.291zm-39.011-113.085c-.646.225-1.293.447-1.94.667l.946 2.74c.576-.424 1.152-.852 1.727-1.278l-.733-2.129z" stroke="#fff"/></mask><g mask="url(#S)"><path d="M531.979 779.618l-36.892-106.944c-.576.426-1.155.854-1.729 1.276l36.682 106.337v.001c.144.41.522.674.935.69l.407-.069c.51-.197.779-.766.597-1.291zm-39.011-113.085c-.646.225-1.293.447-1.94.667l.946 2.74c.576-.424 1.152-.852 1.727-1.278l-.733-2.129z" stroke="#C7AB77"/></g></g><g opacity=".3"><mask id="T" style="mask-type:luminance" maskUnits="userSpaceOnUse" x="467" y="671" width="16" height="49"><path d="M482.129 718.167v-.001l-7.802-30.642-1.801 1.241 7.613 29.904v.001c.119.457.522.761.968.773l.31-.037c.532-.154.85-.705.712-1.239zm-13.798-45.877l3.13 12.294 1.802-1.246-2.564-10.073-.225.058-.486.127-.124-.487-.255-.995c-.426.109-.851.216-1.278.322z" stroke="#fff"/></mask><g mask="url(#T)"><path d="M482.129 718.167v-.001l-7.802-30.642-1.801 1.241 7.613 29.904v.001c.119.457.522.761.968.773l.31-.037c.532-.154.85-.705.712-1.239zm-13.798-45.877l3.13 12.294 1.802-1.246-2.564-10.073-.225.058-.486.127-.124-.487-.255-.995c-.426.109-.851.216-1.278.322z" stroke="#C7AB77"/></g></g><g opacity=".3"><mask id="U" style="mask-type:luminance" maskUnits="userSpaceOnUse" x="445" y="677" width="24" height="121"><path d="M452.023 702.354c-.626.4-1.253.799-1.879 1.196l15.611 92.93c.083.495.507.846.993.855l.209-.017c.548-.101.915-.625.821-1.175v-.001l-15.755-93.788zm-4.07-24.239c-.674.114-1.348.227-2.023.337l3.487 20.763c.625-.399 1.255-.802 1.878-1.203l-3.342-19.897z" stroke="#fff"/></mask><g mask="url(#U)"><path d="M452.023 702.354c-.626.4-1.253.799-1.879 1.196l15.611 92.93c.083.495.507.846.993.855l.209-.017c.548-.101.915-.625.821-1.175v-.001l-15.755-93.788zm-4.07-24.239c-.674.114-1.348.227-2.023.337l3.487 20.763c.625-.399 1.255-.802 1.878-1.203l-3.342-19.897z" stroke="#C7AB77"/></g></g><g opacity=".3"><mask id="V" style="mask-type:luminance" maskUnits="userSpaceOnUse" x="422" y="679" width="8" height="50"><path d="M427.896 717.117c-.654.383-1.309.765-1.963 1.145l.772 9.215c.044.531.488.934 1.01.938l.107-.004c.559-.053.973-.546.926-1.108l-.852-10.186zm-3.146-37.553c-.679.059-1.363.115-2.044.17l2.853 34.06 1.963-1.151-2.772-33.079z" stroke="#fff"/></mask><g mask="url(#V)"><path d="M427.896 717.117c-.654.383-1.309.765-1.963 1.145l.772 9.215c.044.531.488.934 1.01.938l.107-.004c.559-.053.973-.546.926-1.108l-.852-10.186zm-3.146-37.553c-.679.059-1.363.115-2.044.17l2.853 34.06 1.963-1.151-2.772-33.079z" stroke="#C7AB77"/></g></g><g opacity=".3"><mask id="W" style="mask-type:luminance" maskUnits="userSpaceOnUse" x="399" y="681" width="4" height="123"><path d="M399.677 801.845c0 .565.458 1.022 1.025 1.022h.003c.564 0 1.022-.458 1.022-1.025l-.045-70.162c-.684.36-1.365.717-2.051 1.075l.046 69.09zm.453-119.685h-.532l.03 46.026a675.49 675.49 0 0 0 2.05-1.083l-.03-44.947c-.498.003-.994.004-1.491.004h-.027z" stroke="#fff"/></mask><g mask="url(#W)"><path d="M399.677 801.845c0 .565.458 1.022 1.025 1.022h.003c.564 0 1.022-.458 1.022-1.025l-.045-70.162c-.684.36-1.365.717-2.051 1.075l.046 69.09zm.453-119.685h-.532l.03 46.026a675.49 675.49 0 0 0 2.05-1.083l-.03-44.947c-.498.003-.994.004-1.491.004h-.027z" stroke="#C7AB77"/></g></g><g opacity=".3"><mask id="X" style="mask-type:luminance" maskUnits="userSpaceOnUse" x="372" y="680" width="7" height="49"><path d="M374.582 727.512v-.001l3.807-46.194c-.682-.053-1.364-.108-2.045-.165l-3.805 46.19a1.023 1.023 0 0 0 .93 1.105l.103.005a1.022 1.022 0 0 0 1.01-.94z" stroke="#fff"/></mask><g mask="url(#X)"><path d="M374.582 727.512v-.001l3.807-46.194c-.682-.053-1.364-.108-2.045-.165l-3.805 46.19a1.023 1.023 0 0 0 .93 1.105l.103.005a1.022 1.022 0 0 0 1.01-.94z" stroke="#C7AB77"/></g></g><g opacity=".3"><mask id="Y" style="mask-type:luminance" maskUnits="userSpaceOnUse" x="333" y="677" width="23" height="121"><path d="M333.62 796.231a1.03 1.03 0 0 0 .822 1.177l.205.014c.488-.007.912-.36.995-.857l6.225-37.359c-.741.29-1.484.581-2.225.869l-6.022 36.156zm9.024-41.689l12.66-75.987c-.674-.109-1.348-.221-2.022-.335l-12.864 77.204c.742-.293 1.486-.587 2.226-.882z" stroke="#fff"/></mask><g mask="url(#Y)"><path d="M333.62 796.231a1.03 1.03 0 0 0 .822 1.177l.205.014c.488-.007.912-.36.995-.857l6.225-37.359c-.741.29-1.484.581-2.225.869l-6.022 36.156zm9.024-41.689l12.66-75.987c-.674-.109-1.348-.221-2.022-.335l-12.864 77.204c.742-.293 1.486-.587 2.226-.882z" stroke="#C7AB77"/></g></g><g opacity=".3"><mask id="Z" style="mask-type:luminance" maskUnits="userSpaceOnUse" x="318" y="672" width="16" height="49"><path d="M319.145 718.276a1.024 1.024 0 0 0 .718 1.236l.306.039c.447-.012.849-.319.965-.774v-.001l11.369-44.902c-.663-.166-1.326-.333-1.989-.504l-11.369 44.906z" stroke="#fff"/></mask><g mask="url(#Z)"><path d="M319.145 718.276a1.024 1.024 0 0 0 .718 1.236l.306.039c.447-.012.849-.319.965-.774v-.001l11.369-44.902c-.663-.166-1.326-.333-1.989-.504l-11.369 44.906z" stroke="#C7AB77"/></g></g><g opacity=".3"><mask id="aa" style="mask-type:luminance" maskUnits="userSpaceOnUse" x="269" y="664" width="43" height="118"><path d="M308.259 666.647L270.263 777.26c.784-.178 1.569-.357 2.354-.539l38.077-110.85-.726-.248-.336.972-.164.473-.473-.165-.605-.211-.131-.045z" stroke="#fff"/></mask><g mask="url(#aa)"><path d="M308.259 666.647L270.263 777.26c.784-.178 1.569-.357 2.354-.539l38.077-110.85-.726-.248-.336.972-.164.473-.473-.165-.605-.211-.131-.045z" stroke="#C7AB77"/></g></g><g opacity=".3"><mask id="ab" style="mask-type:luminance" maskUnits="userSpaceOnUse" x="208" y="647" width="61" height="108"><path d="M209.172 754.372l.005.003a1.023 1.023 0 0 0 1.385-.413l57.023-105.22a222.33 222.33 0 0 1-1.802-.978L208.76 752.982h-.001c-.27.5-.086 1.12.413 1.39z" stroke="#fff"/></mask><g mask="url(#ab)"><path d="M209.172 754.372l.005.003a1.023 1.023 0 0 0 1.385-.413l57.023-105.22a222.33 222.33 0 0 1-1.802-.978L208.76 752.982h-.001c-.27.5-.086 1.12.413 1.39z" stroke="#C7AB77"/></g></g><g opacity=".3"><mask id="ac" style="mask-type:luminance" maskUnits="userSpaceOnUse" x="219" y="635" width="30" height="42"><path d="M220.445 674.564a1.022 1.022 0 0 0 .856 1.585c.337 0 .663-.164.858-.462l25.409-38.821c-.574-.372-1.145-.747-1.715-1.123l-25.408 38.821z" stroke="#fff"/></mask><g mask="url(#ac)"><path d="M220.445 674.564a1.022 1.022 0 0 0 .856 1.585c.337 0 .663-.164.858-.462l25.409-38.821c-.574-.372-1.145-.747-1.715-1.123l-25.408 38.821z" stroke="#C7AB77"/></g></g><g opacity=".3"><mask id="ad" style="mask-type:luminance" maskUnits="userSpaceOnUse" x="152" y="620" width="78" height="99"><path d="M153.558 717.973l.003.002a1.02 1.02 0 0 0 1.436-.176l73.626-94.394c-.541-.419-1.08-.84-1.618-1.262l-73.623 94.393a1.02 1.02 0 0 0 .176 1.437z" stroke="#fff"/></mask><g mask="url(#ad)"><path d="M153.558 717.973l.003.002a1.02 1.02 0 0 0 1.436-.176l73.626-94.394c-.541-.419-1.08-.84-1.618-1.262l-73.623 94.393a1.02 1.02 0 0 0 .176 1.437z" stroke="#C7AB77"/></g></g><g opacity=".3"><mask id="ae" style="mask-type:luminance" maskUnits="userSpaceOnUse" x="177" y="606" width="35" height="38"><path d="M179.349 642.513l.001-.001 31.476-34.107c-.504-.462-1.007-.926-1.506-1.392l-31.476 34.106-.001.001a1.03 1.03 0 0 0 .058 1.451 1.023 1.023 0 0 0 1.448-.058z" stroke="#fff"/></mask><g mask="url(#ae)"><path d="M179.349 642.513l.001-.001 31.476-34.107c-.504-.462-1.007-.926-1.506-1.392l-31.476 34.106-.001.001a1.03 1.03 0 0 0 .058 1.451 1.023 1.023 0 0 0 1.448-.058z" stroke="#C7AB77"/></g></g><g opacity=".3"><mask id="af" style="mask-type:luminance" maskUnits="userSpaceOnUse" x="103" y="589" width="93" height="85"><path d="M104.713 672.898l.002.002c.199.22.477.332.756.332.244 0 .493-.09.694-.271l.001-.001 88.182-80.945c-.464-.503-.927-1.007-1.388-1.511l-88.183 80.946a1.023 1.023 0 0 0-.064 1.448z" stroke="#fff"/></mask><g mask="url(#af)"><path d="M104.713 672.898l.002.002c.199.22.477.332.756.332.244 0 .493-.09.694-.271l.001-.001 88.182-80.945c-.464-.503-.927-1.007-1.388-1.511l-88.183 80.946a1.023 1.023 0 0 0-.064 1.448z" stroke="#C7AB77"/></g></g><g opacity=".3"><mask id="ag" style="mask-type:luminance" maskUnits="userSpaceOnUse" x="140" y="571" width="40" height="33"><path d="M179.257 574.296c-.422-.538-.842-1.078-1.259-1.619l-36.651 28.432-.002.001a1.02 1.02 0 0 0-.181 1.434l38.093-28.248zm0 0l-36.652 28.43a1.021 1.021 0 0 1-1.441-.182l38.093-28.248z" stroke="#fff"/></mask><g mask="url(#ag)"><path d="M179.257 574.296c-.422-.538-.842-1.078-1.259-1.619l-36.651 28.432-.002.001a1.02 1.02 0 0 0-.181 1.434l38.093-28.248zm0 0l-36.652 28.43a1.021 1.021 0 0 1-1.441-.182l38.093-28.248z" stroke="#C7AB77"/></g></g><g opacity=".3"><mask id="ah" style="mask-type:luminance" maskUnits="userSpaceOnUse" x="63" y="553" width="104" height="69"><path d="M63.977 620.382c.196.301.525.467.861.467a.991.991 0 0 0 .552-.165l.004-.003L165.7 555.414a295.69 295.69 0 0 1-1.12-1.716L64.276 618.963v.001a1.024 1.024 0 0 0-.299 1.418z" stroke="#fff"/></mask><g mask="url(#ah)"><path d="M63.977 620.382c.196.301.525.467.861.467a.991.991 0 0 0 .552-.165l.004-.003L165.7 555.414a295.69 295.69 0 0 1-1.12-1.716L64.276 618.963v.001a1.024 1.024 0 0 0-.299 1.418z" stroke="#C7AB77"/></g></g><g opacity=".3"><mask id="ai" style="mask-type:luminance" maskUnits="userSpaceOnUse" x="110" y="532" width="46" height="27"><path d="M112.923 557.424l40.812-21.978-.346-.638-.236-.44.439-.237.899-.487-.388-.724-42.154 22.7a1.026 1.026 0 1 0 .972 1.805l.002-.001z" stroke="#fff"/></mask><g mask="url(#ai)"><path d="M112.923 557.424l40.812-21.978-.346-.638-.236-.44.439-.237.899-.487-.388-.724-42.154 22.7a1.026 1.026 0 1 0 .972 1.805l.002-.001z" stroke="#C7AB77"/></g></g><g opacity=".3"><mask id="aj" style="mask-type:luminance" maskUnits="userSpaceOnUse" x="31" y="512" width="114" height="51"><path d="M143.493 514.578a355 355 0 0 1-.819-1.88l-109.68 47.815a1.03 1.03 0 0 0-.53 1.352c.16.367.513.594.895.611l.503-.103 109.631-47.795z" stroke="#fff"/></mask><g mask="url(#aj)"><path d="M143.493 514.578a355 355 0 0 1-.819-1.88l-109.68 47.815a1.03 1.03 0 0 0-.53 1.352c.16.367.513.594.895.611l.503-.103 109.631-47.795z" stroke="#C7AB77"/></g></g><g opacity=".3"><mask id="ak" style="mask-type:luminance" maskUnits="userSpaceOnUse" x="89" y="489" width="49" height="20"><path d="M89.82 507.206l.001.001c.14.412.517.678.932.693l.406-.068 45.291-15.421c-.222-.646-.442-1.294-.659-1.942l-45.33 15.437a1.024 1.024 0 0 0-.64 1.3z" stroke="#fff"/></mask><g mask="url(#ak)"><path d="M89.82 507.206l.001.001c.14.412.517.678.932.693l.406-.068 45.291-15.421c-.222-.646-.442-1.294-.659-1.942l-45.33 15.437a1.024 1.024 0 0 0-.64 1.3z" stroke="#C7AB77"/></g></g><g opacity=".3"><mask id="al" style="mask-type:luminance" maskUnits="userSpaceOnUse" x="10" y="468" width="119" height="33"><path d="M31.019 492.885L11.782 497.7v.001a1.024 1.024 0 0 0-.747 1.243v.002c.113.454.517.763.966.776l.307-.038 17.987-4.505c.24-.765.48-1.529.724-2.294zm4.74-1.188a331.83 331.83 0 0 0-.74 2.301l93.355-23.375c-.167-.663-.332-1.326-.495-1.99l-92.12 23.064z" stroke="#fff"/></mask><g mask="url(#al)"><path d="M31.019 492.885L11.782 497.7v.001a1.024 1.024 0 0 0-.747 1.243v.002c.113.454.517.763.966.776l.307-.038 17.987-4.505c.24-.765.48-1.529.724-2.294zm4.74-1.188a331.83 331.83 0 0 0-.74 2.301l93.355-23.375c-.167-.663-.332-1.326-.495-1.99l-92.12 23.064z" stroke="#C7AB77"/></g></g><g opacity=".3"><mask id="am" style="mask-type:luminance" maskUnits="userSpaceOnUse" x="76" y="445" width="49" height="11"><path d="M76.629 454.502c.084.498.509.852.992.861l.204-.017 45.788-7.505c-.112-.674-.222-1.348-.33-2.023l-45.807 7.506c-.56.094-.938.62-.847 1.178z" stroke="#fff"/></mask><g mask="url(#am)"><path d="M76.629 454.502c.084.498.509.852.992.861l.204-.017 45.788-7.505c-.112-.674-.222-1.348-.33-2.023l-45.807 7.506c-.56.094-.938.62-.847 1.178z" stroke="#C7AB77"/></g></g><g opacity=".3"><mask id="an" style="mask-type:luminance" maskUnits="userSpaceOnUse" x="-1" y="422" width="123" height="13"><path d="M56.539 427.842l-55.311 4.409a1.026 1.026 0 0 0 .07 2.047l.103-.004 54.15-4.319c.326-.711.656-1.423.988-2.133zm64.069-4.641l-.035-.465-59.226 4.723a567.1 567.1 0 0 0-.999 2.133l60.387-4.813c-.043-.516-.084-1.032-.124-1.546v-.001l-.003-.031z" stroke="#fff"/></mask><g mask="url(#an)"><path d="M56.539 427.842l-55.311 4.409a1.026 1.026 0 0 0 .07 2.047l.103-.004 54.15-4.319c.326-.711.656-1.423.988-2.133zm64.069-4.641l-.035-.465-59.226 4.723a567.1 567.1 0 0 0-.999 2.133l60.387-4.813c-.043-.516-.084-1.032-.124-1.546v-.001l-.003-.031z" stroke="#C7AB77"/></g></g><g opacity=".3"><mask id="ao" style="mask-type:luminance" maskUnits="userSpaceOnUse" x="73" y="398" width="48" height="5"><path d="M75.46 399.331c-.364.684-.724 1.364-1.084 2.047l45.376.152v-.374c0-.56.001-1.119.005-1.679l-44.296-.146z" stroke="#fff"/></mask><g mask="url(#ao)"><path d="M75.46 399.331c-.364.684-.724 1.364-1.084 2.047l45.376.152v-.374c0-.56.001-1.119.005-1.679l-44.296-.146z" stroke="#C7AB77"/></g></g><g opacity=".3"><mask id="ap" style="mask-type:luminance" maskUnits="userSpaceOnUse" x="0" y="365" width="123" height="14"><path d="M120.855 376.26l-30.947-2.673c-.385.652-.769 1.304-1.15 1.956l31.921 2.759.007-.078c.055-.655.112-1.311.169-1.964zM1.441 367.998l82.699 7.146c.38-.653.76-1.305 1.144-1.957l-83.662-7.232-.088-.004a1.04 1.04 0 0 0-1.024.938 1.023 1.023 0 0 0 .93 1.109z" stroke="#fff"/></mask><g mask="url(#ap)"><path d="M120.855 376.26l-30.947-2.673c-.385.652-.769 1.304-1.15 1.956l31.921 2.759.007-.078c.055-.655.112-1.311.169-1.964zM1.441 367.998l82.699 7.146c.38-.653.76-1.305 1.144-1.957l-83.662-7.232-.088-.004a1.04 1.04 0 0 0-1.024.938 1.023 1.023 0 0 0 .93 1.109z" stroke="#C7AB77"/></g></g><g opacity=".3"><mask id="aq" style="mask-type:luminance" maskUnits="userSpaceOnUse" x="76" y="344" width="49" height="12"><path d="M100.053 349.117l-21.886-3.736-.005-.001a1.034 1.034 0 0 0-1.178.838c-.095.56.28 1.089.839 1.184l21.032 3.59c.398-.624.796-1.25 1.198-1.875zm4.467.762c-.4.622-.802 1.251-1.201 1.874l20.216 3.453c.113-.674.228-1.348.344-2.021l-19.359-3.306z" stroke="#fff"/></mask><g mask="url(#aq)"><path d="M100.053 349.117l-21.886-3.736-.005-.001a1.034 1.034 0 0 0-1.178.838c-.095.56.28 1.089.839 1.184l21.032 3.59c.398-.624.796-1.25 1.198-1.875zm4.467.762c-.4.622-.802 1.251-1.201 1.874l20.216 3.453c.113-.674.228-1.348.344-2.021l-19.359-3.306z" stroke="#C7AB77"/></g></g><g opacity=".3"><mask id="ar" style="mask-type:luminance" maskUnits="userSpaceOnUse" x="11" y="300" width="119" height="34"><path d="M12.43 302.619h.001l101.207 26.055c.392-.569.785-1.139 1.179-1.708l.061-.089-101.935-26.242a1.085 1.085 0 0 0-.265-.036c-.452 0-.866.308-.985.771-.141.55.188 1.108.738 1.249zm106.732 25.36l-1.244 1.798 10.383 2.674c.168-.663.339-1.326.511-1.987l-9.65-2.485z" stroke="#fff"/></mask><g mask="url(#ar)"><path d="M12.43 302.619h.001l101.207 26.055c.392-.569.785-1.139 1.179-1.708l.061-.089-101.935-26.242a1.085 1.085 0 0 0-.265-.036c-.452 0-.866.308-.985.771-.141.55.188 1.108.738 1.249zm106.732 25.36l-1.244 1.798 10.383 2.674c.168-.663.339-1.326.511-1.987l-9.65-2.485z" stroke="#C7AB77"/></g></g><g opacity=".3"><mask id="as" style="mask-type:luminance" maskUnits="userSpaceOnUse" x="89" y="292" width="48" height="19"><path d="M129.731 306.159l-37.897-13.185-.003-.001a1.025 1.025 0 0 0-1.303.631v.001c-.186.535.096 1.12.633 1.305v.001l37.292 12.975 1.278-1.727zm4.083 1.421a957.59 957.59 0 0 0-1.28 1.725l2.423.843c.222-.644.446-1.29.674-1.935l-1.817-.633z" stroke="#fff"/></mask><g mask="url(#as)"><path d="M129.731 306.159l-37.897-13.185-.003-.001a1.025 1.025 0 0 0-1.303.631v.001c-.186.535.096 1.12.633 1.305v.001l37.292 12.975 1.278-1.727zm4.083 1.421a957.59 957.59 0 0 0-1.28 1.725l2.423.843c.222-.644.446-1.29.674-1.935l-1.817-.633z" stroke="#C7AB77"/></g></g><g opacity=".3"><mask id="at" style="mask-type:luminance" maskUnits="userSpaceOnUse" x="32" y="237" width="113" height="53"><path d="M34.057 239.95a1.03 1.03 0 0 1-.522-1.354 1.028 1.028 0 0 1 1.354-.521l-.832 1.875zm0 0l109.216 48.477.453-.576c.181-.41.362-.818.545-1.225L34.889 238.075l-.832 1.875z" stroke="#fff"/></mask><g mask="url(#at)"><path d="M34.057 239.95a1.03 1.03 0 0 1-.522-1.354 1.028 1.028 0 0 1 1.354-.521l-.832 1.875zm0 0l109.216 48.477.453-.576c.181-.41.362-.818.545-1.225L34.889 238.075l-.832 1.875z" stroke="#C7AB77"/></g></g><g opacity=".3"><mask id="au" style="mask-type:luminance" maskUnits="userSpaceOnUse" x="111" y="242" width="45" height="27"><path d="M113.963 243.54a1.032 1.032 0 0 0-1.394.408 1.032 1.032 0 0 0 .411 1.392l40.712 22.274c.326-.601.655-1.201.987-1.8l-40.716-22.274z" stroke="#fff"/></mask><g mask="url(#au)"><path d="M113.963 243.54a1.032 1.032 0 0 0-1.394.408 1.032 1.032 0 0 0 .411 1.392l40.712 22.274c.326-.601.655-1.201.987-1.8l-40.716-22.274z" stroke="#C7AB77"/></g></g><g opacity=".3"><mask id="av" style="mask-type:luminance" maskUnits="userSpaceOnUse" x="64" y="179" width="104" height="70"><path d="M65.728 181.708l99.904 65.956c.375-.571.751-1.141 1.13-1.709l-99.904-65.957v-.001a1.026 1.026 0 0 0-1.422.292c-.31.475-.18 1.108.292 1.419z" stroke="#fff"/></mask><g mask="url(#av)"><path d="M65.728 181.708l99.904 65.956c.375-.571.751-1.141 1.13-1.709l-99.904-65.957v-.001a1.026 1.026 0 0 0-1.422.292c-.31.475-.18 1.108.292 1.419z" stroke="#C7AB77"/></g></g><g opacity=".3"><mask id="aw" style="mask-type:luminance" maskUnits="userSpaceOnUse" x="141" y="197" width="42" height="33"><path d="M180.609 227.749l.805.635.236-.297-37.705-29.65-.003-.002a1 1 0 0 0-.63-.218 1.02 1.02 0 0 0-.807.392v.001a1.023 1.023 0 0 0 .173 1.439l36.505 28.706.008-.01c.237-.304.476-.609.716-.913l.309-.392.393.309z" stroke="#fff"/></mask><g mask="url(#aw)"><path d="M180.609 227.749l.805.635.236-.297-37.705-29.65-.003-.002a1 1 0 0 0-.63-.218 1.02 1.02 0 0 0-.807.392v.001a1.023 1.023 0 0 0 .173 1.439l36.505 28.706.008-.01c.237-.304.476-.609.716-.913l.309-.392.393.309z" stroke="#C7AB77"/></g></g><g opacity=".3"><mask id="ax" style="mask-type:luminance" maskUnits="userSpaceOnUse" x="105" y="127" width="92" height="85"><path d="M106.524 128.043a1.027 1.027 0 0 0 .053 1.45l87.661 81.544c.465-.502.93-1.003 1.397-1.502l-87.662-81.547a1.025 1.025 0 0 0-1.449.055z" stroke="#fff"/></mask><g mask="url(#ax)"><path d="M106.524 128.043a1.027 1.027 0 0 0 .053 1.45l87.661 81.544c.465-.502.93-1.003 1.397-1.502l-87.662-81.547a1.025 1.025 0 0 0-1.449.055z" stroke="#C7AB77"/></g></g><path opacity=".3" d="M378.879 124.129C225.713 136.048 111.213 269.874 123.134 423.04c11.918 153.162 145.742 267.663 298.908 255.744 153.162-11.921 267.663-145.747 255.744-298.91-11.921-153.163-145.745-267.663-298.907-255.745z" stroke="#C7AB77"/><g opacity=".3"><mask id="az" style="mask-type:luminance" maskUnits="userSpaceOnUse" x="187" y="188" width="430" height="430"><mask id="ay" fill="#fff"><path d="M400.458 617.705c-59.621 0-113.683-24.254-152.84-63.41 39.157 39.156 93.217 63.41 152.84 63.41 119.238 0 216.246-97.011 216.246-216.25 0-59.62-24.251-113.682-63.407-152.839 39.156 39.157 63.41 93.219 63.41 152.839 0 119.241-97.009 216.25-216.249 216.25zm-109.092-33.128c-62.305-37.258-104.11-105.399-104.11-183.122 0-117.559 95.64-213.199 213.202-213.199 58.548 0 111.661 23.724 150.229 62.064-38.568-38.34-91.679-62.064-150.229-62.064-117.56 0-213.2 95.64-213.2 213.199 0 77.723 41.803 145.864 104.108 183.122z"/></mask><path d="M551.293 251.624a.68.68 0 0 1-.032-.026l-.02-.018-.019-.019.002.002a.17.17 0 0 0 .012.011l.023.019.6-.8.032.025.02.018.019.019a142112513.948 142112513.948 0 0 0-.014-.012.178.178 0 0 0-.023-.019l-.6.8zm-.507-.5c-.026-.026-.091-.089-.138-.139l.728-.685c.035.037.061.061.117.117l-.707.707zm-.225-.225l-.155-.153.689-.724c.059.056.122.119.173.17l-.707.707zM400.458 618.705c-59.897 0-114.211-24.367-153.547-63.703l1.414-1.414c38.978 38.977 92.789 63.117 152.133 63.117v2zm-152.133-65.117c38.978 38.977 92.786 63.117 152.133 63.117v2c-59.9 0-114.211-24.367-153.547-63.703l1.414-1.414zm152.133 63.117c118.685 0 215.246-96.564 215.246-215.25h2c0 119.791-97.456 217.25-217.246 217.25v-2zm215.246-215.25c0-59.343-24.137-113.154-63.114-152.132l1.414-1.414c39.336 39.336 63.7 93.649 63.7 153.546h-2zm-61.7-153.546c39.336 39.336 63.703 93.649 63.703 153.546h-2c0-59.343-24.14-113.154-63.117-152.132l1.414-1.414zm63.703 153.546c0 119.793-97.456 217.25-217.249 217.25v-2c118.688 0 215.249-96.561 215.249-215.25h2zm-326.855 183.98c-62.593-37.43-104.596-105.89-104.596-183.98h2c0 77.355 41.607 145.178 103.623 182.264l-1.027 1.716zm-104.596-183.98c0-118.111 96.087-214.199 214.202-214.199v2c-117.01 0-212.202 95.192-212.202 212.199h-2zm214.202-214.199c58.823 0 112.187 23.837 150.934 62.355l-1.41 1.419c-38.389-38.163-91.252-61.774-149.524-61.774v-2zm149.524 63.774c-38.389-38.163-91.249-61.774-149.524-61.774v-2c58.826 0 112.187 23.837 150.934 62.355l-1.41 1.419zm-149.524-61.774c-117.008 0-212.2 95.192-212.2 212.199h-2c0-118.111 96.088-214.199 214.2-214.199v2zm-212.2 212.199c0 77.355 41.605 145.178 103.621 182.264l-1.027 1.716c-62.593-37.43-104.594-105.89-104.594-183.98h2z" fill="#fff" mask="url(#ay)"/></mask><g mask="url(#az)"><mask id="aA" fill="#fff"><path d="M400.458 617.705c-59.621 0-113.683-24.254-152.84-63.41 39.157 39.156 93.217 63.41 152.84 63.41 119.238 0 216.246-97.011 216.246-216.25 0-59.62-24.251-113.682-63.407-152.839 39.156 39.157 63.41 93.219 63.41 152.839 0 119.241-97.009 216.25-216.249 216.25zm-109.092-33.128c-62.305-37.258-104.11-105.399-104.11-183.122 0-117.559 95.64-213.199 213.202-213.199 58.548 0 111.661 23.724 150.229 62.064-38.568-38.34-91.679-62.064-150.229-62.064-117.56 0-213.2 95.64-213.2 213.199 0 77.723 41.803 145.864 104.108 183.122z"/></mask><path d="M551.293 251.624a.68.68 0 0 1-.032-.026l-.02-.018-.019-.019.002.002a.17.17 0 0 0 .012.011l.023.019.6-.8.032.025.02.018.019.019a142112513.948 142112513.948 0 0 0-.014-.012.178.178 0 0 0-.023-.019l-.6.8zm-.507-.5c-.026-.026-.091-.089-.138-.139l.728-.685c.035.037.061.061.117.117l-.707.707zm-.225-.225l-.155-.153.689-.724c.059.056.122.119.173.17l-.707.707zM400.458 618.705c-59.897 0-114.211-24.367-153.547-63.703l1.414-1.414c38.978 38.977 92.789 63.117 152.133 63.117v2zm-152.133-65.117c38.978 38.977 92.786 63.117 152.133 63.117v2c-59.9 0-114.211-24.367-153.547-63.703l1.414-1.414zm152.133 63.117c118.685 0 215.246-96.564 215.246-215.25h2c0 119.791-97.456 217.25-217.246 217.25v-2zm215.246-215.25c0-59.343-24.137-113.154-63.114-152.132l1.414-1.414c39.336 39.336 63.7 93.649 63.7 153.546h-2zm-61.7-153.546c39.336 39.336 63.703 93.649 63.703 153.546h-2c0-59.343-24.14-113.154-63.117-152.132l1.414-1.414zm63.703 153.546c0 119.793-97.456 217.25-217.249 217.25v-2c118.688 0 215.249-96.561 215.249-215.25h2zm-326.855 183.98c-62.593-37.43-104.596-105.89-104.596-183.98h2c0 77.355 41.607 145.178 103.623 182.264l-1.027 1.716zm-104.596-183.98c0-118.111 96.087-214.199 214.202-214.199v2c-117.01 0-212.202 95.192-212.202 212.199h-2zm214.202-214.199c58.823 0 112.187 23.837 150.934 62.355l-1.41 1.419c-38.389-38.163-91.252-61.774-149.524-61.774v-2zm149.524 63.774c-38.389-38.163-91.249-61.774-149.524-61.774v-2c58.826 0 112.187 23.837 150.934 62.355l-1.41 1.419zm-149.524-61.774c-117.008 0-212.2 95.192-212.2 212.199h-2c0-118.111 96.088-214.199 214.2-214.199v2zm-212.2 212.199c0 77.355 41.605 145.178 103.621 182.264l-1.027 1.716c-62.593-37.43-104.594-105.89-104.594-183.98h2z" fill="#C7AB77" mask="url(#aA)"/></g></g><g opacity=".3"><mask id="aB" style="mask-type:luminance" maskUnits="userSpaceOnUse" x="139" y="140" width="523" height="523"><path d="M582.881 220.059l.003.002.006.004.026.027.269.272.021.021.253.256c45.963 46.513 74.378 110.408 74.378 180.814 0 141.922-115.456 257.381-257.378 257.381-48.093 0-93.147-13.259-131.7-36.311l.256-.429-.256.429c-75.215-44.978-125.684-127.24-125.684-221.07 0-141.922 115.459-257.381 257.384-257.381 70.678 0 134.795 28.638 181.354 74.918l.016.015.038.038.028.029c.068.065.141.138.201.198h.001v.001h.001v.001h.001v.001l.001.001h.001v.001h.001v.001h.001v.001l.001.001h.001v.001h.001v.001l.001.001h.001v.001h.001v.001l.001.001h.001v.001h.001v.001l.001.001h.001v.001h.001v.001l.001.001h.001v.001h.001v.001l.001.001h.001v.001h.001v.001h.001v.001h.001v.001h.001v.001h.001v.001h.001v.001l.001.001h.001v.001h.001v.001h.001v.001h.001v.001l.001.001h.001v.001h.001v.001h.001v.001h.001v.001h.001v.001h.001v.001l.001.001h.001v.001h.001v.001h.001v.001h.001v.001l.001.001h.001v.001h.001v.001h.001v.001h.001v.001h.001v.001h.001v.001l.001.001h.001v.001h.001v.001h.001v.001h.001v.001h.001v.001h.001v.001l.001.001h.001v.001h.001v.001h.001v.001h.001v.001l.001.001h.001v.001l.001.001h.001v.001h.001v.001h.001v.001h.001v.001h.001v.001h.001v.001l.001.001h.001v.001h.001v.001h.001v.001h.001v.001l.001.001h.001v.001h.001v.001h.001v.001h.001v.001l.001.001h.001v.001h.001v.001l.001.001h.001v.001l.001.001h.001v.001h.001v.001l.001.001h.001v.001h.001v.001h.001v.001h.001v.001h.001v.001h.001v.001h.001v.001h.001v.001h.001v.001h.001v.001h.001v.001l.001.001h.001v.001h.001v.001l.001.001h.001v.001h.001v.001l.001.001h.001v.001h.001v.001h.001v.001l.001.001h.001v.001l.006.006.005.005.08.081.063.062c.168.168.328.328.494.497l.012.01.008.009zM216.658 585.256c47.09 47.09 112.1 76.255 183.801 76.255 143.392 0 260.053-116.663 260.053-260.056 0-71.697-29.163-136.711-76.253-183.801-47.089-47.089-112.103-76.252-183.8-76.252-143.396 0-260.057 116.658-260.057 260.053 0 71.698 29.163 136.711 76.256 183.801z" stroke="#fff"/></mask><g mask="url(#aB)"><path stroke="#C7AB77" d="M139.334 140.295H661.617V662.578H139.334z"/></g></g><path d="M746.596 72.485l29.011-6.093-29.011-6.09 9.368-14.353-14.353 9.371-6.09-29.013-6.093 29.013-14.353-9.37 9.371 14.352-29.01 6.09 29.01 6.093-9.371 14.353 14.353-9.37 6.093 29.01 6.09-29.01 14.353 9.37-9.368-14.353z" fill="#743944"/><path d="M746.178 72.759l-.4-.613.715-.15 26.681-5.603-26.68-5.601-.716-.15.4-.613 8.067-12.36-12.36 8.07-.613.4-.15-.716-5.601-26.683-5.603 26.683-.151.715-.612-.4-12.36-8.069 1.672 2.562 6.398 9.798.4.612-.716.15-26.68 5.602.571.12 7.253 1.523 18.856 3.96.716.15-.4.613-8.069 12.359 2.56-1.672 9.799-6.397.612-.4.151.716 5.603 26.68.12-.571 1.522-7.253 3.959-18.856.15-.716.613.4 12.36 8.07-8.067-12.36z" stroke="#C7AB77" stroke-opacity=".3"/><path d="M3.973 625.044c0-5.635 4.567-10.203 10.205-10.203 5.634 0 10.202 4.568 10.202 10.203 0 5.634-4.568 10.205-10.202 10.205-5.638 0-10.205-4.571-10.205-10.205z" fill="#743944"/><path d="M14.178 615.341c-5.362 0-9.705 4.344-9.705 9.703 0 5.358 4.344 9.705 9.705 9.705 5.358 0 9.702-4.347 9.702-9.705 0-5.359-4.344-9.703-9.702-9.703z" stroke="#C7AB77" stroke-opacity=".3"/><mask id="aC" fill="#fff"><path d="M600.832 473.334c5.516-1.002 3.225-9.39-2.248-8.396L567 470.68c-8.445 1.533-18.286 2.105-26.186 5.822a2961.928 2961.928 0 0 0-19.446-11.503c4.273-1.014 8.509-2.502 11.72-3.218 8.237-1.846 21.696-2.158 26.942-9.505.548-.766.13-1.935-.632-2.369-7.73-4.39-20.612 1.216-28.682 3.01-5.577 1.239-15.398 1.554-20.845 5.332-.508-.301-1.018-.598-1.526-.896-13.61-8.003-27.161-16.495-40.794-24.914 3.344-.101 6.789-.381 9.816-1.473 4.126-1.485 3.586-7.596-1.036-7.72-4.683-.128-9.426.857-14.146.88-2.695.015-5.398-.153-8.061.09-10.465-6.346-21.016-12.5-31.691-18.3 12.741.424 25.687-.269 38.151-.211l12.98.061c3.387 3.633 8.852 6.374 12.331 8.864 6.515 4.656 13.676 11.856 21.449 13.967 2.06.561 4.215-1.854 2.899-3.777-4.31-6.303-12.392-10.242-18.557-14.618-1.7-1.207-3.569-2.787-5.54-4.379 2.156.012 4.311.021 6.469.032 9.541.044 18.834 1.439 27.66-2.438 1.269-.557 1.232-2.723-.009-3.284-7.371-3.338-14.151-2.634-22.267-2.683-4.597-.029-9.193-.055-13.792-.084 2.695-2.056 5.231-4.306 7.479-5.9 6.165-4.376 14.247-8.316 18.557-14.618 1.316-1.923-.839-4.338-2.899-3.778-7.773 2.112-14.934 9.312-21.449 13.968-3.915 2.799-10.372 5.904-13.517 10.259-2.138-.014-4.273-.026-6.411-.037-14.486-.087-29.63-1.159-44.454-.676 10.989-5.941 21.846-12.27 32.611-18.8 2.663.246 5.366.078 8.061.089 4.72.026 9.463 1.011 14.146.884 4.622-.124 5.162-6.235 1.036-7.723-3.027-1.089-6.472-1.369-9.816-1.473 13.633-8.419 27.184-16.908 40.794-24.911.508-.301 1.018-.598 1.526-.896 5.447 3.775 15.268 4.093 20.845 5.332 8.07 1.791 20.952 7.397 28.682 3.01.762-.434 1.18-1.603.632-2.369-5.246-7.35-18.705-7.662-26.942-9.505-3.211-.719-7.447-2.207-11.72-3.218a2918.73 2918.73 0 0 0 19.446-11.507c7.9 3.72 17.741 4.292 26.186 5.826l31.584 5.739c5.473.996 7.764-7.391 2.248-8.396l-31.584-5.739c-5.843-1.063-12.109-2.727-18.315-3.533 2.501-1.522 5.008-3.032 7.495-4.575 4.129-2.556 8.624-5.011 13.206-7.503 3.508 1.398 7.96 1.25 11.494 1.594 5.54.534 12.995 2.42 18.096-.243 1.711-.889 1.278-3.015-.009-3.985-4.122-3.111-11.205-2.505-16.165-2.952-.863-.078-1.809-.203-2.773-.33 7.545-4.375 14.726-9.178 20.309-15.042l.655-.658c.493-.523.487-1.196.19-1.699a1.381 1.381 0 0 0-1.563-.684c-.301.069-.598.162-.898.24-7.865 1.906-15.609 5.73-23.168 10.085.373-.901.739-1.782 1.102-2.567 2.092-4.526 6.157-10.366 5.528-15.493-.196-1.6-1.817-3.038-3.444-2.002-4.853 3.094-6.951 10.499-9.256 15.568-1.471 3.238-3.823 7.025-4.368 10.762-4.446 2.727-8.817 5.398-13.093 7.697-2.579 1.387-5.141 2.805-7.706 4.211 2.403-5.782 4.097-12.046 6.099-17.644l10.828-30.252c1.89-5.285-6.512-7.492-8.387-2.25l-10.828 30.252c-2.894 8.09-7.32 16.905-8.053 25.613a3015.833 3015.833 0 0 0-19.677 11.109c1.261-4.212 2.092-8.628 3.076-11.77 2.524-8.064 8.984-19.889 5.251-28.112-.39-.858-1.613-1.077-2.369-.635-7.66 4.508-9.253 18.479-11.734 26.373-1.716 5.453-6.356 14.123-5.811 20.738-.513.288-1.024.583-1.537.872-13.731 7.798-27.851 15.302-41.951 22.91 1.584-2.949 3.064-6.074 3.636-9.246.776-4.321-4.781-6.906-7.199-2.96-2.452 3.994-3.97 8.598-6.31 12.702-1.338 2.346-2.833 4.604-3.952 7.036-10.725 5.895-21.322 11.966-31.677 18.323 6.737-10.833 12.609-22.404 18.89-33.18l6.543-11.224c4.839-1.118 9.942-4.485 13.834-6.259 7.286-3.321 17.095-5.929 22.808-11.611 1.514-1.505.505-4.583-1.818-4.404-7.608.586-15.058 5.623-21.924 8.783-1.893.869-4.195 1.698-6.558 2.614 1.087-1.866 2.175-3.729 3.26-5.595 4.812-8.252 10.664-15.608 11.722-25.197.153-1.381-1.739-2.429-2.844-1.635-6.576 4.722-9.357 10.95-13.457 17.962-2.322 3.972-4.642 7.943-6.965 11.914-.432-3.364-1.11-6.686-1.367-9.433-.701-7.532-.069-16.509-3.367-23.398-1.007-2.102-4.172-1.441-4.72.627-2.057 7.793.591 17.601 1.362 25.579.464 4.791-.078 11.943 2.114 16.847-1.079 1.846-2.158 3.691-3.237 5.54-7.32 12.515-15.816 25.111-22.81 38.203.355-12.5.309-25.076.04-37.672 1.544-2.189 2.75-4.615 4.112-6.946 2.38-4.081 5.603-7.7 7.833-11.822 2.204-4.069-2.813-7.593-6.16-4.76-2.458 2.08-4.423 4.925-6.183 7.773-.467-16.027-1.036-32.02-1.157-47.822-.003-.592-.005-1.181-.011-1.77 5.992-2.836 11.177-11.192 15.034-15.406 5.589-6.1 16.879-14.465 16.945-23.361.009-.878-.793-1.825-1.731-1.735-8.982.875-15.981 12.39-21.694 18.606-2.227 2.426-5.632 5.355-8.644 8.555-.049-7.538-.121-15.077-.23-22.615 7.166-4.988 12.582-13.234 18.133-19.788l20.756-24.513c3.597-4.248-2.513-10.426-6.14-6.146l-20.756 24.513c-3.84 4.534-8.413 9.135-12.213 14.112-.066-2.932-.121-5.86-.21-8.789-.15-4.855-.023-9.982.112-15.198 2.96-2.343 5.061-6.276 7.124-9.17 3.234-4.532 8.592-10.055 8.84-15.808.083-1.927-1.971-2.614-3.454-1.984-4.752 2.016-7.77 8.462-10.637 12.538-.5.707-1.077 1.467-1.671 2.238-.011-8.728-.575-17.356-2.859-25.128-.083-.297-.153-.604-.241-.898-.206-.688-.79-1.02-1.374-1.014-.584-.006-1.168.326-1.374 1.014-.088.294-.158.601-.241.898-2.283 7.772-2.846 16.4-2.86 25.128a69.991 69.991 0 0 1-1.669-2.238c-2.87-4.076-5.887-10.522-10.638-12.538-1.484-.63-3.538.057-3.455 1.984.249 5.753 5.607 11.276 8.841 15.808 2.064 2.894 4.164 6.827 7.125 9.17.135 5.216.26 10.343.112 15.198-.09 2.929-.145 5.857-.211 8.789-3.8-4.977-8.372-9.578-12.212-14.112l-20.758-24.513c-3.626-4.28-9.737 1.898-6.14 6.146l20.758 24.513c5.55 6.554 10.965 14.8 18.132 19.788a2889.94 2889.94 0 0 0-.23 22.615c-3.014-3.2-6.417-6.129-8.644-8.555-5.713-6.216-12.713-17.731-21.695-18.606-.936-.09-1.738.857-1.732 1.735.069 8.896 11.358 17.261 16.945 23.361 3.86 4.214 9.044 12.57 15.036 15.406l-.013 1.77c-.119 15.802-.687 31.795-1.156 47.822-1.761-2.848-3.725-5.693-6.182-7.773-3.348-2.833-8.364.691-6.161 4.76 2.231 4.122 5.455 7.741 7.835 11.822 1.36 2.331 2.566 4.757 4.109 6.946-.259 12.244-.307 24.467.014 36.621-6.004-11.256-13.076-22.13-19.258-32.967l-6.437-11.282c1.45-4.754 1.088-10.863 1.501-15.123.772-7.977 3.418-17.786 1.361-25.581-.545-2.065-3.713-2.727-4.72-.624-3.297 6.888-2.664 15.865-3.366 23.398-.194 2.077-.628 4.485-1.017 6.992l-3.208-5.623c-4.733-8.298-8.172-17.05-15.939-22.763-1.116-.823-2.97.295-2.836 1.65.797 8.061 4.796 13.586 8.812 20.648 2.274 3.997 4.548 7.998 6.823 11.995-3.128-1.308-6.34-2.38-8.843-3.532-6.869-3.157-14.317-8.194-21.926-8.781-2.322-.179-3.333 2.9-1.818 4.405 5.714 5.681 15.522 8.289 22.809 11.611 4.378 1.996 10.292 6.039 15.633 6.591 1.057 1.857 2.114 3.717 3.172 5.574 7.168 12.605 13.814 26.269 21.645 38.879-10.635-6.559-21.538-12.806-32.569-18.872-1.121-2.432-2.617-4.69-3.954-7.036-2.339-4.104-3.858-8.708-6.309-12.702-2.419-3.946-7.976-1.361-7.198 2.96.57 3.172 2.049 6.297 3.632 9.246-14.099-7.608-28.219-15.112-41.948-22.91-.513-.289-1.025-.584-1.537-.872.543-6.615-4.095-15.285-5.811-20.738-2.483-7.894-4.076-21.865-11.736-26.373-.755-.442-1.978-.223-2.367.635-3.734 8.223 2.726 20.048 5.25 28.112.984 3.142 1.814 7.558 3.076 11.77a3015.833 3015.833 0 0 0-19.677-11.109c-.734-8.708-5.159-17.523-8.054-25.613l-10.826-30.252c-1.877-5.242-10.278-3.035-8.387 2.25l10.827 30.252c2.003 5.598 3.695 11.862 6.1 17.644-2.567-1.406-5.129-2.824-7.706-4.211-4.276-2.299-8.646-4.97-13.094-7.697-.545-3.737-2.897-7.524-4.369-10.762-2.304-5.069-4.402-12.474-9.255-15.568-1.625-1.036-3.248.402-3.445 2.002-.629 5.127 3.437 10.967 5.529 15.493.363.785.73 1.666 1.103 2.567-7.559-4.355-15.305-8.179-23.169-10.085-.3-.078-.599-.171-.897-.24a1.384 1.384 0 0 0-1.565.684c-.297.503-.302 1.176.19 1.699l.657.658c5.581 5.864 12.763 10.667 20.308 15.042-.965.127-1.91.252-2.773.33-4.959.447-12.043-.159-16.165 2.952-1.287.97-1.719 3.096-.01 3.985 5.102 2.663 12.558.777 18.095.243 3.537-.344 7.989-.196 11.495-1.594 4.582 2.492 9.079 4.947 13.205 7.503 2.49 1.543 4.996 3.053 7.497 4.575-6.205.806-12.472 2.47-18.314 3.533l-31.585 5.739c-5.516 1.005-3.225 9.392 2.248 8.396L235 331.323c8.445-1.534 18.285-2.106 26.184-5.826a2944.895 2944.895 0 0 0 19.448 11.507c-4.275 1.011-8.509 2.499-11.72 3.218-8.236 1.843-21.696 2.155-26.943 9.505-.547.766-.128 1.935.634 2.369 7.729 4.387 20.611-1.219 28.68-3.01 5.577-1.239 15.399-1.557 20.847-5.332.508.298 1.017.595 1.525.896 13.611 8.003 27.162 16.492 40.793 24.911-3.343.104-6.787.384-9.815 1.473-4.126 1.488-3.586 7.599 1.037 7.723 4.682.127 9.424-.858 14.144-.884 2.697-.011 5.398.157 8.063-.089 10.462 6.348 21.014 12.5 31.688 18.3-12.739-.422-25.683.272-38.148.214l-12.98-.061c-3.387-3.636-8.852-6.377-12.332-8.864-6.515-4.659-13.676-11.856-21.448-13.971-2.061-.56-4.217 1.858-2.901 3.781 4.31 6.302 12.392 10.242 18.559 14.618 1.7 1.204 3.568 2.787 5.54 4.375-2.156-.008-4.313-.02-6.469-.028-9.544-.047-18.835-1.442-27.661 2.437-1.27.558-1.23 2.721.009 3.281 7.372 3.342 14.151 2.637 22.268 2.687 4.596.025 9.193.054 13.789.08-2.695 2.06-5.229 4.307-7.476 5.901-6.167 4.376-14.249 8.316-18.559 14.621-1.316 1.923.84 4.338 2.901 3.778 7.772-2.115 14.933-9.312 21.448-13.971 3.915-2.799 10.371-5.901 13.517-10.256 2.137.011 4.274.026 6.411.037 14.487.087 29.63 1.158 44.455.673-10.99 5.941-21.847 12.27-32.611 18.8-2.665-.243-5.366-.075-8.063-.09-4.72-.023-9.462-1.008-14.144-.88-4.623.124-5.163 6.235-1.037 7.72 3.028 1.092 6.472 1.372 9.815 1.473-13.631 8.419-27.182 16.911-40.793 24.914-.508.298-1.017.595-1.525.896-5.448-3.778-15.27-4.093-20.847-5.332-8.069-1.794-20.951-7.4-28.68-3.01-.762.434-1.181 1.603-.634 2.369 5.247 7.347 18.707 7.659 26.943 9.505 3.211.716 7.445 2.204 11.72 3.218a2988.868 2988.868 0 0 0-19.448 11.503c-7.899-3.717-17.739-4.289-26.184-5.822l-31.584-5.742c-5.473-.994-7.764 7.394-2.248 8.396l31.585 5.742c5.842 1.06 12.109 2.724 18.314 3.532-2.501 1.52-5.007 3.033-7.497 4.575-4.126 2.557-8.623 5.012-13.205 7.504-3.506-1.398-7.958-1.25-11.495-1.594-5.537-.537-12.993-2.421-18.095.239-1.709.893-1.277 3.016.01 3.989 4.122 3.108 11.206 2.504 16.165 2.952.863.078 1.808.202 2.773.329-7.545 4.376-14.727 9.176-20.308 15.042l-.657.659a1.39 1.39 0 0 0-.19 1.698c.286.509.866.849 1.565.685.298-.072.597-.165.897-.24 7.864-1.906 15.61-5.733 23.169-10.086-.373.901-.74 1.782-1.103 2.568-2.092 4.526-6.158 10.363-5.529 15.49.197 1.603 1.82 3.038 3.445 2.004 4.853-3.093 6.951-10.499 9.255-15.568 1.472-3.237 3.824-7.024 4.369-10.761 4.448-2.727 8.818-5.399 13.094-7.698 2.577-1.386 5.139-2.804 7.706-4.211-2.405 5.783-4.097 12.047-6.1 17.642l-10.827 30.255c-1.891 5.282 6.51 7.492 8.387 2.25l10.826-30.255c2.895-8.087 7.32-16.905 8.054-25.613 6.574-3.674 13.131-7.38 19.677-11.106-1.262 4.211-2.092 8.625-3.076 11.77-2.524 8.061-8.984 19.886-5.25 28.109.389.857 1.612 1.08 2.367.635 7.66-4.506 9.253-18.476 11.736-26.37 1.716-5.453 6.354-14.126 5.811-20.738l1.537-.875c13.729-7.798 27.849-15.302 41.948-22.91-1.583 2.952-3.062 6.077-3.632 9.246-.778 4.321 4.779 6.908 7.198 2.963 2.451-3.995 3.97-8.598 6.309-12.703 1.337-2.345 2.833-4.604 3.954-7.035 10.722-5.898 21.321-11.97 31.675-18.324-6.736 10.834-12.608 22.402-18.891 33.181l-6.543 11.221c-4.838 1.12-9.94 4.488-13.834 6.262-7.286 3.318-17.093 5.926-22.807 11.608-1.515 1.504-.505 4.583 1.818 4.404 7.608-.583 15.057-5.623 21.926-8.78 1.892-.87 4.195-1.698 6.556-2.614l-3.261 5.592c-4.81 8.251-10.663 15.611-11.722 25.2-.153 1.38 1.739 2.429 2.845 1.635 6.576-4.723 9.356-10.953 13.456-17.965l6.966-11.912c.433 3.365 1.112 6.687 1.366 9.431.704 7.535.069 16.512 3.367 23.4 1.007 2.103 4.174 1.439 4.72-.626 2.058-7.796-.59-17.602-1.361-25.579-.464-4.795.078-11.943-2.115-16.847 1.078-1.849 2.158-3.695 3.238-5.54 7.319-12.515 15.816-25.111 22.81-38.203-.355 12.497-.309 25.076-.042 37.671-1.543 2.187-2.749 4.613-4.109 6.944-2.38 4.081-5.604 7.7-7.835 11.822-2.203 4.072 2.813 7.593 6.161 4.76 2.457-2.08 4.421-4.925 6.182-7.773.469 16.027 1.037 32.023 1.156 47.824l.013 1.768c-5.992 2.836-11.176 11.195-15.036 15.409-5.587 6.1-16.876 14.465-16.945 23.36-.006.876.796 1.826 1.732 1.733 8.982-.875 15.982-12.388 21.695-18.606 2.227-2.423 5.63-5.352 8.644-8.552.049 7.538.122 15.077.23 22.612-7.167 4.991-12.582 13.237-18.132 19.791l-20.758 24.513c-3.597 4.245 2.514 10.426 6.14 6.146l20.758-24.513c3.84-4.535 8.412-9.136 12.212-14.112.066 2.928.121 5.857.211 8.786.148 4.858.023 9.982-.112 15.201-2.961 2.342-5.061 6.273-7.125 9.167-3.234 4.535-8.592 10.055-8.841 15.811-.083 1.926 1.971 2.614 3.455 1.984 4.751-2.019 7.768-8.463 10.638-12.538.498-.71 1.077-1.467 1.669-2.241.014 8.731.577 17.358 2.86 25.131.083.297.153.6.241.898.206.687.79 1.019 1.374 1.011a1.382 1.382 0 0 0 1.374-1.011c.088-.298.158-.601.241-.898 2.284-7.773 2.848-16.4 2.859-25.131a70.158 70.158 0 0 1 1.671 2.241c2.867 4.075 5.885 10.519 10.637 12.538 1.483.63 3.537-.058 3.454-1.984-.248-5.756-5.606-11.276-8.84-15.811-2.063-2.894-4.164-6.825-7.124-9.167-.135-5.219-.262-10.343-.112-15.201.089-2.929.144-5.858.21-8.786 3.8 4.976 8.373 9.577 12.213 14.112l20.756 24.513c3.627 4.28 9.737-1.901 6.14-6.146l-20.756-24.513c-5.551-6.554-10.967-14.8-18.133-19.791.109-7.535.181-15.074.23-22.612 3.012 3.2 6.417 6.129 8.644 8.552 5.713 6.218 12.712 17.731 21.694 18.606.938.093 1.74-.857 1.731-1.733-.066-8.895-11.356-17.26-16.945-23.36-3.857-4.214-9.042-12.573-15.034-15.409.006-.589.008-1.178.011-1.768.121-15.801.69-31.797 1.157-47.824 1.76 2.848 3.725 5.693 6.183 7.773 3.347 2.833 8.364-.688 6.16-4.76-2.23-4.122-5.453-7.741-7.833-11.822-1.362-2.331-2.568-4.757-4.112-6.944.263-12.243.309-24.469-.011-36.623 6.004 11.259 13.075 22.133 19.258 32.967 2.144 3.763 4.291 7.524 6.437 11.284-1.451 4.755-1.09 10.86-1.503 15.123-.77 7.978-3.416 17.784-1.359 25.579.545 2.065 3.713 2.73 4.717.627 3.301-6.889 2.666-15.865 3.367-23.401.194-2.074.629-4.486 1.019-6.99 1.067 1.875 2.138 3.749 3.208 5.624 4.732 8.295 8.171 17.049 15.938 22.762 1.116.821 2.972-.294 2.836-1.649-.796-8.061-4.795-13.586-8.811-20.648-2.277-4-4.55-7.998-6.824-11.995 3.128 1.305 6.339 2.38 8.843 3.529 6.87 3.16 14.316 8.197 21.925 8.781 2.322.179 3.335-2.897 1.82-4.405-5.715-5.681-15.522-8.289-22.81-11.608-4.38-1.996-10.291-6.039-15.632-6.591-1.059-1.857-2.115-3.717-3.174-5.577-7.166-12.602-13.814-26.266-21.644-38.877 10.635 6.557 21.538 12.804 32.571 18.873 1.119 2.431 2.614 4.69 3.952 7.035 2.34 4.105 3.858 8.708 6.31 12.703 2.418 3.945 7.975 1.358 7.199-2.963-.572-3.169-2.052-6.294-3.636-9.246 14.1 7.608 28.22 15.112 41.951 22.91l1.537.875c-.545 6.612 4.095 15.285 5.811 20.738 2.481 7.894 4.074 21.864 11.734 26.37.756.445 1.979.222 2.369-.635 3.733-8.223-2.727-20.048-5.251-28.109-.984-3.145-1.815-7.559-3.076-11.77a2882.023 2882.023 0 0 0 19.677 11.106c.733 8.708 5.159 17.526 8.053 25.613l10.828 30.255c1.875 5.242 10.277 3.032 8.387-2.25l-10.828-30.255c-2.002-5.595-3.696-11.859-6.099-17.642 2.565 1.407 5.127 2.825 7.706 4.211 4.276 2.299 8.647 4.971 13.093 7.698.545 3.737 2.897 7.524 4.368 10.761 2.305 5.069 4.403 12.475 9.256 15.568 1.627 1.034 3.248-.401 3.444-2.004.629-5.127-3.436-10.964-5.528-15.49a71.929 71.929 0 0 1-1.102-2.568c7.559 4.353 15.303 8.18 23.168 10.086.3.075.597.168.898.24a1.386 1.386 0 0 0 1.563-.685c.297-.502.303-1.175-.19-1.698l-.655-.659c-5.583-5.866-12.764-10.666-20.309-15.042a70.66 70.66 0 0 1 2.773-.329c4.96-.448 12.043.156 16.165-2.952 1.287-.973 1.72-3.096.009-3.989-5.101-2.66-12.556-.776-18.096-.239-3.534.344-7.986.196-11.494 1.594-4.582-2.492-9.077-4.947-13.206-7.504-2.487-1.542-4.994-3.055-7.495-4.575 6.206-.808 12.472-2.472 18.315-3.532l31.584-5.742z"/></mask><path d="M600.832 473.334c5.516-1.002 3.225-9.39-2.248-8.396L567 470.68c-8.445 1.533-18.286 2.105-26.186 5.822a2961.928 2961.928 0 0 0-19.446-11.503c4.273-1.014 8.509-2.502 11.72-3.218 8.237-1.846 21.696-2.158 26.942-9.505.548-.766.13-1.935-.632-2.369-7.73-4.39-20.612 1.216-28.682 3.01-5.577 1.239-15.398 1.554-20.845 5.332-.508-.301-1.018-.598-1.526-.896-13.61-8.003-27.161-16.495-40.794-24.914 3.344-.101 6.789-.381 9.816-1.473 4.126-1.485 3.586-7.596-1.036-7.72-4.683-.128-9.426.857-14.146.88-2.695.015-5.398-.153-8.061.09-10.465-6.346-21.016-12.5-31.691-18.3 12.741.424 25.687-.269 38.151-.211l12.98.061c3.387 3.633 8.852 6.374 12.331 8.864 6.515 4.656 13.676 11.856 21.449 13.967 2.06.561 4.215-1.854 2.899-3.777-4.31-6.303-12.392-10.242-18.557-14.618-1.7-1.207-3.569-2.787-5.54-4.379 2.156.012 4.311.021 6.469.032 9.541.044 18.834 1.439 27.66-2.438 1.269-.557 1.232-2.723-.009-3.284-7.371-3.338-14.151-2.634-22.267-2.683-4.597-.029-9.193-.055-13.792-.084 2.695-2.056 5.231-4.306 7.479-5.9 6.165-4.376 14.247-8.316 18.557-14.618 1.316-1.923-.839-4.338-2.899-3.778-7.773 2.112-14.934 9.312-21.449 13.968-3.915 2.799-10.372 5.904-13.517 10.259-2.138-.014-4.273-.026-6.411-.037-14.486-.087-29.63-1.159-44.454-.676 10.989-5.941 21.846-12.27 32.611-18.8 2.663.246 5.366.078 8.061.089 4.72.026 9.463 1.011 14.146.884 4.622-.124 5.162-6.235 1.036-7.723-3.027-1.089-6.472-1.369-9.816-1.473 13.633-8.419 27.184-16.908 40.794-24.911.508-.301 1.018-.598 1.526-.896 5.447 3.775 15.268 4.093 20.845 5.332 8.07 1.791 20.952 7.397 28.682 3.01.762-.434 1.18-1.603.632-2.369-5.246-7.35-18.705-7.662-26.942-9.505-3.211-.719-7.447-2.207-11.72-3.218a2918.73 2918.73 0 0 0 19.446-11.507c7.9 3.72 17.741 4.292 26.186 5.826l31.584 5.739c5.473.996 7.764-7.391 2.248-8.396l-31.584-5.739c-5.843-1.063-12.109-2.727-18.315-3.533 2.501-1.522 5.008-3.032 7.495-4.575 4.129-2.556 8.624-5.011 13.206-7.503 3.508 1.398 7.96 1.25 11.494 1.594 5.54.534 12.995 2.42 18.096-.243 1.711-.889 1.278-3.015-.009-3.985-4.122-3.111-11.205-2.505-16.165-2.952-.863-.078-1.809-.203-2.773-.33 7.545-4.375 14.726-9.178 20.309-15.042l.655-.658c.493-.523.487-1.196.19-1.699a1.381 1.381 0 0 0-1.563-.684c-.301.069-.598.162-.898.24-7.865 1.906-15.609 5.73-23.168 10.085.373-.901.739-1.782 1.102-2.567 2.092-4.526 6.157-10.366 5.528-15.493-.196-1.6-1.817-3.038-3.444-2.002-4.853 3.094-6.951 10.499-9.256 15.568-1.471 3.238-3.823 7.025-4.368 10.762-4.446 2.727-8.817 5.398-13.093 7.697-2.579 1.387-5.141 2.805-7.706 4.211 2.403-5.782 4.097-12.046 6.099-17.644l10.828-30.252c1.89-5.285-6.512-7.492-8.387-2.25l-10.828 30.252c-2.894 8.09-7.32 16.905-8.053 25.613a3015.833 3015.833 0 0 0-19.677 11.109c1.261-4.212 2.092-8.628 3.076-11.77 2.524-8.064 8.984-19.889 5.251-28.112-.39-.858-1.613-1.077-2.369-.635-7.66 4.508-9.253 18.479-11.734 26.373-1.716 5.453-6.356 14.123-5.811 20.738-.513.288-1.024.583-1.537.872-13.731 7.798-27.851 15.302-41.951 22.91 1.584-2.949 3.064-6.074 3.636-9.246.776-4.321-4.781-6.906-7.199-2.96-2.452 3.994-3.97 8.598-6.31 12.702-1.338 2.346-2.833 4.604-3.952 7.036-10.725 5.895-21.322 11.966-31.677 18.323 6.737-10.833 12.609-22.404 18.89-33.18l6.543-11.224c4.839-1.118 9.942-4.485 13.834-6.259 7.286-3.321 17.095-5.929 22.808-11.611 1.514-1.505.505-4.583-1.818-4.404-7.608.586-15.058 5.623-21.924 8.783-1.893.869-4.195 1.698-6.558 2.614 1.087-1.866 2.175-3.729 3.26-5.595 4.812-8.252 10.664-15.608 11.722-25.197.153-1.381-1.739-2.429-2.844-1.635-6.576 4.722-9.357 10.95-13.457 17.962-2.322 3.972-4.642 7.943-6.965 11.914-.432-3.364-1.11-6.686-1.367-9.433-.701-7.532-.069-16.509-3.367-23.398-1.007-2.102-4.172-1.441-4.72.627-2.057 7.793.591 17.601 1.362 25.579.464 4.791-.078 11.943 2.114 16.847-1.079 1.846-2.158 3.691-3.237 5.54-7.32 12.515-15.816 25.111-22.81 38.203.355-12.5.309-25.076.04-37.672 1.544-2.189 2.75-4.615 4.112-6.946 2.38-4.081 5.603-7.7 7.833-11.822 2.204-4.069-2.813-7.593-6.16-4.76-2.458 2.08-4.423 4.925-6.183 7.773-.467-16.027-1.036-32.02-1.157-47.822-.003-.592-.005-1.181-.011-1.77 5.992-2.836 11.177-11.192 15.034-15.406 5.589-6.1 16.879-14.465 16.945-23.361.009-.878-.793-1.825-1.731-1.735-8.982.875-15.981 12.39-21.694 18.606-2.227 2.426-5.632 5.355-8.644 8.555-.049-7.538-.121-15.077-.23-22.615 7.166-4.988 12.582-13.234 18.133-19.788l20.756-24.513c3.597-4.248-2.513-10.426-6.14-6.146l-20.756 24.513c-3.84 4.534-8.413 9.135-12.213 14.112-.066-2.932-.121-5.86-.21-8.789-.15-4.855-.023-9.982.112-15.198 2.96-2.343 5.061-6.276 7.124-9.17 3.234-4.532 8.592-10.055 8.84-15.808.083-1.927-1.971-2.614-3.454-1.984-4.752 2.016-7.77 8.462-10.637 12.538-.5.707-1.077 1.467-1.671 2.238-.011-8.728-.575-17.356-2.859-25.128-.083-.297-.153-.604-.241-.898-.206-.688-.79-1.02-1.374-1.014-.584-.006-1.168.326-1.374 1.014-.088.294-.158.601-.241.898-2.283 7.772-2.846 16.4-2.86 25.128a69.991 69.991 0 0 1-1.669-2.238c-2.87-4.076-5.887-10.522-10.638-12.538-1.484-.63-3.538.057-3.455 1.984.249 5.753 5.607 11.276 8.841 15.808 2.064 2.894 4.164 6.827 7.125 9.17.135 5.216.26 10.343.112 15.198-.09 2.929-.145 5.857-.211 8.789-3.8-4.977-8.372-9.578-12.212-14.112l-20.758-24.513c-3.626-4.28-9.737 1.898-6.14 6.146l20.758 24.513c5.55 6.554 10.965 14.8 18.132 19.788a2889.94 2889.94 0 0 0-.23 22.615c-3.014-3.2-6.417-6.129-8.644-8.555-5.713-6.216-12.713-17.731-21.695-18.606-.936-.09-1.738.857-1.732 1.735.069 8.896 11.358 17.261 16.945 23.361 3.86 4.214 9.044 12.57 15.036 15.406l-.013 1.77c-.119 15.802-.687 31.795-1.156 47.822-1.761-2.848-3.725-5.693-6.182-7.773-3.348-2.833-8.364.691-6.161 4.76 2.231 4.122 5.455 7.741 7.835 11.822 1.36 2.331 2.566 4.757 4.109 6.946-.259 12.244-.307 24.467.014 36.621-6.004-11.256-13.076-22.13-19.258-32.967l-6.437-11.282c1.45-4.754 1.088-10.863 1.501-15.123.772-7.977 3.418-17.786 1.361-25.581-.545-2.065-3.713-2.727-4.72-.624-3.297 6.888-2.664 15.865-3.366 23.398-.194 2.077-.628 4.485-1.017 6.992l-3.208-5.623c-4.733-8.298-8.172-17.05-15.939-22.763-1.116-.823-2.97.295-2.836 1.65.797 8.061 4.796 13.586 8.812 20.648 2.274 3.997 4.548 7.998 6.823 11.995-3.128-1.308-6.34-2.38-8.843-3.532-6.869-3.157-14.317-8.194-21.926-8.781-2.322-.179-3.333 2.9-1.818 4.405 5.714 5.681 15.522 8.289 22.809 11.611 4.378 1.996 10.292 6.039 15.633 6.591 1.057 1.857 2.114 3.717 3.172 5.574 7.168 12.605 13.814 26.269 21.645 38.879-10.635-6.559-21.538-12.806-32.569-18.872-1.121-2.432-2.617-4.69-3.954-7.036-2.339-4.104-3.858-8.708-6.309-12.702-2.419-3.946-7.976-1.361-7.198 2.96.57 3.172 2.049 6.297 3.632 9.246-14.099-7.608-28.219-15.112-41.948-22.91-.513-.289-1.025-.584-1.537-.872.543-6.615-4.095-15.285-5.811-20.738-2.483-7.894-4.076-21.865-11.736-26.373-.755-.442-1.978-.223-2.367.635-3.734 8.223 2.726 20.048 5.25 28.112.984 3.142 1.814 7.558 3.076 11.77a3015.833 3015.833 0 0 0-19.677-11.109c-.734-8.708-5.159-17.523-8.054-25.613l-10.826-30.252c-1.877-5.242-10.278-3.035-8.387 2.25l10.827 30.252c2.003 5.598 3.695 11.862 6.1 17.644-2.567-1.406-5.129-2.824-7.706-4.211-4.276-2.299-8.646-4.97-13.094-7.697-.545-3.737-2.897-7.524-4.369-10.762-2.304-5.069-4.402-12.474-9.255-15.568-1.625-1.036-3.248.402-3.445 2.002-.629 5.127 3.437 10.967 5.529 15.493.363.785.73 1.666 1.103 2.567-7.559-4.355-15.305-8.179-23.169-10.085-.3-.078-.599-.171-.897-.24a1.384 1.384 0 0 0-1.565.684c-.297.503-.302 1.176.19 1.699l.657.658c5.581 5.864 12.763 10.667 20.308 15.042-.965.127-1.91.252-2.773.33-4.959.447-12.043-.159-16.165 2.952-1.287.97-1.719 3.096-.01 3.985 5.102 2.663 12.558.777 18.095.243 3.537-.344 7.989-.196 11.495-1.594 4.582 2.492 9.079 4.947 13.205 7.503 2.49 1.543 4.996 3.053 7.497 4.575-6.205.806-12.472 2.47-18.314 3.533l-31.585 5.739c-5.516 1.005-3.225 9.392 2.248 8.396L235 331.323c8.445-1.534 18.285-2.106 26.184-5.826a2944.895 2944.895 0 0 0 19.448 11.507c-4.275 1.011-8.509 2.499-11.72 3.218-8.236 1.843-21.696 2.155-26.943 9.505-.547.766-.128 1.935.634 2.369 7.729 4.387 20.611-1.219 28.68-3.01 5.577-1.239 15.399-1.557 20.847-5.332.508.298 1.017.595 1.525.896 13.611 8.003 27.162 16.492 40.793 24.911-3.343.104-6.787.384-9.815 1.473-4.126 1.488-3.586 7.599 1.037 7.723 4.682.127 9.424-.858 14.144-.884 2.697-.011 5.398.157 8.063-.089 10.462 6.348 21.014 12.5 31.688 18.3-12.739-.422-25.683.272-38.148.214l-12.98-.061c-3.387-3.636-8.852-6.377-12.332-8.864-6.515-4.659-13.676-11.856-21.448-13.971-2.061-.56-4.217 1.858-2.901 3.781 4.31 6.302 12.392 10.242 18.559 14.618 1.7 1.204 3.568 2.787 5.54 4.375-2.156-.008-4.313-.02-6.469-.028-9.544-.047-18.835-1.442-27.661 2.437-1.27.558-1.23 2.721.009 3.281 7.372 3.342 14.151 2.637 22.268 2.687 4.596.025 9.193.054 13.789.08-2.695 2.06-5.229 4.307-7.476 5.901-6.167 4.376-14.249 8.316-18.559 14.621-1.316 1.923.84 4.338 2.901 3.778 7.772-2.115 14.933-9.312 21.448-13.971 3.915-2.799 10.371-5.901 13.517-10.256 2.137.011 4.274.026 6.411.037 14.487.087 29.63 1.158 44.455.673-10.99 5.941-21.847 12.27-32.611 18.8-2.665-.243-5.366-.075-8.063-.09-4.72-.023-9.462-1.008-14.144-.88-4.623.124-5.163 6.235-1.037 7.72 3.028 1.092 6.472 1.372 9.815 1.473-13.631 8.419-27.182 16.911-40.793 24.914-.508.298-1.017.595-1.525.896-5.448-3.778-15.27-4.093-20.847-5.332-8.069-1.794-20.951-7.4-28.68-3.01-.762.434-1.181 1.603-.634 2.369 5.247 7.347 18.707 7.659 26.943 9.505 3.211.716 7.445 2.204 11.72 3.218a2988.868 2988.868 0 0 0-19.448 11.503c-7.899-3.717-17.739-4.289-26.184-5.822l-31.584-5.742c-5.473-.994-7.764 7.394-2.248 8.396l31.585 5.742c5.842 1.06 12.109 2.724 18.314 3.532-2.501 1.52-5.007 3.033-7.497 4.575-4.126 2.557-8.623 5.012-13.205 7.504-3.506-1.398-7.958-1.25-11.495-1.594-5.537-.537-12.993-2.421-18.095.239-1.709.893-1.277 3.016.01 3.989 4.122 3.108 11.206 2.504 16.165 2.952.863.078 1.808.202 2.773.329-7.545 4.376-14.727 9.176-20.308 15.042l-.657.659a1.39 1.39 0 0 0-.19 1.698c.286.509.866.849 1.565.685.298-.072.597-.165.897-.24 7.864-1.906 15.61-5.733 23.169-10.086-.373.901-.74 1.782-1.103 2.568-2.092 4.526-6.158 10.363-5.529 15.49.197 1.603 1.82 3.038 3.445 2.004 4.853-3.093 6.951-10.499 9.255-15.568 1.472-3.237 3.824-7.024 4.369-10.761 4.448-2.727 8.818-5.399 13.094-7.698 2.577-1.386 5.139-2.804 7.706-4.211-2.405 5.783-4.097 12.047-6.1 17.642l-10.827 30.255c-1.891 5.282 6.51 7.492 8.387 2.25l10.826-30.255c2.895-8.087 7.32-16.905 8.054-25.613 6.574-3.674 13.131-7.38 19.677-11.106-1.262 4.211-2.092 8.625-3.076 11.77-2.524 8.061-8.984 19.886-5.25 28.109.389.857 1.612 1.08 2.367.635 7.66-4.506 9.253-18.476 11.736-26.37 1.716-5.453 6.354-14.126 5.811-20.738l1.537-.875c13.729-7.798 27.849-15.302 41.948-22.91-1.583 2.952-3.062 6.077-3.632 9.246-.778 4.321 4.779 6.908 7.198 2.963 2.451-3.995 3.97-8.598 6.309-12.703 1.337-2.345 2.833-4.604 3.954-7.035 10.722-5.898 21.321-11.97 31.675-18.324-6.736 10.834-12.608 22.402-18.891 33.181l-6.543 11.221c-4.838 1.12-9.94 4.488-13.834 6.262-7.286 3.318-17.093 5.926-22.807 11.608-1.515 1.504-.505 4.583 1.818 4.404 7.608-.583 15.057-5.623 21.926-8.78 1.892-.87 4.195-1.698 6.556-2.614l-3.261 5.592c-4.81 8.251-10.663 15.611-11.722 25.2-.153 1.38 1.739 2.429 2.845 1.635 6.576-4.723 9.356-10.953 13.456-17.965l6.966-11.912c.433 3.365 1.112 6.687 1.366 9.431.704 7.535.069 16.512 3.367 23.4 1.007 2.103 4.174 1.439 4.72-.626 2.058-7.796-.59-17.602-1.361-25.579-.464-4.795.078-11.943-2.115-16.847 1.078-1.849 2.158-3.695 3.238-5.54 7.319-12.515 15.816-25.111 22.81-38.203-.355 12.497-.309 25.076-.042 37.671-1.543 2.187-2.749 4.613-4.109 6.944-2.38 4.081-5.604 7.7-7.835 11.822-2.203 4.072 2.813 7.593 6.161 4.76 2.457-2.08 4.421-4.925 6.182-7.773.469 16.027 1.037 32.023 1.156 47.824l.013 1.768c-5.992 2.836-11.176 11.195-15.036 15.409-5.587 6.1-16.876 14.465-16.945 23.36-.006.876.796 1.826 1.732 1.733 8.982-.875 15.982-12.388 21.695-18.606 2.227-2.423 5.63-5.352 8.644-8.552.049 7.538.122 15.077.23 22.612-7.167 4.991-12.582 13.237-18.132 19.791l-20.758 24.513c-3.597 4.245 2.514 10.426 6.14 6.146l20.758-24.513c3.84-4.535 8.412-9.136 12.212-14.112.066 2.928.121 5.857.211 8.786.148 4.858.023 9.982-.112 15.201-2.961 2.342-5.061 6.273-7.125 9.167-3.234 4.535-8.592 10.055-8.841 15.811-.083 1.926 1.971 2.614 3.455 1.984 4.751-2.019 7.768-8.463 10.638-12.538.498-.71 1.077-1.467 1.669-2.241.014 8.731.577 17.358 2.86 25.131.083.297.153.6.241.898.206.687.79 1.019 1.374 1.011a1.382 1.382 0 0 0 1.374-1.011c.088-.298.158-.601.241-.898 2.284-7.773 2.848-16.4 2.859-25.131a70.158 70.158 0 0 1 1.671 2.241c2.867 4.075 5.885 10.519 10.637 12.538 1.483.63 3.537-.058 3.454-1.984-.248-5.756-5.606-11.276-8.84-15.811-2.063-2.894-4.164-6.825-7.124-9.167-.135-5.219-.262-10.343-.112-15.201.089-2.929.144-5.858.21-8.786 3.8 4.976 8.373 9.577 12.213 14.112l20.756 24.513c3.627 4.28 9.737-1.901 6.14-6.146l-20.756-24.513c-5.551-6.554-10.967-14.8-18.133-19.791.109-7.535.181-15.074.23-22.612 3.012 3.2 6.417 6.129 8.644 8.552 5.713 6.218 12.712 17.731 21.694 18.606.938.093 1.74-.857 1.731-1.733-.066-8.895-11.356-17.26-16.945-23.36-3.857-4.214-9.042-12.573-15.034-15.409.006-.589.008-1.178.011-1.768.121-15.801.69-31.797 1.157-47.824 1.76 2.848 3.725 5.693 6.183 7.773 3.347 2.833 8.364-.688 6.16-4.76-2.23-4.122-5.453-7.741-7.833-11.822-1.362-2.331-2.568-4.757-4.112-6.944.263-12.243.309-24.469-.011-36.623 6.004 11.259 13.075 22.133 19.258 32.967 2.144 3.763 4.291 7.524 6.437 11.284-1.451 4.755-1.09 10.86-1.503 15.123-.77 7.978-3.416 17.784-1.359 25.579.545 2.065 3.713 2.73 4.717.627 3.301-6.889 2.666-15.865 3.367-23.401.194-2.074.629-4.486 1.019-6.99 1.067 1.875 2.138 3.749 3.208 5.624 4.732 8.295 8.171 17.049 15.938 22.762 1.116.821 2.972-.294 2.836-1.649-.796-8.061-4.795-13.586-8.811-20.648-2.277-4-4.55-7.998-6.824-11.995 3.128 1.305 6.339 2.38 8.843 3.529 6.87 3.16 14.316 8.197 21.925 8.781 2.322.179 3.335-2.897 1.82-4.405-5.715-5.681-15.522-8.289-22.81-11.608-4.38-1.996-10.291-6.039-15.632-6.591-1.059-1.857-2.115-3.717-3.174-5.577-7.166-12.602-13.814-26.266-21.644-38.877 10.635 6.557 21.538 12.804 32.571 18.873 1.119 2.431 2.614 4.69 3.952 7.035 2.34 4.105 3.858 8.708 6.31 12.703 2.418 3.945 7.975 1.358 7.199-2.963-.572-3.169-2.052-6.294-3.636-9.246 14.1 7.608 28.22 15.112 41.951 22.91l1.537.875c-.545 6.612 4.095 15.285 5.811 20.738 2.481 7.894 4.074 21.864 11.734 26.37.756.445 1.979.222 2.369-.635 3.733-8.223-2.727-20.048-5.251-28.109-.984-3.145-1.815-7.559-3.076-11.77a2882.023 2882.023 0 0 0 19.677 11.106c.733 8.708 5.159 17.526 8.053 25.613l10.828 30.255c1.875 5.242 10.277 3.032 8.387-2.25l-10.828-30.255c-2.002-5.595-3.696-11.859-6.099-17.642 2.565 1.407 5.127 2.825 7.706 4.211 4.276 2.299 8.647 4.971 13.093 7.698.545 3.737 2.897 7.524 4.368 10.761 2.305 5.069 4.403 12.475 9.256 15.568 1.627 1.034 3.248-.401 3.444-2.004.629-5.127-3.436-10.964-5.528-15.49a71.929 71.929 0 0 1-1.102-2.568c7.559 4.353 15.303 8.18 23.168 10.086.3.075.597.168.898.24a1.386 1.386 0 0 0 1.563-.685c.297-.502.303-1.175-.19-1.698l-.655-.659c-5.583-5.866-12.764-10.666-20.309-15.042a70.66 70.66 0 0 1 2.773-.329c4.96-.448 12.043.156 16.165-2.952 1.287-.973 1.72-3.096.009-3.989-5.101-2.66-12.556-.776-18.096-.239-3.534.344-7.986.196-11.494 1.594-4.582-2.492-9.077-4.947-13.206-7.504-2.487-1.542-4.994-3.055-7.495-4.575 6.206-.808 12.472-2.472 18.315-3.532l31.584-5.742z" stroke="#C7AB77" stroke-opacity=".3" stroke-width="4" mask="url(#aC)"/></g><defs><clipPath id="clip0_1852_695"><path fill="#fff" transform="matrix(1 0 0 -1 0 803)" d="M0 0H801V803H0z"/></clipPath></defs></svg>