<svg width="801" height="803" fill="none" xmlns="http://www.w3.org/2000/svg"><g clip-path="url(#clip0_1842_121158)"><mask id="a" fill="#fff"><path d="M195.255 791.208c-11.843 0-23.309-.752-34.384-2.262-41.12-5.604-74.957-21.431-100.564-47.043-25.612-25.61-41.441-59.446-47.045-100.563-5.395-39.599-1.129-84.258 12.684-132.737a488.24 488.24 0 0 1 4.47-14.772c6.546-20.461 14.617-41.091 24.113-61.732a404.65 404.65 0 0 1 1.474-3.175c8.048-17.232 17.091-34.472 27.056-51.606a707.804 707.804 0 0 1 16.472-26.917 749.182 749.182 0 0 1 12.968-19.507c.612-.891 1.228-1.781 1.845-2.674a787.587 787.587 0 0 1 12.941-18.092c.634-.86 1.264-1.709 1.901-2.569a802.501 802.501 0 0 1 13.619-17.8 281.34 281.34 0 0 0-4.601 11.009 797.275 797.275 0 0 0-5.924 7.868c-.635.852-1.275 1.715-1.904 2.567a784.946 784.946 0 0 0-12.779 17.854c-.622.895-1.234 1.781-1.851 2.674a759.652 759.652 0 0 0-14.606 22.037 723.191 723.191 0 0 0-14.565 23.854 681.219 681.219 0 0 0-12.77 22.857 550.754 550.754 0 0 0-1.611 3.045 634.598 634.598 0 0 0-12.529 25.108 553.672 553.672 0 0 0-1.484 3.176c-9.578 20.635-17.651 41.073-24.164 61.119-.371 1.137-.74 2.288-1.098 3.422C1.281 596.234 8.674 685.955 62.465 739.746c25.128 25.128 58.374 40.666 98.817 46.175 10.937 1.492 22.276 2.237 33.978 2.237 22.948.003 47.307-2.861 72.883-8.565a441.344 441.344 0 0 0 24.625-6.266c15.125-4.31 30.364-9.479 45.656-15.467 1.1-.432 2.211-.87 3.311-1.31 18.657-7.444 37.371-16.098 56.038-25.888a670.38 670.38 0 0 0 28.916-16.099 704.04 704.04 0 0 0 23.798-14.66 749.143 749.143 0 0 0 21.991-14.703 777.987 777.987 0 0 0 20.461-14.706 772.051 772.051 0 0 0 8.69-6.554 277.1 277.1 0 0 0 10.751-4.483 798.594 798.594 0 0 1-20.968 15.958A779.435 779.435 0 0 1 470.6 690.2a747.746 747.746 0 0 1-22.36 14.755 709.215 709.215 0 0 1-21.27 12.978 673.836 673.836 0 0 1-29.194 16.168c-18.862 9.834-37.78 18.516-56.627 25.965-1.1.433-2.208.868-3.309 1.295-14.816 5.745-29.578 10.722-44.236 14.901a445.163 445.163 0 0 1-23.127 5.931c-.875.2-1.745.394-2.618.586-25.448 5.614-49.717 8.429-72.604 8.429zm319.627-133.726l-.307-.679c.921-.419 1.84-.844 2.756-1.271-.811.647-1.635 1.305-2.449 1.95zM655.4 516.452a275.728 275.728 0 0 0 3.421-8.056l-.767-.312a819.923 819.923 0 0 0 9.373-12.403c.632-.855 1.269-1.722 1.899-2.58a773.416 773.416 0 0 0 14.647-20.648 744.833 744.833 0 0 0 14.65-22.229 707.513 707.513 0 0 0 14.565-24.031 673.902 673.902 0 0 0 14.113-25.645 617.595 617.595 0 0 0 14.21-29.029c9.424-20.622 17.421-41.234 23.882-61.664a488.75 488.75 0 0 0 3.933-13.084c13.698-48.072 17.938-92.311 12.597-131.488-5.514-40.444-21.052-73.69-46.178-98.818-25.131-25.129-58.379-40.666-98.818-46.178-10.942-1.492-22.275-2.237-33.98-2.237-24.043 0-49.643 3.143-76.56 9.404a447.925 447.925 0 0 0-20.947 5.428c-16.157 4.603-32.458 10.195-48.802 16.71-1.1.44-2.198.88-3.298 1.328-17.662 7.172-35.375 15.427-53.041 24.696-1.014.534-2.032 1.07-3.048 1.61a670.97 670.97 0 0 0-25.249 14.135c-.97.568-1.94 1.144-2.907 1.717a712.879 712.879 0 0 0-23.598 14.662 745.576 745.576 0 0 0-21.838 14.712 765.886 765.886 0 0 0-17.756 12.792c-.855.634-1.707 1.269-2.562 1.906a843.99 843.99 0 0 0-6.758 5.113 281.626 281.626 0 0 0-10.758 4.488 807.85 807.85 0 0 1 19.013-14.511 784.293 784.293 0 0 1 20.661-14.778 744.783 744.783 0 0 1 22.206-14.768 719.708 719.708 0 0 1 21.08-12.976l2.907-1.71a676.489 676.489 0 0 1 28.604-15.829c17.854-9.314 35.753-17.592 53.602-24.773 1.098-.442 2.195-.88 3.293-1.315 15.881-6.272 31.71-11.669 47.412-16.142a443.534 443.534 0 0 1 22.918-5.885C554 18.03 579.218 15 602.952 15c11.843 0 23.31.755 34.387 2.265 41.117 5.604 74.951 21.43 100.563 47.043 25.61 25.61 41.437 59.444 47.041 100.563 5.399 39.597 1.131 84.255-12.684 132.734a484.209 484.209 0 0 1-3.389 11.349c-6.43 20.625-14.424 41.434-23.869 62.258-.481 1.06-.973 2.132-1.459 3.191-8.009 17.383-17.022 34.761-26.986 52.056a706.472 706.472 0 0 1-16.439 27.099 740.308 740.308 0 0 1-12.989 19.681c-.609.893-1.225 1.794-1.84 2.687a780.642 780.642 0 0 1-14.831 20.784 810.918 810.918 0 0 1-12.902 16.996l-1.945 2.482c-.072.087-.141.177-.21.264z"/></mask><path d="M195.255 791.208c-11.843 0-23.309-.752-34.384-2.262-41.12-5.604-74.957-21.431-100.564-47.043-25.612-25.61-41.441-59.446-47.045-100.563-5.395-39.599-1.129-84.258 12.684-132.737a488.24 488.24 0 0 1 4.47-14.772c6.546-20.461 14.617-41.091 24.113-61.732a404.65 404.65 0 0 1 1.474-3.175c8.048-17.232 17.091-34.472 27.056-51.606a707.804 707.804 0 0 1 16.472-26.917 749.182 749.182 0 0 1 12.968-19.507c.612-.891 1.228-1.781 1.845-2.674a787.587 787.587 0 0 1 12.941-18.092c.634-.86 1.264-1.709 1.901-2.569a802.501 802.501 0 0 1 13.619-17.8 281.34 281.34 0 0 0-4.601 11.009 797.275 797.275 0 0 0-5.924 7.868c-.635.852-1.275 1.715-1.904 2.567a784.946 784.946 0 0 0-12.779 17.854c-.622.895-1.234 1.781-1.851 2.674a759.652 759.652 0 0 0-14.606 22.037 723.191 723.191 0 0 0-14.565 23.854 681.219 681.219 0 0 0-12.77 22.857 550.754 550.754 0 0 0-1.611 3.045 634.598 634.598 0 0 0-12.529 25.108 553.672 553.672 0 0 0-1.484 3.176c-9.578 20.635-17.651 41.073-24.164 61.119-.371 1.137-.74 2.288-1.098 3.422C1.281 596.234 8.674 685.955 62.465 739.746c25.128 25.128 58.374 40.666 98.817 46.175 10.937 1.492 22.276 2.237 33.978 2.237 22.948.003 47.307-2.861 72.883-8.565a441.344 441.344 0 0 0 24.625-6.266c15.125-4.31 30.364-9.479 45.656-15.467 1.1-.432 2.211-.87 3.311-1.31 18.657-7.444 37.371-16.098 56.038-25.888a670.38 670.38 0 0 0 28.916-16.099 704.04 704.04 0 0 0 23.798-14.66 749.143 749.143 0 0 0 21.991-14.703 777.987 777.987 0 0 0 20.461-14.706 772.051 772.051 0 0 0 8.69-6.554 277.1 277.1 0 0 0 10.751-4.483 798.594 798.594 0 0 1-20.968 15.958A779.435 779.435 0 0 1 470.6 690.2a747.746 747.746 0 0 1-22.36 14.755 709.215 709.215 0 0 1-21.27 12.978 673.836 673.836 0 0 1-29.194 16.168c-18.862 9.834-37.78 18.516-56.627 25.965-1.1.433-2.208.868-3.309 1.295-14.816 5.745-29.578 10.722-44.236 14.901a445.163 445.163 0 0 1-23.127 5.931c-.875.2-1.745.394-2.618.586-25.448 5.614-49.717 8.429-72.604 8.429zm319.627-133.726l-.307-.679c.921-.419 1.84-.844 2.756-1.271-.811.647-1.635 1.305-2.449 1.95zM655.4 516.452a275.728 275.728 0 0 0 3.421-8.056l-.767-.312a819.923 819.923 0 0 0 9.373-12.403c.632-.855 1.269-1.722 1.899-2.58a773.416 773.416 0 0 0 14.647-20.648 744.833 744.833 0 0 0 14.65-22.229 707.513 707.513 0 0 0 14.565-24.031 673.902 673.902 0 0 0 14.113-25.645 617.595 617.595 0 0 0 14.21-29.029c9.424-20.622 17.421-41.234 23.882-61.664a488.75 488.75 0 0 0 3.933-13.084c13.698-48.072 17.938-92.311 12.597-131.488-5.514-40.444-21.052-73.69-46.178-98.818-25.131-25.129-58.379-40.666-98.818-46.178-10.942-1.492-22.275-2.237-33.98-2.237-24.043 0-49.643 3.143-76.56 9.404a447.925 447.925 0 0 0-20.947 5.428c-16.157 4.603-32.458 10.195-48.802 16.71-1.1.44-2.198.88-3.298 1.328-17.662 7.172-35.375 15.427-53.041 24.696-1.014.534-2.032 1.07-3.048 1.61a670.97 670.97 0 0 0-25.249 14.135c-.97.568-1.94 1.144-2.907 1.717a712.879 712.879 0 0 0-23.598 14.662 745.576 745.576 0 0 0-21.838 14.712 765.886 765.886 0 0 0-17.756 12.792c-.855.634-1.707 1.269-2.562 1.906a843.99 843.99 0 0 0-6.758 5.113 281.626 281.626 0 0 0-10.758 4.488 807.85 807.85 0 0 1 19.013-14.511 784.293 784.293 0 0 1 20.661-14.778 744.783 744.783 0 0 1 22.206-14.768 719.708 719.708 0 0 1 21.08-12.976l2.907-1.71a676.489 676.489 0 0 1 28.604-15.829c17.854-9.314 35.753-17.592 53.602-24.773 1.098-.442 2.195-.88 3.293-1.315 15.881-6.272 31.71-11.669 47.412-16.142a443.534 443.534 0 0 1 22.918-5.885C554 18.03 579.218 15 602.952 15c11.843 0 23.31.755 34.387 2.265 41.117 5.604 74.951 21.43 100.563 47.043 25.61 25.61 41.437 59.444 47.041 100.563 5.399 39.597 1.131 84.255-12.684 132.734a484.209 484.209 0 0 1-3.389 11.349c-6.43 20.625-14.424 41.434-23.869 62.258-.481 1.06-.973 2.132-1.459 3.191-8.009 17.383-17.022 34.761-26.986 52.056a706.472 706.472 0 0 1-16.439 27.099 740.308 740.308 0 0 1-12.989 19.681c-.609.893-1.225 1.794-1.84 2.687a780.642 780.642 0 0 1-14.831 20.784 810.918 810.918 0 0 1-12.902 16.996l-1.945 2.482c-.072.087-.141.177-.21.264z" stroke="#C7AB77" stroke-width=".512" mask="url(#a)"/><g opacity=".3"><mask id="b" style="mask-type:luminance" maskUnits="userSpaceOnUse" x="174" y="161" width="36" height="38"><path d="M175.627 163.826l31.806 33.832c.496-.471.993-.94 1.493-1.406l-31.803-33.828a1.024 1.024 0 0 0-1.447-.047l-.002.002a1.022 1.022 0 0 0-.047 1.447z" stroke="#fff"/></mask><g mask="url(#b)"><path d="M175.627 163.826l31.806 33.832c.496-.471.993-.94 1.493-1.406l-31.803-33.828a1.024 1.024 0 0 0-1.447-.047l-.002.002a1.022 1.022 0 0 0-.047 1.447z" stroke="#C7AB77"/></g></g><g opacity=".3"><mask id="c" style="mask-type:luminance" maskUnits="userSpaceOnUse" x="149" y="86" width="79" height="98"><path d="M224.952 182.367a249.23 249.23 0 0 1 1.603-1.278l-74.488-93.694h-.001a1.016 1.016 0 0 0-.8-.387c-.222 0-.447.074-.639.225a1.022 1.022 0 0 0-.162 1.44v.001l74.487 93.693z" stroke="#fff"/></mask><g mask="url(#c)"><path d="M224.952 182.367a249.23 249.23 0 0 1 1.603-1.278l-74.488-93.694h-.001a1.016 1.016 0 0 0-.8-.387c-.222 0-.447.074-.639.225a1.022 1.022 0 0 0-.162 1.44v.001l74.487 93.693z" stroke="#C7AB77"/></g></g><g opacity=".3"><mask id="d" style="mask-type:luminance" maskUnits="userSpaceOnUse" x="217" y="127" width="30" height="43"><path d="M243.681 168.571c.566-.383 1.133-.763 1.702-1.141l-25.763-38.575-.001-.001a1.035 1.035 0 0 0-1.423-.286c-.47.319-.594.955-.281 1.422v.001l25.766 38.58z" stroke="#fff"/></mask><g mask="url(#d)"><path d="M243.681 168.571c.566-.383 1.133-.763 1.702-1.141l-25.763-38.575-.001-.001a1.035 1.035 0 0 0-1.423-.286c-.47.319-.594.955-.281 1.422v.001l25.766 38.58z" stroke="#C7AB77"/></g></g><g opacity=".3"><mask id="e" style="mask-type:luminance" maskUnits="userSpaceOnUse" x="204" y="49" width="62" height="110"><path d="M263.492 156.375c.596-.334 1.194-.665 1.794-.994L207.302 50.72l-.001-.002a1.032 1.032 0 0 0-1.396-.4c-.496.275-.673.9-.399 1.391l.001.001 57.985 104.665z" stroke="#fff"/></mask><g mask="url(#e)"><path d="M263.492 156.375c.596-.334 1.194-.665 1.794-.994L207.302 50.72l-.001-.002a1.032 1.032 0 0 0-1.396-.4c-.496.275-.673.9-.399 1.391l.001.001 57.985 104.665z" stroke="#C7AB77"/></g></g><g opacity=".3"><mask id="f" style="mask-type:luminance" maskUnits="userSpaceOnUse" x="264" y="101" width="23" height="46"><path d="M284.242 145.872c.621-.283 1.244-.563 1.869-.841l-19.034-42.276v-.001a1.027 1.027 0 0 0-1.353-.514l-.002.001a1.027 1.027 0 0 0-.514 1.358l19.034 42.273z" stroke="#fff"/></mask><g mask="url(#f)"><path d="M284.242 145.872c.621-.283 1.244-.563 1.869-.841l-19.034-42.276v-.001a1.027 1.027 0 0 0-1.353-.514l-.002.001a1.027 1.027 0 0 0-.514 1.358l19.034 42.273z" stroke="#C7AB77"/></g></g><g opacity=".3"><mask id="g" style="mask-type:luminance" maskUnits="userSpaceOnUse" x="265" y="22" width="44" height="117"><path d="M305.805 137.131c.644-.231 1.289-.458 1.934-.682l-.725-2.048c-.574.426-1.147.853-1.721 1.282l.512 1.448zM265.888 24.339l37.991 107.348a635.95 635.95 0 0 1 1.721-1.278L267.822 23.658h-.001a1.03 1.03 0 0 0-1.309-.625h-.001a1.02 1.02 0 0 0-.623 1.306z" stroke="#fff"/></mask><g mask="url(#g)"><path d="M305.805 137.131c.644-.231 1.289-.458 1.934-.682l-.725-2.048c-.574.426-1.147.853-1.721 1.282l.512 1.448zM265.888 24.339l37.991 107.348a635.95 635.95 0 0 1 1.721-1.278L267.822 23.658h-.001a1.03 1.03 0 0 0-1.309-.625h-.001a1.02 1.02 0 0 0-.623 1.306z" stroke="#C7AB77"/></g></g><g opacity=".3"><mask id="h" style="mask-type:luminance" maskUnits="userSpaceOnUse" x="315" y="83" width="16" height="48"><path d="M316.21 85.368l8.28 31.477a836.94 836.94 0 0 1 1.793-1.243l-8.092-30.757-.001-.002a1.019 1.019 0 0 0-.984-.764.969.969 0 0 0-.259.036l-.007.001a1.022 1.022 0 0 0-.73 1.252zm11.17 34.397c-.597.415-1.195.831-1.792 1.248l2.424 9.214c.661-.176 1.322-.348 1.983-.519l-2.615-9.943z" stroke="#fff"/></mask><g mask="url(#h)"><path d="M316.21 85.368l8.28 31.477a836.94 836.94 0 0 1 1.793-1.243l-8.092-30.757-.001-.002a1.019 1.019 0 0 0-.984-.764.969.969 0 0 0-.259.036l-.007.001a1.022 1.022 0 0 0-.73 1.252zm11.17 34.397c-.597.415-1.195.831-1.792 1.248l2.424 9.214c.661-.176 1.322-.348 1.983-.519l-2.615-9.943z" stroke="#C7AB77"/></g></g><g opacity=".3"><mask id="i" style="mask-type:luminance" maskUnits="userSpaceOnUse" x="329" y="5" width="25" height="123"><path d="M351.689 125.013l.492-.085.086.491.177 1.011.563-.097-3.736-21.209c-.624.401-1.248.804-1.87 1.207l3.32 18.853c.323-.058.645-.115.968-.171zM331.975 6.953a1.028 1.028 0 0 0-1.19-.835c-.556.098-.93.632-.832 1.189l16.684 94.699c.624-.402 1.25-.804 1.872-1.202l-16.534-93.85z" stroke="#fff"/></mask><g mask="url(#i)"><path d="M351.689 125.013l.492-.085.086.491.177 1.011.563-.097-3.736-21.209c-.624.401-1.248.804-1.87 1.207l3.32 18.853c.323-.058.645-.115.968-.171zM331.975 6.953a1.028 1.028 0 0 0-1.19-.835c-.556.098-.93.632-.832 1.189l16.684 94.699c.624-.402 1.25-.804 1.872-1.202l-16.534-93.85z" stroke="#C7AB77"/></g></g><g opacity=".3"><mask id="j" style="mask-type:luminance" maskUnits="userSpaceOnUse" x="369" y="74" width="8" height="49"><path d="M370.45 74.687h-.007c-.564.052-.979.55-.927 1.115l1.049 11.436c.651-.384 1.305-.768 1.954-1.149l-.959-10.473a1.034 1.034 0 0 0-1.11-.93zm.603 16.965l-.078.046 2.784 30.34c.681-.066 1.362-.128 2.042-.188l-2.872-31.308-1.876 1.11z" stroke="#fff"/></mask><g mask="url(#j)"><path d="M370.45 74.687h-.007c-.564.052-.979.55-.927 1.115l1.049 11.436c.651-.384 1.305-.768 1.954-1.149l-.959-10.473a1.034 1.034 0 0 0-1.11-.93zm.603 16.965l-.078.046 2.784 30.34c.681-.066 1.362-.128 2.042-.188l-2.872-31.308-1.876 1.11z" stroke="#C7AB77"/></g></g><g opacity=".3"><mask id="k" style="mask-type:luminance" maskUnits="userSpaceOnUse" x="398" y="-1" width="4" height="123"><path d="M399.037 1.07l.066 70.232c.682-.36 1.367-.718 2.048-1.074l-.064-69.159c0-.568-.458-1.026-1.025-1.026-.568 0-1.027.46-1.025 1.027zm1.96 73.809c-.63.332-1.261.664-1.891.998l.043 44.881a241.727 241.727 0 0 1 2.05-.006l-.044-45.956-.158.083z" stroke="#fff"/></mask><g mask="url(#k)"><path d="M399.037 1.07l.066 70.232c.682-.36 1.367-.718 2.048-1.074l-.064-69.159c0-.568-.458-1.026-1.025-1.026-.568 0-1.027.46-1.025 1.027zm1.96 73.809c-.63.332-1.261.664-1.891.998l.043 44.881a241.727 241.727 0 0 1 2.05-.006l-.044-45.956-.158.083z" stroke="#C7AB77"/></g></g><g opacity=".3"><mask id="l" style="mask-type:luminance" maskUnits="userSpaceOnUse" x="419" y="73" width="8" height="50"><path d="M420.231 121.426c.681.048 1.362.098 2.043.15l3.443-46.26a1.023 1.023 0 0 0-1.019-1.1c-.529 0-.987.412-1.026.949h-.001l-3.44 46.261z" stroke="#fff"/></mask><g mask="url(#l)"><path d="M420.231 121.426c.681.048 1.362.098 2.043.15l3.443-46.26a1.023 1.023 0 0 0-1.019-1.1c-.529 0-.987.412-1.026.949h-.001l-3.44 46.261z" stroke="#C7AB77"/></g></g><g opacity=".3"><mask id="m" style="mask-type:luminance" maskUnits="userSpaceOnUse" x="442" y="4" width="23" height="121"><path d="M462.084 5.828v.001l-6.201 39.135c.738-.296 1.475-.59 2.213-.882l6.012-37.933a1.024 1.024 0 0 0-.852-1.17h-.003a1.027 1.027 0 0 0-1.169.85zm-16.7 118.493l11.977-75.587c-.74.296-1.478.593-2.217.894l-11.784 74.374c.674.103 1.349.21 2.024.319z" stroke="#fff"/></mask><g mask="url(#m)"><path d="M462.084 5.828v.001l-6.201 39.135c.738-.296 1.475-.59 2.213-.882l6.012-37.933a1.024 1.024 0 0 0-.852-1.17h-.003a1.027 1.027 0 0 0-1.169.85zm-16.7 118.493l11.977-75.587c-.74.296-1.478.593-2.217.894l-11.784 74.374c.674.103 1.349.21 2.024.319z" stroke="#C7AB77"/></g></g><g opacity=".3"><mask id="n" style="mask-type:luminance" maskUnits="userSpaceOnUse" x="465" y="82" width="15" height="50"><path d="M465.814 129.971l11.378-46.496a1.027 1.027 0 0 1 1.243-.754c.549.138.883.69.749 1.24l-13.37 46.01zm0 0c.664.159 1.329.321 1.992.486l11.378-46.495-13.37 46.009z" stroke="#fff"/></mask><g mask="url(#n)"><path d="M465.814 129.971l11.378-46.496a1.027 1.027 0 0 1 1.243-.754c.549.138.883.69.749 1.24l-13.37 46.01zm0 0c.664.159 1.329.321 1.992.486l11.378-46.495-13.37 46.009z" stroke="#C7AB77"/></g></g><g opacity=".3"><mask id="o" style="mask-type:luminance" maskUnits="userSpaceOnUse" x="487" y="20" width="43" height="117"><path d="M526.983 26.497c-.783.184-1.565.37-2.351.56l-36.077 107.818c.648.214 1.297.431 1.944.651l36.484-109.029zm-.467-5.07l-.37 1.107c.781-.184 1.562-.365 2.34-.543a1.022 1.022 0 0 0-.996-1.266c-.43 0-.829.272-.974.7v.001z" stroke="#fff"/></mask><g mask="url(#o)"><path d="M526.983 26.497c-.783.184-1.565.37-2.351.56l-36.077 107.818c.648.214 1.297.431 1.944.651l36.484-109.029zm-.467-5.07l-.37 1.107c.781-.184 1.562-.365 2.34-.543a1.022 1.022 0 0 0-.996-1.266c-.43 0-.829.272-.974.7v.001z" stroke="#C7AB77"/></g></g><g opacity=".3"><mask id="p" style="mask-type:luminance" maskUnits="userSpaceOnUse" x="509" y="99" width="23" height="47"><path d="M512.185 143.899l.006.003 18.298-42.593a1.024 1.024 0 0 0-.536-1.347l-.005-.002a1.021 1.021 0 0 0-1.339.537l-.001.001-18.902 43.994c.471.201.943.403 1.413.606l.409-.94.2-.457.457.198z" stroke="#fff"/></mask><g mask="url(#p)"><path d="M512.185 143.899l.006.003 18.298-42.593a1.024 1.024 0 0 0-.536-1.347l-.005-.002a1.021 1.021 0 0 0-1.339.537l-.001.001-18.902 43.994c.471.201.943.403 1.413.606l.409-.94.2-.457.457.198z" stroke="#C7AB77"/></g></g><g opacity=".3"><mask id="q" style="mask-type:luminance" maskUnits="userSpaceOnUse" x="530" y="46" width="60" height="109"><path d="M531.319 153.099l56.179-105.66-56.179 105.66zm0 0c.604.319 1.207.641 1.81.965l56.178-105.662a1.022 1.022 0 0 0-.902-1.507c-.37 0-.723.198-.907.543L531.319 153.1z" stroke="#fff"/></mask><g mask="url(#q)"><path d="M531.319 153.099l56.179-105.66-56.179 105.66zm0 0c.604.319 1.207.641 1.81.965l56.178-105.662a1.022 1.022 0 0 0-.902-1.507c-.37 0-.723.198-.907.543L531.319 153.1z" stroke="#C7AB77"/></g></g><g opacity=".3"><mask id="r" style="mask-type:luminance" maskUnits="userSpaceOnUse" x="550" y="124" width="29" height="43"><path d="M576.506 125.774l-25.097 39.021c.577.367 1.152.737 1.726 1.109l25.096-39.019a1.026 1.026 0 1 0-1.725-1.111z" stroke="#fff"/></mask><g mask="url(#r)"><path d="M576.506 125.774l-25.097 39.021c.577.367 1.152.737 1.726 1.109l25.096-39.019a1.026 1.026 0 1 0-1.725-1.111z" stroke="#C7AB77"/></g></g><g opacity=".3"><mask id="s" style="mask-type:luminance" maskUnits="userSpaceOnUse" x="569" y="82" width="77" height="99"><path d="M643.349 83.157l-.001.001-72.859 94.965c.543.414 1.085.83 1.626 1.249l72.861-94.967a1.026 1.026 0 0 0-.814-1.65c-.308 0-.612.14-.813.402z" stroke="#fff"/></mask><g mask="url(#s)"><path d="M643.349 83.157l-.001.001-72.859 94.965c.543.414 1.085.83 1.626 1.249l72.861-94.967a1.026 1.026 0 0 0-.814-1.65c-.308 0-.612.14-.813.402z" stroke="#C7AB77"/></g></g><g opacity=".3"><mask id="t" style="mask-type:luminance" maskUnits="userSpaceOnUse" x="587" y="157" width="35" height="39"><path d="M588.382 192.957c.508.457 1.014.918 1.518 1.378l31.197-34.351.001-.001a1.023 1.023 0 0 0-.759-1.714c-.28 0-.558.114-.761.338l-31.196 34.35z" stroke="#fff"/></mask><g mask="url(#t)"><path d="M588.382 192.957c.508.457 1.014.918 1.518 1.378l31.197-34.351.001-.001a1.023 1.023 0 0 0-.759-1.714c-.28 0-.558.114-.761.338l-31.196 34.35z" stroke="#C7AB77"/></g></g><g opacity=".3"><mask id="u" style="mask-type:luminance" maskUnits="userSpaceOnUse" x="603" y="126" width="92" height="86"><path d="M692.538 127.605l-87.523 81.633.282.298c.375.397.748.797 1.119 1.198l87.521-81.632.001-.001a1.024 1.024 0 1 0-1.399-1.496h-.001z" stroke="#fff"/></mask><g mask="url(#u)"><path d="M692.538 127.605l-87.523 81.633.282.298c.375.397.748.797 1.119 1.198l87.521-81.632.001-.001a1.024 1.024 0 1 0-1.399-1.496h-.001z" stroke="#C7AB77"/></g></g><g opacity=".3"><mask id="v" style="mask-type:luminance" maskUnits="userSpaceOnUse" x="619" y="197" width="40" height="33"><path d="M656.644 198.096h.001a1.024 1.024 0 0 1 1.439.171l-1.44-.171zm0 0l-36.412 28.712m36.412-28.712l-36.412 28.712m0 0c.425.535.849 1.07 1.271 1.608l36.41-28.71c.445-.351.521-.997.172-1.439l-37.853 28.541z" stroke="#fff"/></mask><g mask="url(#v)"><path d="M656.644 198.096h.001a1.024 1.024 0 0 1 1.439.171l-1.44-.171zm0 0l-36.412 28.712m36.412-28.712l-36.412 28.712m0 0c.425.535.849 1.07 1.271 1.608l36.41-28.71c.445-.351.521-.997.172-1.439l-37.853 28.541z" stroke="#C7AB77"/></g></g><g opacity=".3"><mask id="w" style="mask-type:luminance" maskUnits="userSpaceOnUse" x="633" y="178" width="103" height="71"><path d="M735.143 179.845l-.001-.001a1.018 1.018 0 0 0-.854-.456 1.04 1.04 0 0 0-.568.169l-99.756 66.048c.38.568.758 1.138 1.134 1.708l99.755-66.044v-.001c.475-.316.603-.951.29-1.423z" stroke="#fff"/></mask><g mask="url(#w)"><path d="M735.143 179.845l-.001-.001a1.018 1.018 0 0 0-.854-.456 1.04 1.04 0 0 0-.568.169l-99.756 66.048c.38.568.758 1.138 1.134 1.708l99.755-66.044v-.001c.475-.316.603-.951.29-1.423z" stroke="#C7AB77"/></g></g><g opacity=".3"><mask id="x" style="mask-type:luminance" maskUnits="userSpaceOnUse" x="645" y="242" width="44" height="26"><path d="M646.072 265.45c.333.598.661 1.197.988 1.798l40.609-22.289.001-.001a1.025 1.025 0 1 0-.984-1.798l-.002.001-40.612 22.289z" stroke="#fff"/></mask><g mask="url(#x)"><path d="M646.072 265.45c.333.598.661 1.197.988 1.798l40.609-22.289.001-.001a1.025 1.025 0 1 0-.984-1.798l-.002.001-40.612 22.289z" stroke="#C7AB77"/></g></g><g opacity=".3"><mask id="y" style="mask-type:luminance" maskUnits="userSpaceOnUse" x="655" y="237" width="113" height="53"><path d="M656.506 286.262c.202.449.402.897.601 1.347l.202.456-.456.203-.937.417.017.038.015.034 110.655-49.29a1.026 1.026 0 0 0-.833-1.877l-.001.001-109.263 48.671z" stroke="#fff"/></mask><g mask="url(#y)"><path d="M656.506 286.262c.202.449.402.897.601 1.347l.202.456-.456.203-.937.417.017.038.015.034 110.655-49.29a1.026 1.026 0 0 0-.833-1.877l-.001.001-109.263 48.671z" stroke="#C7AB77"/></g></g><g opacity=".3"><mask id="z" style="mask-type:luminance" maskUnits="userSpaceOnUse" x="664" y="292" width="47" height="19"><path d="M665.152 307.844c.228.646.452 1.291.674 1.937l43.726-15.28h.001a1.025 1.025 0 0 0-.675-1.935l-.002.001-43.724 15.277z" stroke="#fff"/></mask><g mask="url(#z)"><path d="M665.152 307.844c.228.646.452 1.291.674 1.937l43.726-15.28h.001a1.025 1.025 0 0 0-.675-1.935l-.002.001-43.724 15.277z" stroke="#C7AB77"/></g></g><g opacity=".3"><mask id="A" style="mask-type:luminance" maskUnits="userSpaceOnUse" x="671" y="299" width="119" height="34"><path d="M770.971 306.596c.238-.768.474-1.533.709-2.304l16.12-4.172.003-.001a1.026 1.026 0 0 1 .51 1.988l-17.342 4.489zm0 0l17.341-4.488-17.341 4.488zm-3.895-1.111l-95.098 24.618c.173.661.343 1.322.511 1.984l93.866-24.296c.242-.767.483-1.538.721-2.306z" stroke="#fff"/></mask><g mask="url(#A)"><path d="M770.971 306.596c.238-.768.474-1.533.709-2.304l16.12-4.172.003-.001a1.026 1.026 0 0 1 .51 1.988l-17.342 4.489zm0 0l17.341-4.488-17.341 4.488zm-3.895-1.111l-95.098 24.618c.173.661.343 1.322.511 1.984l93.866-24.296c.242-.767.483-1.538.721-2.306z" stroke="#C7AB77"/></g></g><g opacity=".3"><mask id="B" style="mask-type:luminance" maskUnits="userSpaceOnUse" x="676" y="344" width="49" height="12"><path d="M676.919 352.816c.118.673.233 1.347.346 2.021l45.696-7.863h.001a1.02 1.02 0 0 0 .834-1.182v-.001a1.028 1.028 0 0 0-1.192-.837l-45.685 7.862z" stroke="#fff"/></mask><g mask="url(#B)"><path d="M676.919 352.816c.118.673.233 1.347.346 2.021l45.696-7.863h.001a1.02 1.02 0 0 0 .834-1.182v-.001a1.028 1.028 0 0 0-1.192-.837l-45.685 7.862z" stroke="#C7AB77"/></g></g><g opacity=".3"><mask id="C" style="mask-type:luminance" maskUnits="userSpaceOnUse" x="679" y="364" width="122" height="15"><path d="M679.982 375.89c.062.681.122 1.363.179 2.044l60.902-5.345.99-2.145-62.071 5.446zm66.708-5.854c-.324.713-.652 1.431-.98 2.145l53.676-4.71c.564-.05.981-.546.933-1.111a1.038 1.038 0 0 0-1.115-.932l-52.514 4.608z" stroke="#fff"/></mask><g mask="url(#C)"><path d="M679.982 375.89c.062.681.122 1.363.179 2.044l60.902-5.345.99-2.145-62.071 5.446zm66.708-5.854c-.324.713-.652 1.431-.98 2.145l53.676-4.71c.564-.05.981-.546.933-1.111a1.038 1.038 0 0 0-1.115-.932l-52.514 4.608z" stroke="#C7AB77"/></g></g><g opacity=".3"><mask id="D" style="mask-type:luminance" maskUnits="userSpaceOnUse" x="679" y="398" width="50" height="4"><path d="M727.514 398.893l-46.367.215v.33l-.495.005-1.023.01c.004.569.007 1.142.008 1.71l47.383-.219c.337-.641.672-1.278 1.006-1.919a1.018 1.018 0 0 0-.504-.132h-.008z" stroke="#fff"/></mask><g mask="url(#D)"><path d="M727.514 398.893l-46.367.215v.33l-.495.005-1.023.01c.004.569.007 1.142.008 1.71l47.383-.219c.337-.641.672-1.278 1.006-1.919a1.018 1.018 0 0 0-.504-.132h-.008z" stroke="#C7AB77"/></g></g><g opacity=".3"><mask id="E" style="mask-type:luminance" maskUnits="userSpaceOnUse" x="679" y="421" width="123" height="14"><path d="M800.624 432.825l.001-.002a1.022 1.022 0 0 0-.941-1.101l-81.499-6.388c-.378.654-.758 1.31-1.139 1.965l82.469 6.465.102.005a1.022 1.022 0 0 0 1.007-.944zm-86.913-7.844l-33.308-2.611c-.05.683-.103 1.364-.157 2.045l32.318 2.534c.386-.659.766-1.311 1.147-1.968z" stroke="#fff"/></mask><g mask="url(#E)"><path d="M800.624 432.825l.001-.002a1.022 1.022 0 0 0-.941-1.101l-81.499-6.388c-.378.654-.758 1.31-1.139 1.965l82.469 6.465.102.005a1.022 1.022 0 0 0 1.007-.944zm-86.913-7.844l-33.308-2.611c-.05.683-.103 1.364-.157 2.045l32.318 2.534c.386-.659.766-1.311 1.147-1.968z" stroke="#C7AB77"/></g></g><g opacity=".3"><mask id="F" style="mask-type:luminance" maskUnits="userSpaceOnUse" x="675" y="444" width="50" height="12"><path d="M723.452 452.9h-.001l-19.958-3.246c-.398.63-.795 1.256-1.194 1.884l20.804 3.381.204.017c.485-.009.91-.364.989-.861l.001-.001a1.02 1.02 0 0 0-.845-1.174zm-47.219-7.676c-.1.638-.202 1.273-.306 1.909l1.009.169.509.085-.021.107 20.524 3.337c.401-.626.802-1.255 1.2-1.883l-22.915-3.724z" stroke="#fff"/></mask><g mask="url(#F)"><path d="M723.452 452.9h-.001l-19.958-3.246c-.398.63-.795 1.256-1.194 1.884l20.804 3.381.204.017c.485-.009.91-.364.989-.861l.001-.001a1.02 1.02 0 0 0-.845-1.174zm-47.219-7.676c-.1.638-.202 1.273-.306 1.909l1.009.169.509.085-.021.107 20.524 3.337c.401-.626.802-1.255 1.2-1.883l-22.915-3.724z" stroke="#C7AB77"/></g></g><g opacity=".3"><mask id="G" style="mask-type:luminance" maskUnits="userSpaceOnUse" x="672" y="467" width="119" height="33"><path d="M789.22 497.187l-.001-.001L688.7 472.16c-.411.601-.824 1.205-1.237 1.806l101.23 25.203.303.036c.452-.012.855-.319.97-.777v-.001a1.023 1.023 0 0 0-.746-1.24zm-104.712-26.071l-11.358-2.826c-.162.663-.328 1.327-.495 1.99l10.611 2.641c.415-.601.829-1.203 1.242-1.805z" stroke="#fff"/></mask><g mask="url(#G)"><path d="M789.22 497.187l-.001-.001L688.7 472.16c-.411.601-.824 1.205-1.237 1.806l101.23 25.203.303.036c.452-.012.855-.319.97-.777v-.001a1.023 1.023 0 0 0-.746-1.24zm-104.712-26.071l-11.358-2.826c-.162.663-.328 1.327-.495 1.99l10.611 2.641c.415-.601.829-1.203 1.242-1.805z" stroke="#C7AB77"/></g></g><g opacity=".3"><mask id="H" style="mask-type:luminance" maskUnits="userSpaceOnUse" x="665" y="489" width="47" height="19"><path d="M672.619 494.807l37.217 12.616.403.068c.413-.016.795-.284.935-.696a1.028 1.028 0 0 0-.644-1.301l-36.637-12.421a957.52 957.52 0 0 1-1.274 1.734zm-2.747-3.1l-3.19-1.081c-.218.648-.438 1.296-.66 1.943l2.573.872c.425-.575.852-1.156 1.277-1.734z" stroke="#fff"/></mask><g mask="url(#H)"><path d="M672.619 494.807l37.217 12.616.403.068c.413-.016.795-.284.935-.696a1.028 1.028 0 0 0-.644-1.301l-36.637-12.421a957.52 957.52 0 0 1-1.274 1.734zm-2.747-3.1l-3.19-1.081c-.218.648-.438 1.296-.66 1.943l2.573.872c.425-.575.852-1.156 1.277-1.734z" stroke="#C7AB77"/></g></g><g opacity=".3"><mask id="I" style="mask-type:luminance" maskUnits="userSpaceOnUse" x="656" y="512" width="114" height="51"><path d="M768.094 560.027h-.001l-109.026-47.358-.734.937-.574.732 109.47 47.548.501.104c.379-.017.733-.245.895-.618l.001-.001a1.022 1.022 0 0 0-.532-1.344z" stroke="#fff"/></mask><g mask="url(#I)"><path d="M768.094 560.027h-.001l-109.026-47.358-.734.937-.574.732 109.47 47.548.501.104c.379-.017.733-.245.895-.618l.001-.001a1.022 1.022 0 0 0-.532-1.344z" stroke="#C7AB77"/></g></g><g opacity=".3"><mask id="J" style="mask-type:luminance" maskUnits="userSpaceOnUse" x="646" y="532" width="45" height="26"><path d="M689.113 555.24l-.001-.001-40.829-21.918c-.321.603-.644 1.205-.969 1.806l40.826 21.917.001.001a1.025 1.025 0 0 0 1.389-.42v-.001a1.02 1.02 0 0 0-.417-1.384z" stroke="#fff"/></mask><g mask="url(#J)"><path d="M689.113 555.24l-.001-.001-40.829-21.918c-.321.603-.644 1.205-.969 1.806l40.826 21.917.001.001a1.025 1.025 0 0 0 1.389-.42v-.001a1.02 1.02 0 0 0-.417-1.384z" stroke="#C7AB77"/></g></g><g opacity=".3"><mask id="K" style="mask-type:luminance" maskUnits="userSpaceOnUse" x="634" y="551" width="104" height="70"><path d="M735.772 620.238l.002.002a1.028 1.028 0 0 0 1.415-.302 1.024 1.024 0 0 0-.303-1.419v-.001l-101.669-65.964-.188.291.861.559.419.273-.273.419c-.218.337-.437.672-.657 1.007l100.393 65.135z" stroke="#fff"/></mask><g mask="url(#K)"><path d="M735.772 620.238l.002.002a1.028 1.028 0 0 0 1.415-.302 1.024 1.024 0 0 0-.303-1.419v-.001l-101.669-65.964-.188.291.861.559.419.273-.273.419c-.218.337-.437.672-.657 1.007l100.393 65.135z" stroke="#C7AB77"/></g></g><g opacity=".3"><mask id="L" style="mask-type:luminance" maskUnits="userSpaceOnUse" x="621" y="571" width="40" height="33"><path d="M658.519 602.385l.001.001c.186.145.405.215.624.215a1.027 1.027 0 0 0 .629-1.837l-.001-.001-36.678-28.372c-.416.542-.835 1.083-1.255 1.621l36.68 28.373z" stroke="#fff"/></mask><g mask="url(#L)"><path d="M658.519 602.385l.001.001c.186.145.405.215.624.215a1.027 1.027 0 0 0 .629-1.837l-.001-.001-36.678-28.372c-.416.542-.835 1.083-1.255 1.621l36.68 28.373z" stroke="#C7AB77"/></g></g><g opacity=".3"><mask id="M" style="mask-type:luminance" maskUnits="userSpaceOnUse" x="606" y="589" width="92" height="85"><path d="M695.072 672.573l-88.278-80.817c.464-.503.926-1.007 1.387-1.514l88.278 80.817-1.387 1.514zm0 0a1.029 1.029 0 0 0 1.451-.063 1.03 1.03 0 0 0-.063-1.451l-1.388 1.514z" stroke="#fff"/></mask><g mask="url(#M)"><path d="M695.072 672.573l-88.278-80.817c.464-.503.926-1.007 1.387-1.514l88.278 80.817-1.387 1.514zm0 0a1.029 1.029 0 0 0 1.451-.063 1.03 1.03 0 0 0-.063-1.451l-1.388 1.514z" stroke="#C7AB77"/></g></g><g opacity=".3"><mask id="N" style="mask-type:luminance" maskUnits="userSpaceOnUse" x="589" y="606" width="36" height="38"><path d="M591.84 606.796c-.5.467-1.001.93-1.503 1.393l31.486 34.028a1.023 1.023 0 0 0 1.448.058h.001a1.023 1.023 0 0 0 .056-1.447l-.002-.001-31.486-34.031z" stroke="#fff"/></mask><g mask="url(#N)"><path d="M591.84 606.796c-.5.467-1.001.93-1.503 1.393l31.486 34.028a1.023 1.023 0 0 0 1.448.058h.001a1.023 1.023 0 0 0 .056-1.447l-.002-.001-31.486-34.031z" stroke="#C7AB77"/></g></g><g opacity=".3"><mask id="O" style="mask-type:luminance" maskUnits="userSpaceOnUse" x="570" y="621" width="79" height="98"><path d="M646.294 717.473l-.001-.002-73.715-94.253.056-.044a219.58 219.58 0 0 0 1.56-1.221l73.716 94.256-1.616 1.264zm0 0c.199.257.5.392.808.392m-.808-.392l.808.392m-75.771-96.242l-.002-.001-.393.308.395-.307zm0 0l.036-.028.024-.018.307.394.629.808m-.996-1.156l-.789.615-.311-.398.4-.307c.144-.11.285-.22.428-.332l.024-.019.395-.307.307.394.63.809m-.088.701l-.306-.395.394-.306m-.088.701c.521-.404 1.041-.81 1.558-1.219l-1.47.518m-.088.701l.395-.307-.307-.394m74.687 95.787c.223 0 .444-.07.631-.216m-.631.216l.631-.216m0 0a1.03 1.03 0 0 0 .178-1.44l-.178 1.44z" stroke="#fff"/></mask><g mask="url(#O)"><path d="M646.294 717.473l-.001-.002-73.715-94.253.056-.044a219.58 219.58 0 0 0 1.56-1.221l73.716 94.256-1.616 1.264zm0 0c.199.257.5.392.808.392m-.808-.392l.808.392m-75.771-96.242l-.002-.001-.393.308.395-.307zm0 0l.036-.028.024-.018.307.394.629.808m-.996-1.156l-.789.615-.311-.398.4-.307c.144-.11.285-.22.428-.332l.024-.019.395-.307.307.394.63.809m-.088.701l-.306-.395.394-.306m-.088.701c.521-.404 1.041-.81 1.558-1.219l-1.47.518m-.088.701l.395-.307-.307-.394m74.687 95.787c.223 0 .444-.07.631-.216m-.631.216l.631-.216m0 0a1.03 1.03 0 0 0 .178-1.44l-.178 1.44z" stroke="#C7AB77"/></g></g><g opacity=".3"><mask id="P" style="mask-type:luminance" maskUnits="userSpaceOnUse" x="552" y="634" width="30" height="43"><path d="M579.057 675.449l.001.002a1.02 1.02 0 0 0 1.418.295c.474-.312.605-.947.295-1.418l-.001-.001-25.42-38.728c-.569.377-1.139.751-1.711 1.124l25.418 38.726z" stroke="#fff"/></mask><g mask="url(#P)"><path d="M579.057 675.449l.001.002a1.02 1.02 0 0 0 1.418.295c.474-.312.605-.947.295-1.418l-.001-.001-25.42-38.728c-.569.377-1.139.751-1.711 1.124l25.418 38.726z" stroke="#C7AB77"/></g></g><g opacity=".3"><mask id="Q" style="mask-type:luminance" maskUnits="userSpaceOnUse" x="532" y="646" width="62" height="109"><path d="M590.776 753.708v.001c.185.341.539.537.904.537a1.025 1.025 0 0 0 .897-1.518v-.001L535.44 647.634c-.599.329-1.198.656-1.798.98l57.134 105.094z" stroke="#fff"/></mask><g mask="url(#Q)"><path d="M590.776 753.708v.001c.185.341.539.537.904.537a1.025 1.025 0 0 0 .897-1.518v-.001L535.44 647.634c-.599.329-1.198.656-1.798.98l57.134 105.094z" stroke="#C7AB77"/></g></g><g opacity=".3"><mask id="R" style="mask-type:luminance" maskUnits="userSpaceOnUse" x="512" y="657" width="22" height="46"><path d="M533.274 700.345h-.001l-18.672-42.372-.606.267c-.332.263-.672.529-1.008.793l-.119.093 18.526 42.043c.163.368.517.593.893.61l.505-.105c.488-.243.703-.827.482-1.329z" stroke="#fff"/></mask><g mask="url(#R)"><path d="M533.274 700.345h-.001l-18.672-42.372-.606.267c-.332.263-.672.529-1.008.793l-.119.093 18.526 42.043c.163.368.517.593.893.61l.505-.105c.488-.243.703-.827.482-1.329z" stroke="#C7AB77"/></g></g><g opacity=".3"><mask id="S" style="mask-type:luminance" maskUnits="userSpaceOnUse" x="490" y="665" width="43" height="117"><path d="M531.979 779.618l-36.892-106.944c-.576.426-1.155.854-1.729 1.276l36.682 106.337v.001c.144.41.522.674.935.69l.407-.069c.51-.197.779-.766.597-1.291zm-39.011-113.085c-.646.225-1.293.447-1.94.667l.946 2.74c.576-.424 1.152-.852 1.727-1.278l-.733-2.129z" stroke="#fff"/></mask><g mask="url(#S)"><path d="M531.979 779.618l-36.892-106.944c-.576.426-1.155.854-1.729 1.276l36.682 106.337v.001c.144.41.522.674.935.69l.407-.069c.51-.197.779-.766.597-1.291zm-39.011-113.085c-.646.225-1.293.447-1.94.667l.946 2.74c.576-.424 1.152-.852 1.727-1.278l-.733-2.129z" stroke="#C7AB77"/></g></g><g opacity=".3"><mask id="T" style="mask-type:luminance" maskUnits="userSpaceOnUse" x="467" y="671" width="16" height="49"><path d="M482.129 718.167v-.001l-7.802-30.642-1.801 1.241 7.613 29.904v.001c.119.457.522.762.968.773l.31-.037c.532-.154.85-.705.712-1.239zm-8.866-34.829l-2.564-10.073-.225.058-.486.127-.124-.487-.255-.995c-.426.109-.851.216-1.278.322l3.13 12.294 1.802-1.246z" stroke="#fff"/></mask><g mask="url(#T)"><path d="M482.129 718.167v-.001l-7.802-30.642-1.801 1.241 7.613 29.904v.001c.119.457.522.762.968.773l.31-.037c.532-.154.85-.705.712-1.239zm-8.866-34.829l-2.564-10.073-.225.058-.486.127-.124-.487-.255-.995c-.426.109-.851.216-1.278.322l3.13 12.294 1.802-1.246z" stroke="#C7AB77"/></g></g><g opacity=".3"><mask id="U" style="mask-type:luminance" maskUnits="userSpaceOnUse" x="445" y="677" width="24" height="121"><path d="M465.755 796.48c.083.495.507.846.993.855l.209-.017c.548-.101.915-.625.821-1.175v-.001l-15.755-93.788c-.626.4-1.253.799-1.879 1.196l15.611 92.93zm-17.802-118.365c-.674.114-1.348.227-2.023.337l3.487 20.763c.625-.399 1.255-.802 1.878-1.203l-3.342-19.897z" stroke="#fff"/></mask><g mask="url(#U)"><path d="M465.755 796.48c.083.495.507.846.993.855l.209-.017c.548-.101.915-.625.821-1.175v-.001l-15.755-93.788c-.626.4-1.253.799-1.879 1.196l15.611 92.93zm-17.802-118.365c-.674.114-1.348.227-2.023.337l3.487 20.763c.625-.399 1.255-.802 1.878-1.203l-3.342-19.897z" stroke="#C7AB77"/></g></g><g opacity=".3"><mask id="V" style="mask-type:luminance" maskUnits="userSpaceOnUse" x="422" y="679" width="8" height="50"><path d="M427.896 717.117c-.654.383-1.309.765-1.963 1.145l.772 9.215c.044.531.488.934 1.01.938l.107-.004c.559-.053.972-.546.926-1.107v-.001l-.852-10.186zm-3.146-37.553c-.679.059-1.363.115-2.044.17l2.853 34.06 1.963-1.151-2.772-33.079z" stroke="#fff"/></mask><g mask="url(#V)"><path d="M427.896 717.117c-.654.383-1.309.765-1.963 1.145l.772 9.215c.044.531.488.934 1.01.938l.107-.004c.559-.053.972-.546.926-1.107v-.001l-.852-10.186zm-3.146-37.553c-.679.059-1.363.115-2.044.17l2.853 34.06 1.963-1.151-2.772-33.079z" stroke="#C7AB77"/></g></g><g opacity=".3"><mask id="W" style="mask-type:luminance" maskUnits="userSpaceOnUse" x="399" y="681" width="4" height="123"><path d="M399.677 801.845c0 .565.458 1.022 1.025 1.022h.003c.564 0 1.022-.458 1.022-1.024v-.001l-.045-70.162c-.684.36-1.365.717-2.051 1.075l.046 69.09zm-.079-119.685l.03 46.026a675.49 675.49 0 0 0 2.05-1.083l-.03-44.947c-.498.003-.994.004-1.491.004h-.559z" stroke="#fff"/></mask><g mask="url(#W)"><path d="M399.677 801.845c0 .565.458 1.022 1.025 1.022h.003c.564 0 1.022-.458 1.022-1.024v-.001l-.045-70.162c-.684.36-1.365.717-2.051 1.075l.046 69.09zm-.079-119.685l.03 46.026a675.49 675.49 0 0 0 2.05-1.083l-.03-44.947c-.498.003-.994.004-1.491.004h-.559z" stroke="#C7AB77"/></g></g><g opacity=".3"><mask id="X" style="mask-type:luminance" maskUnits="userSpaceOnUse" x="372" y="680" width="7" height="49"><path d="M374.582 727.512v-.001l3.807-46.194c-.682-.053-1.364-.108-2.045-.165l-3.805 46.19a1.023 1.023 0 0 0 .93 1.105l.103.005a1.022 1.022 0 0 0 1.01-.94z" stroke="#fff"/></mask><g mask="url(#X)"><path d="M374.582 727.512v-.001l3.807-46.194c-.682-.053-1.364-.108-2.045-.165l-3.805 46.19a1.023 1.023 0 0 0 .93 1.105l.103.005a1.022 1.022 0 0 0 1.01-.94z" stroke="#C7AB77"/></g></g><g opacity=".3"><mask id="Y" style="mask-type:luminance" maskUnits="userSpaceOnUse" x="333" y="677" width="23" height="121"><path d="M333.62 796.231a1.03 1.03 0 0 0 .822 1.177l.205.014c.488-.007.912-.36.995-.857l6.225-37.359c-.741.29-1.484.581-2.225.869l-6.022 36.156zm9.024-41.689l12.66-75.987c-.674-.109-1.348-.221-2.022-.335l-12.864 77.204c.742-.293 1.486-.587 2.226-.882z" stroke="#fff"/></mask><g mask="url(#Y)"><path d="M333.62 796.231a1.03 1.03 0 0 0 .822 1.177l.205.014c.488-.007.912-.36.995-.857l6.225-37.359c-.741.29-1.484.581-2.225.869l-6.022 36.156zm9.024-41.689l12.66-75.987c-.674-.109-1.348-.221-2.022-.335l-12.864 77.204c.742-.293 1.486-.587 2.226-.882z" stroke="#C7AB77"/></g></g><g opacity=".3"><mask id="Z" style="mask-type:luminance" maskUnits="userSpaceOnUse" x="318" y="672" width="16" height="49"><path d="M319.145 718.276a1.024 1.024 0 0 0 .718 1.236l.306.039c.447-.012.849-.319.965-.774v-.001l11.369-44.902c-.663-.166-1.326-.333-1.989-.504l-11.369 44.906z" stroke="#fff"/></mask><g mask="url(#Z)"><path d="M319.145 718.276a1.024 1.024 0 0 0 .718 1.236l.306.039c.447-.012.849-.319.965-.774v-.001l11.369-44.902c-.663-.166-1.326-.333-1.989-.504l-11.369 44.906z" stroke="#C7AB77"/></g></g><g opacity=".3"><mask id="aa" style="mask-type:luminance" maskUnits="userSpaceOnUse" x="269" y="664" width="43" height="118"><path d="M308.259 666.647L270.263 777.26c.784-.178 1.569-.357 2.354-.539l38.077-110.85-.726-.248-.336.972-.164.473-.473-.165-.605-.211-.131-.045z" stroke="#fff"/></mask><g mask="url(#aa)"><path d="M308.259 666.647L270.263 777.26c.784-.178 1.569-.357 2.354-.539l38.077-110.85-.726-.248-.336.972-.164.473-.473-.165-.605-.211-.131-.045z" stroke="#C7AB77"/></g></g><g opacity=".3"><mask id="ab" style="mask-type:luminance" maskUnits="userSpaceOnUse" x="208" y="647" width="61" height="108"><path d="M209.172 754.372l.005.003a1.023 1.023 0 0 0 1.385-.413l57.023-105.22a222.33 222.33 0 0 1-1.802-.978L208.76 752.982h-.001c-.27.5-.086 1.12.413 1.39z" stroke="#fff"/></mask><g mask="url(#ab)"><path d="M209.172 754.372l.005.003a1.023 1.023 0 0 0 1.385-.413l57.023-105.22a222.33 222.33 0 0 1-1.802-.978L208.76 752.982h-.001c-.27.5-.086 1.12.413 1.39z" stroke="#C7AB77"/></g></g><g opacity=".3"><mask id="ac" style="mask-type:luminance" maskUnits="userSpaceOnUse" x="219" y="635" width="30" height="42"><path d="M220.445 674.564a1.022 1.022 0 0 0 .856 1.585c.337 0 .663-.164.858-.462l25.409-38.821c-.574-.372-1.145-.747-1.715-1.123l-25.408 38.821z" stroke="#fff"/></mask><g mask="url(#ac)"><path d="M220.445 674.564a1.022 1.022 0 0 0 .856 1.585c.337 0 .663-.164.858-.462l25.409-38.821c-.574-.372-1.145-.747-1.715-1.123l-25.408 38.821z" stroke="#C7AB77"/></g></g><g opacity=".3"><mask id="ad" style="mask-type:luminance" maskUnits="userSpaceOnUse" x="152" y="620" width="78" height="99"><path d="M153.558 717.973l.003.002a1.02 1.02 0 0 0 1.436-.176l73.626-94.394c-.541-.419-1.08-.84-1.618-1.262l-73.623 94.393a1.02 1.02 0 0 0 .176 1.437z" stroke="#fff"/></mask><g mask="url(#ad)"><path d="M153.558 717.973l.003.002a1.02 1.02 0 0 0 1.436-.176l73.626-94.394c-.541-.419-1.08-.84-1.618-1.262l-73.623 94.393a1.02 1.02 0 0 0 .176 1.437z" stroke="#C7AB77"/></g></g><g opacity=".3"><mask id="ae" style="mask-type:luminance" maskUnits="userSpaceOnUse" x="177" y="606" width="35" height="38"><path d="M210.826 608.405c-.504-.462-1.007-.926-1.506-1.392l-31.476 34.106-.001.001a1.03 1.03 0 0 0 .058 1.451 1.023 1.023 0 0 0 1.448-.058l.001-.001 31.476-34.107z" stroke="#fff"/></mask><g mask="url(#ae)"><path d="M210.826 608.405c-.504-.462-1.007-.926-1.506-1.392l-31.476 34.106-.001.001a1.03 1.03 0 0 0 .058 1.451 1.023 1.023 0 0 0 1.448-.058l.001-.001 31.476-34.107z" stroke="#C7AB77"/></g></g><g opacity=".3"><mask id="af" style="mask-type:luminance" maskUnits="userSpaceOnUse" x="103" y="589" width="93" height="85"><path d="M104.713 672.898l.002.002c.199.22.477.332.756.332.244 0 .493-.09.694-.271l.001-.001 88.182-80.945c-.464-.503-.927-1.007-1.388-1.511l-88.183 80.946a1.023 1.023 0 0 0-.064 1.448z" stroke="#fff"/></mask><g mask="url(#af)"><path d="M104.713 672.898l.002.002c.199.22.477.332.756.332.244 0 .493-.09.694-.271l.001-.001 88.182-80.945c-.464-.503-.927-1.007-1.388-1.511l-88.183 80.946a1.023 1.023 0 0 0-.064 1.448z" stroke="#C7AB77"/></g></g><g opacity=".3"><mask id="ag" style="mask-type:luminance" maskUnits="userSpaceOnUse" x="140" y="571" width="40" height="33"><path d="M179.257 574.296c-.422-.538-.842-1.078-1.259-1.619l-36.651 28.432-.002.001a1.02 1.02 0 0 0-.181 1.434l38.093-28.248zm0 0l-36.652 28.43a1.021 1.021 0 0 1-1.441-.182l38.093-28.248z" stroke="#fff"/></mask><g mask="url(#ag)"><path d="M179.257 574.296c-.422-.538-.842-1.078-1.259-1.619l-36.651 28.432-.002.001a1.02 1.02 0 0 0-.181 1.434l38.093-28.248zm0 0l-36.652 28.43a1.021 1.021 0 0 1-1.441-.182l38.093-28.248z" stroke="#C7AB77"/></g></g><g opacity=".3"><mask id="ah" style="mask-type:luminance" maskUnits="userSpaceOnUse" x="63" y="553" width="104" height="69"><path d="M63.977 620.382c.196.301.525.467.861.467a.991.991 0 0 0 .552-.165l.004-.003L165.7 555.414a295.69 295.69 0 0 1-1.12-1.716L64.276 618.963v.001a1.024 1.024 0 0 0-.299 1.418z" stroke="#fff"/></mask><g mask="url(#ah)"><path d="M63.977 620.382c.196.301.525.467.861.467a.991.991 0 0 0 .552-.165l.004-.003L165.7 555.414a295.69 295.69 0 0 1-1.12-1.716L64.276 618.963v.001a1.024 1.024 0 0 0-.299 1.418z" stroke="#C7AB77"/></g></g><g opacity=".3"><mask id="ai" style="mask-type:luminance" maskUnits="userSpaceOnUse" x="110" y="532" width="46" height="27"><path d="M153.735 535.446l-.346-.638-.236-.44.439-.237.899-.487-.388-.724-42.154 22.7a1.026 1.026 0 1 0 .972 1.805l.002-.001 40.812-21.978z" stroke="#fff"/></mask><g mask="url(#ai)"><path d="M153.735 535.446l-.346-.638-.236-.44.439-.237.899-.487-.388-.724-42.154 22.7a1.026 1.026 0 1 0 .972 1.805l.002-.001 40.812-21.978z" stroke="#C7AB77"/></g></g><g opacity=".3"><mask id="aj" style="mask-type:luminance" maskUnits="userSpaceOnUse" x="31" y="512" width="114" height="51"><path d="M32.464 561.865c.16.367.513.594.895.611l.503-.103 109.631-47.795a355 355 0 0 1-.819-1.88l-109.68 47.815a1.03 1.03 0 0 0-.53 1.352z" stroke="#fff"/></mask><g mask="url(#aj)"><path d="M32.464 561.865c.16.367.513.594.895.611l.503-.103 109.631-47.795a355 355 0 0 1-.819-1.88l-109.68 47.815a1.03 1.03 0 0 0-.53 1.352z" stroke="#C7AB77"/></g></g><g opacity=".3"><mask id="ak" style="mask-type:luminance" maskUnits="userSpaceOnUse" x="89" y="489" width="49" height="20"><path d="M89.82 507.206l.001.001c.14.412.517.678.932.693l.406-.068 45.291-15.421c-.222-.646-.442-1.294-.659-1.942l-45.33 15.437a1.024 1.024 0 0 0-.64 1.3z" stroke="#fff"/></mask><g mask="url(#ak)"><path d="M89.82 507.206l.001.001c.14.412.517.678.932.693l.406-.068 45.291-15.421c-.222-.646-.442-1.294-.659-1.942l-45.33 15.437a1.024 1.024 0 0 0-.64 1.3z" stroke="#C7AB77"/></g></g><g opacity=".3"><mask id="al" style="mask-type:luminance" maskUnits="userSpaceOnUse" x="10" y="468" width="119" height="33"><path d="M31.019 492.885L11.782 497.7v.001a1.024 1.024 0 0 0-.747 1.243v.002c.113.454.517.763.966.776l.307-.038 17.987-4.505c.24-.765.48-1.529.724-2.294zm4.74-1.188a331.83 331.83 0 0 0-.74 2.301l93.355-23.375c-.167-.663-.332-1.326-.495-1.99l-92.12 23.064z" stroke="#fff"/></mask><g mask="url(#al)"><path d="M31.019 492.885L11.782 497.7v.001a1.024 1.024 0 0 0-.747 1.243v.002c.113.454.517.763.966.776l.307-.038 17.987-4.505c.24-.765.48-1.529.724-2.294zm4.74-1.188a331.83 331.83 0 0 0-.74 2.301l93.355-23.375c-.167-.663-.332-1.326-.495-1.99l-92.12 23.064z" stroke="#C7AB77"/></g></g><g opacity=".3"><mask id="am" style="mask-type:luminance" maskUnits="userSpaceOnUse" x="76" y="445" width="49" height="11"><path d="M76.629 454.502c.084.498.509.852.992.861l.204-.017 45.788-7.505c-.112-.674-.222-1.348-.33-2.023l-45.807 7.506c-.56.094-.938.62-.847 1.178z" stroke="#fff"/></mask><g mask="url(#am)"><path d="M76.629 454.502c.084.498.509.852.992.861l.204-.017 45.788-7.505c-.112-.674-.222-1.348-.33-2.023l-45.807 7.506c-.56.094-.938.62-.847 1.178z" stroke="#C7AB77"/></g></g><g opacity=".3"><mask id="an" style="mask-type:luminance" maskUnits="userSpaceOnUse" x="-1" y="422" width="123" height="13"><path d="M56.539 427.842l-55.311 4.409a1.026 1.026 0 0 0 .07 2.047l.103-.004 54.15-4.319c.326-.711.656-1.423.988-2.133zm64.072-4.609v-.001l-.003-.036a66.116 66.116 0 0 1-.035-.46l-59.226 4.723a567.1 567.1 0 0 0-.999 2.133l60.387-4.813c-.043-.516-.084-1.032-.124-1.546z" stroke="#fff"/></mask><g mask="url(#an)"><path d="M56.539 427.842l-55.311 4.409a1.026 1.026 0 0 0 .07 2.047l.103-.004 54.15-4.319c.326-.711.656-1.423.988-2.133zm64.072-4.609v-.001l-.003-.036a66.116 66.116 0 0 1-.035-.46l-59.226 4.723a567.1 567.1 0 0 0-.999 2.133l60.387-4.813c-.043-.516-.084-1.032-.124-1.546z" stroke="#C7AB77"/></g></g><g opacity=".3"><mask id="ao" style="mask-type:luminance" maskUnits="userSpaceOnUse" x="73" y="398" width="48" height="5"><path d="M75.46 399.331c-.364.684-.724 1.364-1.084 2.047l45.376.152v-.374c0-.56.001-1.119.005-1.679l-44.296-.146z" stroke="#fff"/></mask><g mask="url(#ao)"><path d="M75.46 399.331c-.364.684-.724 1.364-1.084 2.047l45.376.152v-.374c0-.56.001-1.119.005-1.679l-44.296-.146z" stroke="#C7AB77"/></g></g><g opacity=".3"><mask id="ap" style="mask-type:luminance" maskUnits="userSpaceOnUse" x="0" y="365" width="123" height="14"><path d="M120.855 376.26l-30.947-2.673c-.385.652-.769 1.304-1.15 1.956l31.921 2.759.007-.078c.055-.655.112-1.311.169-1.964zm-35.571-3.073l-83.662-7.232-.088-.004a1.04 1.04 0 0 0-1.024.938 1.023 1.023 0 0 0 .93 1.109h.001l82.699 7.146c.38-.653.76-1.305 1.144-1.957z" stroke="#fff"/></mask><g mask="url(#ap)"><path d="M120.855 376.26l-30.947-2.673c-.385.652-.769 1.304-1.15 1.956l31.921 2.759.007-.078c.055-.655.112-1.311.169-1.964zm-35.571-3.073l-83.662-7.232-.088-.004a1.04 1.04 0 0 0-1.024.938 1.023 1.023 0 0 0 .93 1.109h.001l82.699 7.146c.38-.653.76-1.305 1.144-1.957z" stroke="#C7AB77"/></g></g><g opacity=".3"><mask id="aq" style="mask-type:luminance" maskUnits="userSpaceOnUse" x="76" y="344" width="49" height="12"><path d="M100.053 349.117l-21.886-3.736-.005-.001a1.034 1.034 0 0 0-1.178.838c-.095.56.28 1.089.839 1.184l21.032 3.59c.398-.624.796-1.25 1.198-1.875zm4.467.762c-.4.622-.802 1.251-1.201 1.874l20.216 3.453c.113-.674.228-1.348.344-2.021l-19.359-3.306z" stroke="#fff"/></mask><g mask="url(#aq)"><path d="M100.053 349.117l-21.886-3.736-.005-.001a1.034 1.034 0 0 0-1.178.838c-.095.56.28 1.089.839 1.184l21.032 3.59c.398-.624.796-1.25 1.198-1.875zm4.467.762c-.4.622-.802 1.251-1.201 1.874l20.216 3.453c.113-.674.228-1.348.344-2.021l-19.359-3.306z" stroke="#C7AB77"/></g></g><g opacity=".3"><mask id="ar" style="mask-type:luminance" maskUnits="userSpaceOnUse" x="11" y="300" width="119" height="34"><path d="M12.43 302.619h.001l101.207 26.055c.392-.57.786-1.14 1.18-1.71l.06-.087-101.935-26.242a1.09 1.09 0 0 0-.265-.036c-.452 0-.866.308-.985.771-.141.55.188 1.108.738 1.249zm106.732 25.36l-1.244 1.798 10.383 2.674c.168-.663.339-1.326.511-1.987l-9.65-2.485z" stroke="#fff"/></mask><g mask="url(#ar)"><path d="M12.43 302.619h.001l101.207 26.055c.392-.57.786-1.14 1.18-1.71l.06-.087-101.935-26.242a1.09 1.09 0 0 0-.265-.036c-.452 0-.866.308-.985.771-.141.55.188 1.108.738 1.249zm106.732 25.36l-1.244 1.798 10.383 2.674c.168-.663.339-1.326.511-1.987l-9.65-2.485z" stroke="#C7AB77"/></g></g><g opacity=".3"><mask id="as" style="mask-type:luminance" maskUnits="userSpaceOnUse" x="89" y="292" width="48" height="19"><path d="M129.731 306.159l-37.897-13.185-.003-.001a1.025 1.025 0 0 0-1.303.631v.001c-.186.535.096 1.12.633 1.305v.001l37.292 12.975 1.278-1.727zm4.083 1.421a957.59 957.59 0 0 0-1.28 1.725l2.423.843c.222-.644.446-1.29.674-1.935l-1.817-.633z" stroke="#fff"/></mask><g mask="url(#as)"><path d="M129.731 306.159l-37.897-13.185-.003-.001a1.025 1.025 0 0 0-1.303.631v.001c-.186.535.096 1.12.633 1.305v.001l37.292 12.975 1.278-1.727zm4.083 1.421a957.59 957.59 0 0 0-1.28 1.725l2.423.843c.222-.644.446-1.29.674-1.935l-1.817-.633z" stroke="#C7AB77"/></g></g><g opacity=".3"><mask id="at" style="mask-type:luminance" maskUnits="userSpaceOnUse" x="32" y="237" width="113" height="53"><path d="M34.057 239.95l109.216 48.477.453-.577c.181-.409.362-.817.545-1.224L34.889 238.075a1.028 1.028 0 0 0-1.354.521 1.03 1.03 0 0 0 .522 1.354z" stroke="#fff"/></mask><g mask="url(#at)"><path d="M34.057 239.95l109.216 48.477.453-.577c.181-.409.362-.817.545-1.224L34.889 238.075a1.028 1.028 0 0 0-1.354.521 1.03 1.03 0 0 0 .522 1.354z" stroke="#C7AB77"/></g></g><g opacity=".3"><mask id="au" style="mask-type:luminance" maskUnits="userSpaceOnUse" x="111" y="242" width="45" height="27"><path d="M153.692 267.614c.326-.601.655-1.201.987-1.8l-40.716-22.274a1.032 1.032 0 0 0-1.394.408 1.032 1.032 0 0 0 .411 1.392l40.712 22.274z" stroke="#fff"/></mask><g mask="url(#au)"><path d="M153.692 267.614c.326-.601.655-1.201.987-1.8l-40.716-22.274a1.032 1.032 0 0 0-1.394.408 1.032 1.032 0 0 0 .411 1.392l40.712 22.274z" stroke="#C7AB77"/></g></g><g opacity=".3"><mask id="av" style="mask-type:luminance" maskUnits="userSpaceOnUse" x="64" y="179" width="104" height="70"><path d="M65.728 181.708l99.904 65.956c.375-.571.751-1.141 1.13-1.709l-99.904-65.957v-.001a1.026 1.026 0 0 0-1.13 1.711z" stroke="#fff"/></mask><g mask="url(#av)"><path d="M65.728 181.708l99.904 65.956c.375-.571.751-1.141 1.13-1.709l-99.904-65.957v-.001a1.026 1.026 0 0 0-1.13 1.711z" stroke="#C7AB77"/></g></g><g opacity=".3"><mask id="aw" style="mask-type:luminance" maskUnits="userSpaceOnUse" x="141" y="197" width="42" height="33"><path d="M142.505 198.61a1.024 1.024 0 0 0 .172 1.439h.001l36.505 28.706.008-.01c.237-.304.476-.609.716-.913l.309-.392.393.309.805.635.236-.297-37.705-29.65-.003-.002a1 1 0 0 0-.63-.218 1.02 1.02 0 0 0-.807.392v.001z" stroke="#fff"/></mask><g mask="url(#aw)"><path d="M142.505 198.61a1.024 1.024 0 0 0 .172 1.439h.001l36.505 28.706.008-.01c.237-.304.476-.609.716-.913l.309-.392.393.309.805.635.236-.297-37.705-29.65-.003-.002a1 1 0 0 0-.63-.218 1.02 1.02 0 0 0-.807.392v.001z" stroke="#C7AB77"/></g></g><g opacity=".3"><mask id="ax" style="mask-type:luminance" maskUnits="userSpaceOnUse" x="105" y="127" width="92" height="85"><path d="M106.525 128.042a1.027 1.027 0 0 0 .052 1.451l87.661 81.544c.465-.502.93-1.003 1.397-1.502l-87.662-81.547a1.025 1.025 0 0 0-1.448.054z" stroke="#fff"/></mask><g mask="url(#ax)"><path d="M106.525 128.042a1.027 1.027 0 0 0 .052 1.451l87.661 81.544c.465-.502.93-1.003 1.397-1.502l-87.662-81.547a1.025 1.025 0 0 0-1.448.054z" stroke="#C7AB77"/></g></g><path opacity=".3" d="M378.879 124.129C225.713 136.048 111.213 269.874 123.134 423.04c11.918 153.162 145.742 267.663 298.908 255.744 153.162-11.921 267.663-145.747 255.744-298.91-11.921-153.163-145.745-267.663-298.907-255.745z" stroke="#C7AB77"/><g opacity=".3"><mask id="az" style="mask-type:luminance" maskUnits="userSpaceOnUse" x="187" y="188" width="430" height="430"><mask id="ay" fill="#fff"><path d="M400.458 617.705c-59.621 0-113.683-24.254-152.84-63.41 39.157 39.156 93.217 63.41 152.84 63.41 119.238 0 216.246-97.011 216.246-216.25 0-59.62-24.251-113.682-63.407-152.839 39.156 39.157 63.41 93.219 63.41 152.839 0 119.241-97.009 216.25-216.249 216.25zm-109.092-33.128c-62.305-37.258-104.11-105.399-104.11-183.122 0-117.559 95.64-213.199 213.202-213.199 58.548 0 111.661 23.724 150.229 62.064-38.568-38.34-91.679-62.064-150.229-62.064-117.56 0-213.2 95.64-213.2 213.199 0 77.723 41.803 145.864 104.108 183.122z"/></mask><path d="M551.293 251.624a.68.68 0 0 1-.032-.026l-.02-.018-.019-.019.002.002a.17.17 0 0 0 .012.011l.023.019.6-.8.032.025.02.018.019.019-.002-.002a.076.076 0 0 0-.012-.01.178.178 0 0 0-.023-.019l-.6.8zm-.507-.5c-.026-.026-.091-.089-.138-.139l.728-.685c.035.037.061.061.117.117l-.707.707zm-.225-.225l-.155-.153.689-.724c.059.056.122.119.173.17l-.707.707zM400.458 618.705c-59.897 0-114.211-24.367-153.547-63.703l1.414-1.414c38.978 38.977 92.789 63.117 152.133 63.117v2zm-152.133-65.117c38.978 38.977 92.786 63.117 152.133 63.117v2c-59.9 0-114.211-24.367-153.547-63.703l1.414-1.414zm152.133 63.117c118.685 0 215.246-96.564 215.246-215.25h2c0 119.791-97.456 217.25-217.246 217.25v-2zm215.246-215.25c0-59.343-24.137-113.154-63.114-152.132l1.414-1.414c39.336 39.336 63.7 93.649 63.7 153.546h-2zm-61.7-153.546c39.336 39.336 63.703 93.649 63.703 153.546h-2c0-59.343-24.14-113.154-63.117-152.132l1.414-1.414zm63.703 153.546c0 119.793-97.456 217.25-217.249 217.25v-2c118.688 0 215.249-96.561 215.249-215.25h2zm-326.855 183.98c-62.593-37.43-104.596-105.89-104.596-183.98h2c0 77.355 41.607 145.178 103.623 182.264l-1.027 1.716zm-104.596-183.98c0-118.111 96.087-214.199 214.202-214.199v2c-117.01 0-212.202 95.192-212.202 212.199h-2zm214.202-214.199c58.823 0 112.187 23.837 150.934 62.355l-1.41 1.419c-38.389-38.163-91.252-61.774-149.524-61.774v-2zm149.524 63.774c-38.389-38.163-91.249-61.774-149.524-61.774v-2c58.826 0 112.187 23.837 150.934 62.355l-1.41 1.419zm-149.524-61.774c-117.008 0-212.2 95.192-212.2 212.199h-2c0-118.111 96.088-214.199 214.2-214.199v2zm-212.2 212.199c0 77.355 41.605 145.178 103.621 182.264l-1.027 1.716c-62.593-37.43-104.594-105.89-104.594-183.98h2z" fill="#fff" mask="url(#ay)"/></mask><g mask="url(#az)"><mask id="aA" fill="#fff"><path d="M400.458 617.705c-59.621 0-113.683-24.254-152.84-63.41 39.157 39.156 93.217 63.41 152.84 63.41 119.238 0 216.246-97.011 216.246-216.25 0-59.62-24.251-113.682-63.407-152.839 39.156 39.157 63.41 93.219 63.41 152.839 0 119.241-97.009 216.25-216.249 216.25zm-109.092-33.128c-62.305-37.258-104.11-105.399-104.11-183.122 0-117.559 95.64-213.199 213.202-213.199 58.548 0 111.661 23.724 150.229 62.064-38.568-38.34-91.679-62.064-150.229-62.064-117.56 0-213.2 95.64-213.2 213.199 0 77.723 41.803 145.864 104.108 183.122z"/></mask><path d="M551.293 251.624a.68.68 0 0 1-.032-.026l-.02-.018-.019-.019.002.002a.17.17 0 0 0 .012.011l.023.019.6-.8.032.025.02.018.019.019-.002-.002a.076.076 0 0 0-.012-.01.178.178 0 0 0-.023-.019l-.6.8zm-.507-.5c-.026-.026-.091-.089-.138-.139l.728-.685c.035.037.061.061.117.117l-.707.707zm-.225-.225l-.155-.153.689-.724c.059.056.122.119.173.17l-.707.707zM400.458 618.705c-59.897 0-114.211-24.367-153.547-63.703l1.414-1.414c38.978 38.977 92.789 63.117 152.133 63.117v2zm-152.133-65.117c38.978 38.977 92.786 63.117 152.133 63.117v2c-59.9 0-114.211-24.367-153.547-63.703l1.414-1.414zm152.133 63.117c118.685 0 215.246-96.564 215.246-215.25h2c0 119.791-97.456 217.25-217.246 217.25v-2zm215.246-215.25c0-59.343-24.137-113.154-63.114-152.132l1.414-1.414c39.336 39.336 63.7 93.649 63.7 153.546h-2zm-61.7-153.546c39.336 39.336 63.703 93.649 63.703 153.546h-2c0-59.343-24.14-113.154-63.117-152.132l1.414-1.414zm63.703 153.546c0 119.793-97.456 217.25-217.249 217.25v-2c118.688 0 215.249-96.561 215.249-215.25h2zm-326.855 183.98c-62.593-37.43-104.596-105.89-104.596-183.98h2c0 77.355 41.607 145.178 103.623 182.264l-1.027 1.716zm-104.596-183.98c0-118.111 96.087-214.199 214.202-214.199v2c-117.01 0-212.202 95.192-212.202 212.199h-2zm214.202-214.199c58.823 0 112.187 23.837 150.934 62.355l-1.41 1.419c-38.389-38.163-91.252-61.774-149.524-61.774v-2zm149.524 63.774c-38.389-38.163-91.249-61.774-149.524-61.774v-2c58.826 0 112.187 23.837 150.934 62.355l-1.41 1.419zm-149.524-61.774c-117.008 0-212.2 95.192-212.2 212.199h-2c0-118.111 96.088-214.199 214.2-214.199v2zm-212.2 212.199c0 77.355 41.605 145.178 103.621 182.264l-1.027 1.716c-62.593-37.43-104.594-105.89-104.594-183.98h2z" fill="#C7AB77" mask="url(#aA)"/></g></g><g opacity=".3"><mask id="aB" style="mask-type:luminance" maskUnits="userSpaceOnUse" x="139" y="140" width="523" height="523"><path d="M268.759 622.525l.256-.429-.256.429c-75.215-44.978-125.684-127.24-125.684-221.07 0-141.922 115.459-257.381 257.384-257.381 70.678 0 134.795 28.638 181.354 74.918l.014.013.04.04.017.018.011.011c.069.065.141.138.201.198l.117.117.006.006.005.005.08.081.063.062.495.497.01.01a.038.038 0 0 1 .009.009l.008.006.027.027.089.091.18.181.274.277c45.963 46.513 74.378 110.408 74.378 180.814 0 141.922-115.456 257.381-257.378 257.381-48.093 0-93.147-13.259-131.7-36.311zm-52.101-37.269c47.09 47.09 112.1 76.255 183.801 76.255 143.392 0 260.053-116.663 260.053-260.056 0-71.697-29.163-136.711-76.253-183.801-47.089-47.089-112.103-76.252-183.8-76.252-143.396 0-260.057 116.658-260.057 260.053 0 71.698 29.163 136.711 76.256 183.801z" stroke="#fff"/></mask><g mask="url(#aB)"><path stroke="#C7AB77" d="M139.334 140.295H661.617V662.578H139.334z"/></g></g><g opacity=".3"><path d="M394.143 395.415l-64.304-106.781H205.36l188.783 106.781zM332.08 517.036l66.349 111.099V408.587L332.08 517.036zm-3.673-2.149l65.614-107.238-188.692 107.238h123.078zm4.417-229.526l.02.025.016.027 65.569 108.878V174.867L332.78 285.305l.044.056zm-70.193 117.702l-59.466 108.162L393.48 403.063H262.631zm-.238-4.254h129.115L203.216 292.305l59.177 106.504zm144.285 8.606l65.754 107.472h123.09L406.678 407.415zm61.242-121.9l-65.236-110.597v218.914l65.236-108.317zm.703 231.296l-65.939-107.776v219.052l65.939-111.276zm70.183-118.002l59.227-106.726-188.434 106.726h129.207zm59.309 112.659l-59.083-108.405H407.63l190.485 108.405zm-2.626-222.834H471.005L406.56 395.643l188.929-107.009z" stroke="#C7AB77"/></g><path d="M746.596 72.485l29.011-6.093-29.011-6.09 9.368-14.353-14.353 9.371-6.09-29.013-6.093 29.013-14.353-9.37 9.371 14.352-29.01 6.09 29.01 6.093-9.371 14.353 14.353-9.37 6.093 29.01 6.09-29.01 14.353 9.37-9.368-14.353z" fill="#743944"/><path d="M746.178 72.759l-.4-.613.715-.15 26.681-5.603-26.68-5.601-.716-.15.4-.613 8.067-12.36-12.36 8.07-.613.4-.15-.716-5.601-26.683-5.603 26.683-.151.715-.612-.4-12.36-8.069 1.672 2.562 6.398 9.798.4.612-.716.15-26.68 5.602.571.12 7.253 1.523 18.856 3.96.716.15-.4.613-8.069 12.359 2.56-1.672 9.799-6.397.612-.4.151.716 5.603 26.68.12-.571 1.522-7.253 3.959-18.856.15-.716.613.4 12.36 8.07-8.067-12.36z" stroke="#C7AB77" stroke-opacity=".3"/><path d="M3.973 625.044c0-5.635 4.567-10.203 10.205-10.203 5.634 0 10.202 4.568 10.202 10.203 0 5.634-4.568 10.205-10.202 10.205-5.638 0-10.205-4.571-10.205-10.205z" fill="#743944"/><path d="M14.178 615.341c-5.362 0-9.705 4.344-9.705 9.703 0 5.358 4.344 9.705 9.705 9.705 5.358 0 9.702-4.347 9.702-9.705 0-5.359-4.344-9.703-9.702-9.703z" stroke="#C7AB77" stroke-opacity=".3"/></g><defs><clipPath id="clip0_1842_121158"><path fill="#fff" transform="matrix(1 0 0 -1 0 803)" d="M0 0H801V803H0z"/></clipPath></defs></svg>